<svg width="367" height="300" fill="none" xmlns="http://www.w3.org/2000/svg"><g clip-path="url(#a)"><path d="M241.583 32.431c-1.996 26.279 20.354 43.43 40.564 38.75s45.628 3.81 54.905 26.624c13.457 33.09-11.143 45.89 15.587 71.997 22.267 21.748 18.611 52.586-17.015 67.18 0 0-70.182 11.592-86.042-2.065-12.838-11.055-20.699-25.128-25.897-42.341-11.62-38.477 2.387-65.509 2.387-65.509l-8.584-63.516 24.095-31.12Z" fill="#21207F"/><path d="M243.916 205.911c0 11.732 30.757 30.245 42.49 30.245s0-18.513 0-30.245-9.512-21.242-21.245-21.242-21.245 9.51-21.245 21.242Z" fill="#00676C"/><path d="M117.018 160.7c.057-.023.186-.07.395-.118.382-.094 1.027-.189 1.946-.131 4.553.027 15.032 2.57 28.375 21.738a173.113 173.113 0 0 0 3.365 4.671 650.384 650.384 0 0 1 8.803 10.73 691.98 691.98 0 0 1 6.158 7.748l-11.543 46.543s2.723 6.1 10.073 7.85c8.831 2.1 23.299 4.833 43.06.52 43.397-9.471 92.358-1.338 92.358-1.338l-41.431-57.655-35.757-89.873c-6.428 4.37-19.155 16.198-33.299 2.313 1.006-3.395 1.515-7.263 1.515-7.263s-10.542-7.895-22.865 14.417c-15.353 27.801-30.439 29.631-51.153 39.848Z" fill="#00676C"/><path d="M137.319 272.731c3.963-3.793 10.033-7.762 19.677-12.311l-.003-.004c-10.178-7.768-9.374-9.909.804-8.035 4.364.804 8.523 1.598 13.107 1.787h.003c.027.003.051.007.078.007 35.574-14.72 87.261-28.628 111.883-29.105 0 0 .044 0 .105-.003l-20.695-23.809-32.783-61.886 38.878-22.678s37.856 28.762 65.602 75.137c5.466 9.136 19.007 32.104 15.505 52.402-4.848 28.103-34.548 35.202-44.736 37.452-.098.023-.199.044-.297.064-35.574 7.758-73.506-2.121-97.176 2.162-.199.03-.395.067-.591.104h-.007a111.68 111.68 0 0 0-8.181 1.922c-27.967 7.583-55.032 24.359-34.534 3.135 0 0-29.142 18.613-17.413 2.948-.318.149-19.019 8.971-4.818-6.697 7.767-8.569 12.587-12.052 15.266-14.463-10.178 4.823-35.625 17.141-19.674 1.871Z" fill="#fff"/><path d="M158.13 299.993c2.408.001 7.165-1.765 15.21-4.837 7.24-2.765 16.251-6.206 25.303-8.66a111.358 111.358 0 0 1 8.112-1.907l.033-.005c.189-.036.378-.072.571-.101 10.164-1.839 23.28-1.034 37.166-.182 18.631 1.144 39.749 2.44 60.045-1.986l.037-.008c.09-.019.183-.038.273-.06 6.879-1.518 15.895-3.928 24.532-9.096 11.593-6.939 18.537-16.635 20.639-28.82 3.583-20.771-10.338-44.038-15.579-52.798-14.363-24.006-31.471-43.197-43.293-55.07-12.812-12.866-22.361-20.158-22.456-20.23a.582.582 0 0 0-.642-.039l-38.878 22.678a.577.577 0 0 0-.22.771l32.782 61.886a.62.62 0 0 0 .075.109l19.892 22.884c-11.789.406-29.764 3.655-50.846 9.199-20.845 5.482-42.704 12.72-59.997 19.867-4.348-.183-8.295-.911-12.474-1.682l-.513-.095c-5.428-.999-8.002-.843-8.608.524-.804 1.815 2.593 4.863 6.6 7.967-8.652 4.143-14.866 8.076-18.975 12.01-5.53 5.295-5.671 6.885-5.08 7.744 1.235 1.79 6.749.07 21.47-6.817-2.81 2.388-6.741 5.881-12.011 11.694-5.94 6.555-5.87 8.521-5.145 9.502 1.237 1.672 5.637.243 8.705-1.035-1.679 2.542-2.072 4.096-1.285 4.944.798.859 2.829 1.249 11.525-3.412a142.928 142.928 0 0 0 5.517-3.133c-4.303 4.795-4.844 6.537-4.201 7.511.306.462.864.683 1.716.683Zm48.47-16.552a112.341 112.341 0 0 0-8.261 1.938c-9.107 2.469-18.148 5.921-25.412 8.695-4.425 1.69-8.247 3.149-11.053 3.995-3.882 1.169-4.424.707-4.493.603-.012-.019-.284-.478 1.119-2.47 1.13-1.604 3.052-3.805 5.875-6.728a.573.573 0 0 0 .162-.379.583.583 0 0 0-.487-.596.578.578 0 0 0-.403.085c-.044.028-4.466 2.846-9.101 5.33-8.765 4.697-10.01 3.764-10.124 3.642-.073-.079-.626-.898 2.586-5.189a.58.58 0 0 0-.709-.871c-3.974 1.864-8.503 3.213-9.214 2.251-.166-.225-.701-1.667 5.072-8.036 6.043-6.668 10.313-10.257 13.138-12.633a84.06 84.06 0 0 0 2.085-1.788.574.574 0 0 0 .187-.358.574.574 0 0 0-.42-.63.576.576 0 0 0-.402.035l-.966.458c-3.978 1.888-9.427 4.474-14.182 6.377-7.877 3.151-8.733 2.331-8.804 2.227-.026-.038-.574-.984 4.927-6.25 4.152-3.974 10.538-7.967 19.523-12.206a.571.571 0 0 0 .284-.756.582.582 0 0 0-.183-.231c-7.045-5.377-7.132-6.833-6.991-7.152.116-.261.988-1.023 7.339.147l.513.094c4.226.78 8.219 1.516 12.656 1.701a.68.68 0 0 0 .345-.036c36.969-15.297 88.109-28.605 111.673-29.061h-.001c.007 0 .059 0 .126-.004a.58.58 0 0 0 .54-.669.581.581 0 0 0-.135-.289l-20.651-23.759-32.492-61.336 38.061-22.201c1.724 1.344 10.566 8.373 22.048 19.906 11.772 11.824 28.805 30.934 43.103 54.831 2.392 3.997 7.368 12.315 11.072 21.926 4.377 11.357 5.844 21.478 4.36 30.08-2.042 11.837-8.802 21.266-20.093 28.023-8.493 5.083-17.393 7.46-24.198 8.962-.088.022-.168.038-.246.054l-.044.009c-20.145 4.393-41.177 3.103-59.734 1.964-13.957-.857-27.14-1.666-37.427.195a13.96 13.96 0 0 0-.568.1Z" fill="#21207F"/><path d="M146.245 292.879c.15 0 .293-.057.401-.161 6.096-5.836 12.067-11.374 18.098-14.992a.577.577 0 0 0-.158-1.058.58.58 0 0 0-.438.065c-6.134 3.68-12.158 9.266-18.303 15.149a.579.579 0 0 0 .4.997Zm17.846-3.299a.58.58 0 0 0 .379-.142 59.102 59.102 0 0 1 5.65-4.299.581.581 0 0 0-.198-1.05.58.58 0 0 0-.435.08 60.372 60.372 0 0 0-5.775 4.394.576.576 0 0 0 .049.913.574.574 0 0 0 .33.104Zm-9.106-27.679c.08 0 .161-.017.239-.052.088-.04 8.934-4.059 17.403-7.764a.561.561 0 0 0 .188-.128.594.594 0 0 0 .165-.414.583.583 0 0 0-.595-.569.567.567 0 0 0-.222.051c-8.477 3.708-17.33 7.73-17.418 7.77a.576.576 0 0 0 .24 1.106Zm143.222-31.736a.58.58 0 0 0 .25-1.101c-5.509-2.628-12.151-4.502-17.767-5.014a.58.58 0 0 0-.497.947.578.578 0 0 0 .392.206c5.487.5 11.982 2.334 17.373 4.906a.58.58 0 0 0 .249.056Z" fill="#21207F"/><path d="M260.622 202.916c-15.172-16.712-40.049-62.547-37.8-91.531 2.314-29.825 32.657-14.912 68.657 18.255 15.378 14.168 35.229 23.911 40.372 27.768-12.086-2.571-29.315 9.77-43.201 25.196-5.749 6.387-14.914 17.227-28.028 20.312Z" fill="#00676C"/><path d="M164.515 209.683a.485.485 0 0 0 .465-.358l25.829-96.461a.484.484 0 0 0-.933-.249l-25.828 96.46a.477.477 0 0 0 .083.419.478.478 0 0 0 .384.189Zm98.49-7.119a.482.482 0 0 0 .381-.778c-16.501-21.226-28.085-40.666-34.433-57.781-4.991-13.46-6.892-25.629-5.81-37.202a.494.494 0 0 0-.109-.353.494.494 0 0 0-.514-.153.496.496 0 0 0-.285.236.493.493 0 0 0-.054.181c-1.095 11.72.824 24.028 5.867 37.627 6.382 17.207 18.015 36.734 34.576 58.037a.478.478 0 0 0 .381.186Z" fill="#fff"/></g><g clip-path="url(#b)"><path d="M179.554 212.241c-15.803-7.49-25.277-21.418-31.431-30.052-12.118-17.001-22.452-23.718-30.852-21.444-11.981 3.245 14.538 50.903 62.283 51.496Z" fill="#21207F"/><path d="M39.475 160.978c22.928 25.358 29.582 55.27 59.928 75.178 33.502 21.979 67.432 3.357 80.151-23.914l-39.018-46.903c-1.932 2.083-7.408 8.819-9.454 11.324-.408.498-.814.998-1.217 1.499-2.292 2.837-4.005 5.048-4.005 5.048s-31.459-37.556-68.12-59.18c-39.897-23.532-27.59-7.553-27.59-7.553-43.943-16.146-17.558 1.75-17.558 1.75-25.175-6.64-2.962 7.242-2.962 7.242-19.418-2.492 3.818 9.005 4.32 9.252-16.48-3.2 7.742 6.59 25.525 26.257Z" fill="#fff"/><path d="M129.831 246.432c4.585 0 9.165-.64 13.694-1.926 15.606-4.435 29.271-16.405 36.554-32.02a.582.582 0 0 0-.08-.615l-39.018-46.902a.565.565 0 0 0-.429-.209.567.567 0 0 0-.441.185c-1.778 1.917-6.572 7.791-8.875 10.614l-.603.738a384.6 384.6 0 0 0-4.793 5.996c-1.867-2.178-9.245-10.64-19.889-20.979-11.38-11.055-28.93-26.583-47.917-37.782-23.933-14.116-28.477-13.74-29.812-12.229-.912 1.032-.248 2.756.473 4.027-7.815-2.833-13.795-4.712-17.79-5.589-4.002-.878-6.038-.777-6.605.328-.577 1.124.551 2.785 3.658 5.383.611.51 1.235 1.006 1.87 1.487-7.711-1.806-9.276-1.054-9.72-.029-.351.814-.178 2.192 4.328 5.654.999.767 2.024 1.492 2.876 2.072-3.775-.314-5.583.08-5.934 1.241-.27.893.15 2.362 5.853 5.822 1.139.692 2.3 1.346 3.319 1.901-1.82-.171-2.37.096-2.595.615-.476 1.099 1.125 2.319 6.749 6.382 6.384 4.611 16.031 11.579 24.341 20.769 8.907 9.85 15.414 20.5 21.708 30.798 10.138 16.591 19.713 32.261 38.333 44.476 9.9 6.495 20.334 9.792 30.745 9.792Zm49.042-34.104c-7.18 15.153-20.487 26.751-35.664 31.064a48.807 48.807 0 0 1-13.369 1.879c-10.193.001-20.413-3.231-30.119-9.599-18.402-12.073-27.912-27.635-37.98-44.111-6.321-10.345-12.858-21.041-21.836-30.971-8.393-9.282-18.1-16.293-24.523-20.932-2.801-2.023-5.69-4.11-6.252-4.935.417-.066 1.563-.044 4.708.567a.58.58 0 0 0 .368-1.088c-.343-.169-3.433-1.708-6.374-3.493-5.602-3.399-5.359-4.453-5.346-4.497.013-.042.391-1.026 7.07-.169a.58.58 0 0 0 .38-1.065c-.024-.016-2.487-1.558-4.8-3.337-4.312-3.314-3.98-4.234-3.964-4.271.061-.143.904-1.319 11.272 1.416a.576.576 0 0 0 .674-.32.578.578 0 0 0-.201-.719c-.022-.015-2.2-1.495-4.222-3.188-3.733-3.124-3.369-3.953-3.365-3.961.017-.033.469-.792 5.326.274 4.222.927 10.713 2.996 19.294 6.148a.581.581 0 0 0 .665-.201.578.578 0 0 0-.007-.695c-.957-1.245-2.101-3.394-1.518-4.054.582-.657 4.347-1.702 28.355 12.459 18.889 11.141 36.365 26.605 47.699 37.616 12.284 11.933 20.194 21.343 20.272 21.437a.586.586 0 0 0 .455.207.58.58 0 0 0 .447-.225 350.938 350.938 0 0 1 5.211-6.534l.604-.74c2.124-2.602 6.371-7.807 8.384-10.069l38.356 46.107Z" fill="#21207F"/><path d="M124.304 181.492c5.945 7.154 9.537 13.944 9.537 13.944l-9.537-13.944Z" fill="#fff"/><path d="M133.842 196.015a.58.58 0 0 0 .578-.563.573.573 0 0 0-.067-.287c-.036-.068-3.688-6.925-9.603-14.043a.577.577 0 0 0-.816-.076.582.582 0 0 0-.075.816c5.839 7.027 9.435 13.777 9.47 13.845a.579.579 0 0 0 .513.308ZM48.04 140.951a.58.58 0 0 0 .526-.334.577.577 0 0 0-.082-.617c-3.792-4.515-6.738-8.676-9.858-13.082-2.637-3.725-5.365-7.577-8.792-11.906a.58.58 0 0 0-.908.718c3.408 4.306 6.126 8.145 8.755 11.857 3.134 4.426 6.093 8.606 9.916 13.158a.578.578 0 0 0 .444.206Zm-20.063-14.344a.579.579 0 0 0 .242-1.105c-.12-.055-12.035-5.538-17.752-9.398a.574.574 0 0 0-.437-.095.581.581 0 0 0-.374.895.575.575 0 0 0 .163.16c5.796 3.913 17.797 9.435 17.917 9.49.079.036.16.053.241.053Zm-3.325 6.117a.577.577 0 0 0 .505-.862.583.583 0 0 0-.298-.258c-.103-.039-10.375-3.993-17.427-8.233a.58.58 0 0 0-.597.993c7.14 4.292 17.506 8.282 17.61 8.322a.587.587 0 0 0 .207.038Zm-1.01 6.231a.578.578 0 0 0 .185-1.128c-.075-.025-7.466-2.515-13.164-5.397a.59.59 0 0 0-.442-.034.594.594 0 0 0-.336.289.58.58 0 0 0 .255.778c5.775 2.921 13.244 5.437 13.318 5.462.06.02.122.03.184.03Z" fill="#21207F"/><path d="M190.877 247.594a.481.481 0 0 0 .37-.173c5.566-6.666 10.968-10.651 11.022-10.69a.499.499 0 0 0 .128-.139.502.502 0 0 0 .056-.365.503.503 0 0 0-.079-.171.495.495 0 0 0-.316-.191.476.476 0 0 0-.359.087c-.054.04-5.547 4.089-11.192 10.85a.489.489 0 0 0-.109.247.49.49 0 0 0 .22.47.483.483 0 0 0 .259.075Z" fill="#454E6C"/><path d="M241.97 32.43c-1.996 26.28 20.354 43.431 40.564 38.75 20.211-4.68 45.628 3.811 54.905 26.624 13.457 33.091-11.143 45.89 15.587 71.998 22.267 21.748 18.611 52.585-17.015 67.18 0 0-70.182 11.592-86.042-2.066-12.838-11.055-20.699-25.127-25.897-42.34-11.62-38.478 2.387-65.509 2.387-65.509l-8.584-63.517 24.095-31.12Z" fill="#21207F"/><path d="M177.306 79.222c3.298 2.114 6.95 2.557 13.236 1.007 1.445 3.547 2.537 21.938-1.777 34.988 5.186 8.385 35.582 13.04 46.364-4.867-11.518-18.387-14.586-37.661-13.559-42.265l12.802-17.724c.337-.405.662-.82.975-1.243 1.652-2.228.663-5.163 1.555-7.71 5.269-15.014-.799-31.892-20.03-37.456-.255-.07-1.963-.577-1.979-.582-4.009-1.074-6.666-1.143-10.808-.815-9.319.735-16.911 4.9-22.294 12.458-2.234 3.138-4.329 5.693-5.865 9.219a42.46 42.46 0 0 0-1.091 2.815c-.026.064-.046.127-.069.191a.106.106 0 0 1-.013.037v.002l-.002.006-.028.078a.048.048 0 0 1-.005.016l-.011.025a.956.956 0 0 1-.033.098l-.01.038c-.178.509-.738 2.057-1.458 4.228-.111.333-.22.666-.328 1-.091.277-.182.563-.276.855l-.032.108c-1.286 4.044-2.806 9.432-3.56 14.36-1.397 9.118.206 25.944 8.296 31.133Z" fill="#fff"/><path d="m209.74 123.222.248-.001c11.524-.069 20.868-4.652 25.638-12.573a.578.578 0 0 0-.006-.606c-11.548-18.436-14.355-37.37-13.508-41.718l12.718-17.608c.34-.409.668-.828.984-1.256 1.071-1.443 1.139-3.116 1.205-4.732.045-1.107.088-2.152.43-3.13 2.839-8.088 2.418-16.392-1.185-23.382-3.668-7.117-10.318-12.242-19.23-14.82a282.24 282.24 0 0 1-1.974-.58c-4.189-1.123-6.889-1.165-11.021-.838-9.614.758-17.258 5.031-22.719 12.7-.409.573-.813 1.128-1.21 1.672-1.766 2.424-3.435 4.714-4.715 7.65a43.14 43.14 0 0 0-1.102 2.843 2.642 2.642 0 0 0-.052.142l-.02.057-.008.025-.006.017a.943.943 0 0 0-.019.053.892.892 0 0 0-.036.102l-.012.037a.509.509 0 0 0-.03.091l-.115.326a184.908 184.908 0 0 0-1.668 4.894c-.071.215-.142.438-.215.665l-.061.191-.007.023-.01.034-.019.062c-1.205 3.791-2.802 9.371-3.577 14.44-.779 5.083-.551 11.69.595 17.244 1.016 4.92 3.221 11.423 7.96 14.463h.001c3.465 2.222 7.309 2.58 13.172 1.205 1.291 4.323 2.197 21.572-1.951 34.122a.578.578 0 0 0 .057.486c2.728 4.409 11.927 7.7 21.468 7.7Zm24.709-12.87c-2.441 3.915-5.991 6.92-10.554 8.935-4.046 1.786-8.857 2.746-13.914 2.776l-.247.001c-9.004 0-17.625-2.946-20.333-6.93 2.464-7.62 2.932-16.388 2.991-20.967.089-6.958-.593-12.388-1.314-14.157a.582.582 0 0 0-.675-.344c-5.888 1.453-9.472 1.192-12.784-.932-2.429-1.557-5.693-5.203-7.451-13.722-1.121-5.428-1.345-11.878-.585-16.835.765-4.998 2.346-10.52 3.539-14.273l.006-.02.01-.035.019-.061.058-.182.214-.66c.107-.332.216-.665.326-.997.596-1.796 1.075-3.144 1.332-3.869l.124-.35a.924.924 0 0 0 .016-.053l.026-.078.018-.05.015-.043.011-.029.002-.005a.571.571 0 0 0 .023-.069l.014-.04c.012-.033.023-.067.036-.1l.01-.026c.348-.994.7-1.903 1.076-2.776 1.228-2.819 2.86-5.058 4.588-7.429.4-.548.806-1.105 1.218-1.683 5.253-7.376 12.61-11.487 21.867-12.217 3.995-.316 6.602-.277 10.606.795.151.045 1.725.512 1.983.583 8.591 2.486 14.996 7.41 18.515 14.237 3.455 6.704 3.853 14.683 1.121 22.469-.399 1.14-.448 2.322-.494 3.464-.062 1.509-.12 2.933-.98 4.092a25.456 25.456 0 0 1-.979 1.25l-12.802 17.724a.576.576 0 0 0-.095.213c-.52 2.327-.078 8.252 2.081 16.24 1.72 6.367 5.084 16.046 11.362 26.153Zm-60.286-83.14-.001.002.001-.003Zm.001-.003-.001.001.001-.001Z" fill="#21207F"/><path d="M200.034 38.482c3.521 2.117 4.831 5.881 3.597 7.44-1.234 1.558-4.996.931-8.067-1.798-3.157-2.806-4.776-6.085-3.597-7.44 1.222-1.404 4.573-.303 8.067 1.798Zm-27.464-4.754c.524.218 1.064.393 1.616.525 3.803.917 7.152.417 7.561-1.195.421-1.674-2.161-3.979-5.605-5.525a9.038 9.038 0 0 0-1.306-.487c-.026.064-.046.128-.069.192a.175.175 0 0 1-.013.039l-.031.083a.033.033 0 0 1-.005.017c-.002.008-.008.017-.01.025a.95.95 0 0 1-.033.097l-.01.039c-.178.508-.738 2.056-1.459 4.228-.19.578-.393 1.2-.603 1.854l-.033.108Zm6.76 27.653c.33.406.761.719 1.219.953.459.228.95.385 1.456.467 1.004.166 2.05.086 3.032-.312a5.557 5.557 0 0 0 1.325-.8 5.207 5.207 0 0 0 1.034-1.148c.569-.858.867-1.911.751-2.93a.37.37 0 0 0-.735.012l-.001.008a4.413 4.413 0 0 1-.89 2.297 4.775 4.775 0 0 1-1.931 1.494c-.738.31-1.606.406-2.439.328-.835-.084-1.657-.357-2.292-.882l-.007-.005a.37.37 0 0 0-.605.265.374.374 0 0 0 .083.253Zm18.002-13.125c-1.56-.803-5.345-2.643-8.526-5.534a1.084 1.084 0 0 0-1.54.08c-1.039 1.157-2.386 3.324.034 5.016 2.974 2.079 8.572 2.498 10.116 1.379.332-.24.28-.754-.084-.941Zm-24.539-10.872c1.532.523 3.721.879 7.012 1.313.6.079.951.724.809 1.313-.364 1.512-1.313 3.637-4.15 2.819-2.839-.82-4.408-3.078-4.494-4.98-.019-.41.435-.597.823-.465Zm17.616-15.476s8.725 10.72 11.769 13.542c6.926 6.42 18.288 11.913 32.292 14.649.277-.333.573-.657.878-.982 1.652-2.228 4.498-7.243 5.425-9.778 2.763-7.559 1.516-30.533-20.559-37.45-23.146-7.251-36.03 8.44-38.736 12.24-2.235 3.138-4.015 6.577-5.552 10.103-.4.93-.272.666-.645 1.594-.012.03 3.583-.165 7.208-1.11 3.933-1.024 7.92-2.808 7.92-2.808Z" fill="#21207F"/><path d="M219.182 49.139s7.796-5.875 15.544-2.097c7.308 3.564 4.901 15.143-9.363 20.126-2.191.766-6.042 1.472-9.002 1.357" fill="#fff"/><path d="M217.033 69.117c2.963 0 6.449-.678 8.521-1.402 4.183-1.462 7.679-3.612 10.113-6.22 2.196-2.353 3.488-5.06 3.639-7.62.19-3.24-1.386-5.92-4.326-7.353-7.975-3.889-15.817 1.906-16.147 2.154a.577.577 0 0 0-.11.808.579.579 0 0 0 .807.117c.075-.056 7.613-5.612 14.942-2.038 2.499 1.218 3.84 3.494 3.678 6.243-.23 3.9-3.766 9.597-12.977 12.815-2.082.728-5.869 1.44-8.789 1.326a.579.579 0 0 0-.55.335.58.58 0 0 0 .505.822c.227.008.459.013.694.013ZM190.35 79.65c.492 1.452 1.05 5.266 1.237 10.16l.004-.002c10.303-4.238 11.668-12.218 10.039-13.895-1.411-1.453-3.521.237-5.301 1.094-3.511 1.69-2.912 1.38-5.979 2.642Z" fill="#21207F"/><path d="M232.617 53.258s-7.129-1.669-12.403 5.862l12.403-5.861Z" fill="#fff"/><path d="M220.213 59.7a.58.58 0 0 0 .475-.247c4.973-7.1 11.522-5.694 11.798-5.63a.58.58 0 0 0 .263-1.128c-.078-.018-1.938-.44-4.477.105-2.329.5-5.7 1.945-8.532 5.989a.577.577 0 0 0 .473.91ZM179.054 53.423a.58.58 0 0 0 .213-1.117c-1.31-.52-2.851-2.306-2.842-3.297.002-.2.057-.406.445-.551 3.242-1.218 4.36-3.857 4.406-3.97a.577.577 0 0 0-.314-.756.578.578 0 0 0-.756.314c-.016.037-.999 2.297-3.744 3.327-.764.287-1.188.864-1.195 1.625-.014 1.593 1.953 3.742 3.574 4.384a.57.57 0 0 0 .213.041Z" fill="#21207F"/><path d="M244.303 205.91c0 11.732 30.757 30.246 42.49 30.246s0-18.514 0-30.246c0-11.731-9.512-21.242-21.245-21.242s-21.245 9.511-21.245 21.242Z" fill="#D2C7F6"/><path d="M117.405 160.7c.057-.023.186-.07.395-.118.382-.094 1.027-.189 1.946-.131 4.554.027 15.032 2.57 28.375 21.738a173.113 173.113 0 0 0 3.365 4.671 650.384 650.384 0 0 1 8.803 10.73 691.98 691.98 0 0 1 6.158 7.748l-11.543 46.543s2.723 6.1 10.074 7.85c8.83 2.1 23.298 4.833 43.059.52 43.398-9.471 92.359-1.338 92.359-1.338l-41.432-57.655-35.756-89.873c-6.429 4.37-19.156 16.198-33.3 2.313 1.006-3.395 1.515-7.263 1.515-7.263s-10.542-7.895-22.865 14.417c-15.353 27.801-30.439 29.631-51.153 39.848Z" fill="#D2C7F6"/><path d="M266.458 201.451a.582.582 0 0 0 .142-.018c19.161-4.827 34.813-10.245 46.523-16.104 9.996-5.001 16.915-10.281 20.007-15.268 2.397-3.865 2.664-8.402.666-11.289-1.88-2.717-5.492-3.706-10.169-2.783a.585.585 0 0 0-.455.454.567.567 0 0 0 .086.435.577.577 0 0 0 .594.247c4.196-.828 7.39-.009 8.992 2.306 1.74 2.514 1.459 6.54-.698 10.019-6.668 10.753-30.661 22.001-65.829 30.86a.582.582 0 0 0-.434.633.579.579 0 0 0 .575.508Z" fill="#D2C7F6"/><path d="M146.633 292.879a.575.575 0 0 0 .4-.161c6.096-5.836 12.067-11.374 18.098-14.992a.577.577 0 0 0 .199-.794.577.577 0 0 0-.795-.199c-6.134 3.68-12.158 9.266-18.303 15.149a.579.579 0 0 0 .401.997Zm17.845-3.299a.58.58 0 0 0 .379-.142 59.102 59.102 0 0 1 5.65-4.299.577.577 0 0 0 .167-.8.582.582 0 0 0-.8-.17 60.372 60.372 0 0 0-5.775 4.394.579.579 0 0 0 .379 1.017Zm-9.106-27.679c.08 0 .162-.017.239-.052.089-.04 8.934-4.059 17.403-7.764a.562.562 0 0 0 .312-.319.588.588 0 0 0-.008-.445.578.578 0 0 0-.768-.296c-8.477 3.708-17.33 7.73-17.418 7.77a.577.577 0 0 0-.124.978.58.58 0 0 0 .364.128Zm143.223-31.736a.577.577 0 0 0 .521-.831.57.57 0 0 0-.272-.27c-5.509-2.628-12.151-4.502-17.766-5.014a.584.584 0 0 0-.63.524.58.58 0 0 0 .524.629c5.487.5 11.982 2.334 17.374 4.906a.577.577 0 0 0 .249.056Z" fill="#21207F"/><path d="M137.707 272.731c3.963-3.794 10.033-7.762 19.677-12.312l-.003-.003c-10.178-7.768-9.374-9.91.804-8.035 4.364.804 8.522 1.597 13.106 1.786h.004a.514.514 0 0 0 .078.007c35.573-14.719 87.26-28.628 111.883-29.104 0 0 .044 0 .105-.004l-20.696-23.808-32.782-61.886 38.878-22.678s37.855 28.761 65.602 75.136c5.466 9.137 19.007 32.105 15.505 52.402-4.848 28.103-34.548 35.203-44.736 37.452-.098.024-.2.044-.298.064-35.573 7.759-73.505-2.121-97.175 2.162-.199.031-.395.068-.591.105h-.007a111.311 111.311 0 0 0-8.182 1.922c-27.966 7.582-55.031 24.359-34.533 3.134 0 0-29.142 18.614-17.414 2.949-.317.148-19.018 8.971-4.817-6.698 7.766-8.569 12.587-12.051 15.265-14.463-10.177 4.824-35.624 17.141-19.673 1.872Z" fill="#fff"/><path d="M158.518 299.993c2.408.001 7.164-1.765 15.209-4.837 7.241-2.765 16.252-6.206 25.304-8.66a111.336 111.336 0 0 1 8.145-1.912c.189-.036.378-.072.57-.101 10.165-1.839 23.28-1.034 37.166-.182 18.632 1.144 39.749 2.44 60.046-1.986l.036-.008c.091-.019.184-.038.273-.06 6.88-1.518 15.896-3.928 24.533-9.096 11.593-6.939 18.537-16.635 20.639-28.82 3.583-20.771-10.339-44.038-15.579-52.798-14.363-24.006-31.471-43.197-43.293-55.07-12.812-12.866-22.361-20.158-22.456-20.23a.582.582 0 0 0-.642-.039l-38.878 22.678a.577.577 0 0 0-.22.771l32.782 61.886a.62.62 0 0 0 .075.109l19.892 22.884c-11.79.406-29.764 3.655-50.846 9.199-20.845 5.482-42.705 12.72-59.997 19.867-4.348-.183-8.296-.911-12.474-1.682l-.513-.095c-5.428-.999-8.003-.843-8.608.524-.804 1.815 2.592 4.863 6.6 7.967-8.652 4.143-14.866 8.076-18.975 12.01-5.53 5.295-5.672 6.885-5.08 7.744 1.234 1.79 6.749.07 21.469-6.817-2.809 2.388-6.741 5.881-12.01 11.694-5.94 6.555-5.87 8.521-5.145 9.502 1.237 1.672 5.636.243 8.705-1.035-1.68 2.542-2.072 4.096-1.285 4.944.798.859 2.829 1.249 11.524-3.412a143.775 143.775 0 0 0 5.518-3.133c-4.303 4.795-4.845 6.537-4.201 7.511.306.462.864.683 1.716.683Zm48.47-16.552a112.44 112.44 0 0 0-8.261 1.938c-9.107 2.469-18.148 5.921-25.413 8.695-4.424 1.69-8.246 3.149-11.052 3.995-3.883 1.169-4.424.707-4.493.603-.013-.019-.285-.478 1.119-2.47 1.13-1.604 3.052-3.805 5.875-6.728a.578.578 0 0 0-.729-.89c-.044.028-4.466 2.846-9.1 5.33-8.765 4.697-10.011 3.764-10.124 3.642-.074-.079-.626-.898 2.586-5.189a.58.58 0 0 0-.709-.871c-3.975 1.864-8.504 3.213-9.214 2.251-.166-.225-.701-1.667 5.071-8.036 6.044-6.668 10.313-10.257 13.139-12.633a84.06 84.06 0 0 0 2.085-1.788.578.578 0 0 0-.635-.953l-.966.458c-3.979 1.888-9.427 4.474-14.182 6.377-7.877 3.151-8.733 2.331-8.805 2.227-.026-.038-.573-.984 4.928-6.25 4.152-3.974 10.538-7.967 19.523-12.206a.582.582 0 0 0 .284-.756.582.582 0 0 0-.183-.231c-7.045-5.377-7.133-6.833-6.991-7.152.115-.261.988-1.023 7.338.147l.514.094c4.226.78 8.218 1.516 12.656 1.701a.677.677 0 0 0 .344-.036c36.969-15.297 88.109-28.605 111.673-29.061.007 0 .059 0 .126-.004a.575.575 0 0 0 .501-.353.58.58 0 0 0-.096-.605l-20.652-23.759-32.491-61.336 38.061-22.201c1.724 1.344 10.566 8.373 22.048 19.906 11.771 11.824 28.805 30.934 43.103 54.831 2.392 3.997 7.368 12.315 11.072 21.926 4.377 11.357 5.843 21.478 4.359 30.08-2.042 11.837-8.802 21.266-20.092 28.023-8.493 5.083-17.393 7.46-24.198 8.962-.089.022-.168.038-.246.054l-.044.009c-20.145 4.393-41.177 3.103-59.734 1.964-13.957-.857-27.14-1.666-37.427.195a13.96 13.96 0 0 0-.568.1Z" fill="#21207F"/><path d="M261.009 202.916c-15.172-16.712-40.049-62.547-37.8-91.531 2.314-29.825 32.657-14.912 68.657 18.255 15.378 14.168 35.229 23.911 40.372 27.768-12.086-2.571-29.315 9.77-43.2 25.196-5.749 6.387-14.915 17.227-28.029 20.312Z" fill="#D2C7F6"/><path d="M164.902 209.683a.488.488 0 0 0 .466-.358l25.828-96.461a.484.484 0 0 0-.706-.537.486.486 0 0 0-.226.288l-25.828 96.46a.478.478 0 0 0 .253.558c.066.033.139.05.213.05Zm98.491-7.119a.478.478 0 0 0 .433-.271.47.47 0 0 0 .046-.261.472.472 0 0 0-.099-.246c-16.5-21.226-28.085-40.666-34.432-57.781-4.992-13.46-6.893-25.629-5.811-37.202a.474.474 0 0 0-.109-.353.478.478 0 0 0-.326-.172.491.491 0 0 0-.526.436c-1.095 11.72.824 24.028 5.867 37.627 6.382 17.207 18.015 36.734 34.576 58.037a.478.478 0 0 0 .381.186Z" fill="#fff"/></g><defs><clipPath id="a"><path fill="#fff" transform="matrix(-1 0 0 1 260.155 131.915)" d="M0 0h77.95v96.712H0z"/></clipPath><clipPath id="b"><path fill="#fff" transform="matrix(-1 0 0 1 366.925 0)" d="M0 0h366.925v300H0z"/></clipPath></defs></svg>