<svg width="379" height="280" viewBox="0 0 379 280" fill="none" xmlns="http://www.w3.org/2000/svg">
<path d="M314.686 231.777C320.514 229.43 321.841 182.013 304.182 159.614C297.375 150.98 288.9 141.678 278.913 131.61C243.224 96.6555 218.536 90.3183 205.386 95.3336C204.692 95.5979 203.993 95.6374 203.364 95.9639C192.099 101.813 207.646 156.326 220.892 182.895C237.829 217.545 272.419 244.051 314.686 231.777Z" fill="white"/>
<path d="M293.872 235.35C290.725 235.35 287.602 235.138 284.509 234.713C275.318 233.448 266.407 230.311 258.023 225.388C242.694 216.387 229.339 201.378 220.417 183.127C213.567 169.386 206.503 149.23 202.422 131.78C199.625 119.817 195.996 99.195 203.121 95.4959C203.538 95.2791 203.964 95.176 204.376 95.0763C204.663 95.0069 204.933 94.9416 205.198 94.8406C210.401 92.8563 219.605 91.7935 233.907 97.9992C247.539 103.913 262.805 115.095 279.282 131.233C289.764 141.799 298.042 150.974 304.596 159.287C309.213 165.144 315.283 176.227 317.975 195.767C319.625 207.747 319.474 220.528 317.6 227.569C316.886 230.247 315.973 231.827 314.883 232.266C314.867 232.272 314.85 232.278 314.833 232.283C307.8 234.325 300.782 235.35 293.872 235.35ZM214.287 94.3495C210.602 94.3495 207.729 95.0046 205.574 95.8267C205.247 95.9514 204.93 96.0279 204.625 96.1019C204.257 96.1909 203.91 96.2748 203.607 96.4323C198.865 98.8941 198.808 111.69 203.45 131.54C207.451 148.649 214.649 169.193 221.363 182.66C230.197 200.731 243.405 215.58 258.557 224.478C266.821 229.33 275.6 232.422 284.653 233.667C294.383 235.006 304.428 234.202 314.51 231.278C314.871 231.12 315.749 230.417 316.58 227.297C318.113 221.54 318.815 209.602 316.929 195.911C314.854 180.849 310.18 168.074 303.767 159.941C297.238 151.659 288.986 142.514 278.538 131.981C262.159 115.939 247 104.83 233.487 98.967C225.512 95.5067 219.184 94.3495 214.287 94.3495Z" fill="#241B84"/>
<path d="M297.068 150.633C296.5 149.982 280.365 121.894 260.575 107.698C231.182 86.6132 215.538 89.7954 205.538 94.2477C205.535 94.2477 195.628 94.2113 195.628 94.2113C195.628 94.2113 189.807 95.3317 186.189 94.3302C174.118 90.9948 163.613 95.164 159.619 97.0116C159.304 96.842 157.519 92.4764 157.519 92.4764L131.194 91.765L131.181 91.7787C121.782 86.4332 107.69 84.9034 93.1945 90.3701C64.6481 101.136 29.1981 129.026 9.07581 160.963C4.81734 167.721 1.94462 176.172 0.942587 183.611C0.485098 187.017 0.402626 190.355 0.710112 193.601C0.709904 193.601 0.708856 193.602 0.708856 193.602C0.709895 193.607 0.710937 193.615 0.711976 193.621L88.8973 175.814C88.6755 175.767 88.4623 175.723 88.2581 175.684C88.2581 175.684 89.1784 175.602 90.783 175.389C90.5588 217.159 92.9248 266.9 92.0347 270.173C176.125 290.974 253.648 270.03 253.648 270.03C253.588 261.574 252.55 240.975 250.775 220.217C251.692 221.018 252.613 221.745 253.536 222.378C269.798 233.538 289.732 238.586 311.867 233.01C312.822 232.791 307.447 134.387 297.068 150.633Z" fill="white"/>
<path d="M170.982 279.908C164.853 279.908 158.766 279.757 152.736 279.453C131.587 278.388 111.122 275.438 91.9083 270.685C91.7704 270.651 91.6521 270.562 91.5803 270.44C91.5084 270.318 91.4888 270.171 91.526 270.035C91.9206 268.583 91.6123 256.338 91.2221 240.835C90.7679 222.793 90.1473 198.143 90.2527 175.99C89.9047 176.034 89.5999 176.071 89.341 176.1C89.2658 176.217 89.1457 176.303 89.0019 176.332L0.816573 194.138C0.677373 194.166 0.532981 194.137 0.415596 194.057C0.298211 193.977 0.218011 193.854 0.192872 193.714C0.189132 193.693 0.186637 193.672 0.18539 193.651H0.184984C-0.123125 190.397 -0.0439721 186.995 0.419958 183.541C1.47497 175.711 4.54401 167.166 8.62984 160.682C18.2523 145.41 31.7422 130.416 47.6411 117.321C62.5654 105.028 78.6773 95.2818 93.0086 89.8769C99.9119 87.2735 107.215 86.1028 114.129 86.4935C120.477 86.8516 126.411 88.4926 131.301 91.2404L157.533 91.9493C157.742 91.9549 157.928 92.0836 158.007 92.2771C158.662 93.879 159.434 95.6457 159.805 96.3472C165.063 93.9825 175.148 90.7325 186.33 93.8221C189.785 94.7785 195.471 93.7044 195.528 93.6934C195.561 93.687 195.597 93.6828 195.63 93.6839C195.63 93.6839 204.332 93.7159 205.427 93.7198C215.98 89.0502 231.824 86.4249 260.883 107.27C268.971 113.071 281.767 125.06 296.797 149.228C296.9 149.393 296.998 149.55 297.087 149.692C298.008 148.519 298.969 148.08 299.949 148.387C302.74 149.262 304.559 156.456 305.684 161.792C307.087 168.443 308.393 177.452 309.566 188.571C311.628 208.124 312.645 228.315 312.488 232.352C312.465 232.948 312.447 233.419 311.986 233.525C291.345 238.724 271.027 235.022 253.238 222.814C252.643 222.405 252.03 221.946 251.408 221.441C253.068 241.178 254.116 261.51 254.176 270.027C254.177 270.267 254.017 270.477 253.786 270.54C253.591 270.592 234.018 275.818 204.422 278.428C193.237 279.414 182.046 279.908 170.982 279.908ZM92.6332 269.777C111.64 274.444 131.869 277.344 152.773 278.398C169.637 279.248 186.975 278.905 204.303 277.379C231.512 274.981 250.213 270.37 253.117 269.624C253.026 260.707 251.943 240.055 250.25 220.263C250.231 220.049 250.345 219.845 250.537 219.747C250.729 219.65 250.961 219.679 251.122 219.821C252.05 220.631 252.963 221.345 253.835 221.943C271.277 233.913 291.183 237.588 311.425 232.578C311.628 229.997 310.737 210.709 308.787 191.308C306.251 166.075 302.955 150.813 299.744 149.435C299.075 149.148 298.324 149.647 297.512 150.917C297.423 151.057 297.273 151.147 297.107 151.159C296.941 151.172 296.779 151.105 296.67 150.98C296.584 150.881 296.44 150.651 295.901 149.785C280.962 125.764 268.278 113.873 260.268 108.127C231.549 87.5258 216.048 90.1456 205.752 94.7296C205.685 94.7596 205.612 94.7752 205.538 94.7752C205.536 94.7752 205.534 94.7752 195.676 94.739C195.051 94.8556 189.602 95.8226 186.049 94.8385C174.895 91.7567 164.841 95.1771 159.84 97.4904C159.689 97.5602 159.515 97.5548 159.368 97.4759C159.193 97.3811 158.902 97.2242 157.161 92.9943L131.261 92.2945C131.145 92.3137 131.025 92.2966 130.921 92.2372C126.145 89.5211 120.318 87.899 114.07 87.5465C107.302 87.1652 100.148 88.312 93.3809 90.8639C79.1549 96.2289 63.1492 105.914 48.3118 118.135C32.4987 131.159 19.0856 146.066 9.52238 161.245C5.51321 167.607 2.50131 175.994 1.46562 183.682C1.03909 186.856 0.945388 189.984 1.18598 192.987L87.7616 175.506C87.8296 175.316 88.0024 175.177 88.2114 175.158C88.2206 175.158 89.1416 175.075 90.7135 174.866C90.8649 174.846 91.0172 174.892 91.1317 174.993C91.2462 175.094 91.3114 175.239 91.3106 175.392C91.1909 197.684 91.8184 222.609 92.2765 240.808C92.7009 257.652 92.9222 267.157 92.6332 269.777ZM311.739 232.499C311.732 232.5 311.726 232.502 311.72 232.504C311.726 232.502 311.733 232.501 311.739 232.499Z" fill="#241B84"/>
<path d="M140.397 34.4049C143.205 37.1002 148.26 42.751 149.675 48.8707C149.791 49.364 149.88 49.861 149.945 50.3602C156.07 50.6062 170.874 59.3557 170.874 59.3557C170.874 59.3557 171 59.0891 171.234 58.6003C171.924 57.1631 173.552 53.8117 175.68 49.7078C176.4 48.3185 177.179 46.8419 177.997 45.3233C178.602 44.2023 179.229 43.0567 179.872 41.9058C182.28 37.5988 184.899 33.2326 187.365 29.7747C189.118 27.3162 190.791 25.3162 192.257 24.1221L192.258 24.1217C192.273 24.1088 192.287 24.0963 192.302 24.0845C192.315 24.0734 192.343 24.0514 192.343 24.0514C192.343 24.0514 197.369 17.7618 196.756 11.1271C196.333 6.54516 190.406 -1.4572 181.825 0.353594C178.829 0.98601 177.473 2.99153 175.463 5.34413C167.2 -4.76101 152.704 3.47909 154.191 13.1285C140.302 9.3452 132.12 26.4967 140.397 34.4049Z" fill="#241B84"/>
<path d="M210.992 64.1018C206.077 74.2959 192.684 75.616 191.307 75.7279C191.294 75.7299 191.288 75.7299 191.288 75.7299C191.96 79.1873 192.732 82.7646 193.617 86.4475C194.072 88.3408 196.059 93.986 196.172 94.213C196.33 95.7397 196.129 99.398 193.054 102.438C190.841 104.627 187.401 105.758 184.291 105.642C161.048 104.773 158.156 93.6552 157.946 92.9754C157.935 92.9465 157.927 92.9195 157.919 92.8906C157.949 92.4664 158.841 78.457 159.068 71.9911C159.081 71.594 159.095 71.1945 159.108 70.7995V70.7974C159.11 70.7292 159.112 70.6629 159.114 70.5945C135.608 73.4127 134.28 47.7605 149.711 49.0309C152.884 49.2896 156.766 50.6925 161.313 53.7132C169.51 58.3542 164.794 44.9051 172.881 34.376C173.812 33.1615 174.914 31.9862 176.228 30.8814C179.332 28.2682 183.614 26.0524 189.591 24.6599C190.448 24.4592 191.339 24.2771 192.268 24.1138C192.301 24.1077 192.336 24.1013 192.372 24.0953C192.524 24.5379 192.68 24.9787 192.839 25.4195C192.965 25.7774 193.096 26.1332 193.228 26.4892C193.277 26.6299 193.331 26.7706 193.383 26.9092C193.523 27.29 193.668 27.6707 193.815 28.0514C193.943 28.3867 194.072 28.7198 194.204 29.0507C194.243 29.1542 194.282 29.2556 194.324 29.3591C195.594 32.5598 196.998 35.7051 198.533 38.7857C203.154 48.0487 211.878 49.2221 212.654 56.4636C213.023 59.8892 211.722 62.5895 210.992 64.1018Z" fill="white"/>
<path d="M184.74 106.178C184.584 106.178 184.427 106.175 184.271 106.169C174.606 105.808 167.233 103.67 162.357 99.8141C159.031 97.1845 157.857 94.5251 157.454 93.1736L157.444 93.1395C157.432 93.1057 157.422 93.0732 157.412 93.039C157.394 92.9783 157.388 92.9151 157.392 92.8523C157.432 92.3111 158.318 78.3132 158.541 71.9729L158.567 71.1856C150.656 71.9795 144.277 69.571 141.005 64.531C138.585 60.8024 138.335 56.1938 140.368 52.7905C142.199 49.7267 145.62 48.1651 149.754 48.5053C153.285 48.7931 157.266 50.394 161.589 53.2635C163.012 54.0667 164.031 54.3074 164.704 53.9992C165.861 53.4692 166.316 51.1813 166.893 48.2846C167.684 44.3097 168.767 38.8661 172.463 34.0547C173.458 32.756 174.61 31.5525 175.888 30.4778C179.34 27.5718 183.911 25.4416 189.472 24.1462C190.336 23.9438 191.246 23.758 192.177 23.5944L192.28 23.5759C192.535 23.531 192.785 23.678 192.87 23.9232C193.022 24.3636 193.177 24.8021 193.335 25.2406C193.461 25.5995 193.591 25.9526 193.722 26.3059C193.761 26.4163 193.799 26.5181 193.837 26.6191L193.877 26.7255C194.017 27.1052 194.161 27.4837 194.307 27.8621C194.435 28.1959 194.562 28.5267 194.694 28.8553C194.735 28.9644 194.773 29.0629 194.813 29.1635C196.073 32.3379 197.483 35.4956 199.005 38.5508C201.155 42.8618 204.24 45.3995 206.961 47.6383C210.067 50.1937 212.749 52.4008 213.178 56.4077C213.564 59.9873 212.2 62.8133 211.467 64.3315C206.84 73.9279 194.943 75.8584 191.917 76.1984C192.582 79.5749 193.325 82.9787 194.13 86.3249C194.587 88.224 196.523 93.7036 196.649 93.9893C196.677 94.0461 196.69 94.0964 196.696 94.1596C196.781 94.9805 197.023 99.2565 193.425 102.814C191.304 104.911 188.012 106.178 184.74 106.178ZM158.451 92.8268L158.465 92.8721C159.034 94.7764 162.951 104.316 184.31 105.115C187.451 105.23 190.661 104.063 192.683 102.063C195.847 98.9354 195.733 95.2215 195.654 94.3377C195.322 93.485 193.537 88.372 193.105 86.571C192.251 83.0219 191.466 79.4083 190.771 75.8305C190.74 75.6759 190.781 75.5159 190.881 75.3943C190.971 75.2854 191.1 75.2174 191.24 75.2046C191.248 75.2035 191.256 75.2027 191.264 75.2021C192.733 75.0828 205.754 73.751 210.517 63.8728V63.8726C211.252 62.3494 212.483 59.8 212.13 56.5199C211.747 52.9414 209.339 50.9606 206.291 48.4527C203.488 46.1469 200.312 43.5333 198.061 39.0211C196.526 35.9393 195.103 32.7541 193.834 29.5536C193.792 29.4487 193.751 29.3443 193.711 29.2379C193.581 28.9133 193.452 28.5777 193.322 28.2402C193.175 27.8584 193.03 27.4751 192.888 27.0921L192.85 26.9892C192.809 26.8816 192.769 26.7731 192.73 26.6644C192.6 26.314 192.469 25.9555 192.341 25.5947C192.233 25.2961 192.127 24.9956 192.021 24.6938C191.225 24.8393 190.451 24.9999 189.712 25.1733C184.313 26.4308 179.891 28.4868 176.567 31.2848C175.348 32.3104 174.249 33.4583 173.3 34.6967C169.753 39.3134 168.698 44.6175 167.927 48.4903C167.267 51.8072 166.79 54.2037 165.143 54.9581C164.124 55.4249 162.824 55.1753 161.052 54.1721C161.041 54.1659 161.031 54.1594 161.02 54.1524C156.842 51.3764 153.023 49.83 149.668 49.5565C145.894 49.2458 142.914 50.5863 141.274 53.3312C139.445 56.3919 139.687 60.5624 141.89 63.9564C145.017 68.7746 151.272 71.0035 159.051 70.0706C159.203 70.0523 159.356 70.1014 159.469 70.2049C159.583 70.3082 159.645 70.4559 159.641 70.6093L159.596 72.0078C159.38 78.1455 158.544 91.4356 158.451 92.8268Z" fill="#241B84"/>
<path d="M172.351 40.6457L172.188 40.1205C172.147 39.952 172.112 39.7984 172.076 39.6446C172.019 39.3321 171.972 38.9997 171.964 38.687C171.925 38.0367 171.97 37.3908 172.084 36.754C172.323 35.4112 172.884 34.1406 173.696 33.0665C174.129 32.4873 174.637 31.9817 175.199 31.5404C175.777 31.0942 176.42 30.7416 177.099 30.493C177.762 30.2496 178.467 30.1249 179.177 30.1145C179.867 30.0944 180.573 30.2182 181.211 30.4816C182.028 30.833 182.417 31.7786 182.071 32.6107C182.007 32.7652 181.909 32.9148 181.801 33.0349L181.599 33.27C181.205 33.7199 180.85 34.0406 180.544 34.3606C180.234 34.6659 179.973 34.971 179.726 35.221C179.229 35.7562 178.805 36.2163 178.342 36.756C177.874 37.281 177.402 37.8906 176.89 38.5797L176.069 39.6737C175.936 39.8682 175.789 40.0684 175.621 40.2581C175.287 40.7376 174.833 41.1083 174.303 41.3559C174.031 41.482 173.719 41.5392 173.416 41.5265C173.003 41.4849 172.644 41.259 172.438 40.898C172.422 40.8041 172.377 40.7199 172.351 40.6457Z" fill="#241B84"/>
<path d="M176.419 44.1015C177.754 43.2968 181.008 41.4544 183.675 38.7177C184.045 38.3424 184.655 38.3328 185.046 38.6976L185.051 38.7123C186.031 39.6883 187.356 41.5259 185.292 43.1604C182.774 45.1659 177.828 45.8439 176.391 44.9411C176.156 44.7887 176.099 44.4764 176.256 44.2567C176.301 44.1917 176.35 44.1416 176.419 44.1015Z" fill="#241B84"/>
<path d="M195.151 34.4641C193.745 35.1601 192.635 35.407 189.853 36.0091C189.328 36.1224 188.984 36.6216 189.097 37.1472C189.375 38.496 190.466 39.6001 192.622 39.112C195.042 38.5673 195.895 36.3506 195.869 34.9155C195.857 34.6375 195.632 34.4157 195.369 34.4228C195.284 34.4184 195.225 34.4388 195.151 34.4641Z" fill="#241B84"/>
<path d="M187.365 29.7752C187.442 29.8088 187.521 29.8361 187.603 29.857C187.747 29.8905 187.901 29.9053 188.064 29.8984L188.338 29.8718C188.874 29.8377 189.291 29.7456 189.693 29.7078C190.085 29.6399 190.442 29.6176 190.764 29.5898C191.424 29.5299 191.984 29.4715 192.615 29.4214C193.138 29.3813 193.705 29.3695 194.325 29.3585C193.634 27.6208 192.983 25.8657 192.372 24.0948C192.334 24.104 192.296 24.1127 192.258 24.1221C192.273 24.1092 192.287 24.0967 192.303 24.0849C192.316 24.0739 192.33 24.0626 192.343 24.0518C191.734 24.0645 191.125 24.1539 190.536 24.3072C189.983 24.4677 189.465 24.6915 188.971 24.9831L188.97 24.9835C188.898 25.0263 188.826 25.0702 188.755 25.1151C188.21 25.4667 187.747 25.9081 187.354 26.4073C186.959 26.9067 186.686 27.4658 186.531 28.0826C186.355 28.7822 186.727 29.4919 187.365 29.7752Z" fill="#241B84"/>
<path d="M158.849 70.1159C160.128 70.0101 161.628 69.7109 163.211 69.0419C163.495 68.9197 163.833 69.0602 163.954 69.3443C164.075 69.6284 163.935 69.9667 163.651 70.0881C162.031 70.7797 160.318 71.1798 158.578 71.2833L158.849 70.1159Z" fill="#241B84"/>
<path d="M193.136 84.7324C192.954 83.9848 192.777 83.2269 192.604 82.4579C192.085 80.1406 191.65 77.8942 191.287 75.7304L191.349 75.2149C191.349 75.2149 183.186 74.955 177.857 73.383C176.65 74.8068 179.904 85.2617 193.136 84.7324Z" fill="#241B84"/>
<path d="M197.51 52.0625C196.969 52.7618 196.258 53.3036 195.416 53.6079C194.598 53.9368 193.716 54.0728 192.846 54.0048C191.981 53.9021 191.159 53.5856 190.441 53.0843C189.717 52.5683 189.145 51.8675 188.802 51.0555L188.797 51.0408C188.69 50.7783 188.387 50.6665 188.124 50.7727C187.906 50.8637 187.784 51.0882 187.815 51.3263C188.022 52.4671 188.626 53.5056 189.526 54.2438C189.97 54.6229 190.454 54.9224 190.997 55.1514C192.611 55.8445 194.458 55.7609 196.007 54.9498C196.516 54.6927 196.986 54.3662 197.4 53.9757C197.829 53.5802 198.158 53.086 198.388 52.543C198.495 52.2738 198.364 51.987 198.095 51.8796C197.881 51.7867 197.628 51.8731 197.49 52.0531L197.51 52.0625Z" fill="#241B84"/>
<path d="M159.349 62.0504C159.666 62.0084 159.888 61.7335 159.846 61.4159C159.83 61.3217 159.794 61.2176 159.734 61.1387C153.83 53.0829 146.171 56.3142 146.097 56.3395C145.809 56.4709 145.673 56.7997 145.804 57.0867C145.935 57.3739 146.259 57.4952 146.551 57.3791C146.828 57.2677 153.468 54.5009 158.82 61.816C158.946 61.9887 159.14 62.0718 159.349 62.0504Z" fill="#241B84"/>
<path d="M194.538 46.3734C194.667 46.3626 194.776 46.2922 194.86 46.1972C195.962 44.7089 196.366 43.658 196.161 42.7653C195.909 41.64 194.723 41.0329 193.367 40.318C190.316 38.7219 190.218 36.9795 190.213 36.9645C190.212 36.7161 189.997 36.5241 189.748 36.526C189.5 36.5279 189.303 36.728 189.305 36.9763C189.305 37.0757 189.356 39.2656 192.946 41.1258C194.297 41.826 195.125 42.3063 195.283 42.9657C195.417 43.5507 195.051 44.4228 194.141 45.6464C193.993 45.8462 194.04 46.1288 194.24 46.2766C194.305 46.3703 194.429 46.3942 194.538 46.3734Z" fill="#241B84"/>
<mask id="mask0_2431_2373" style="mask-type:luminance" maskUnits="userSpaceOnUse" x="150" y="0" width="27" height="21">
<path d="M176.168 20.2467C176.168 20.2467 177.473 2.99153 175.463 5.34413C167.2 -4.76101 152.704 3.47909 154.191 13.1285C140.302 9.3452 176.168 20.2467 176.168 20.2467Z" fill="white"/>
</mask>
<g mask="url(#mask0_2431_2373)">
<path d="M172.812 13.7501C172.54 13.7501 172.309 13.5416 172.287 13.2659C171.664 5.71282 177.649 1.50371 177.904 1.3283C178.144 1.16329 178.473 1.22377 178.638 1.46381C178.803 1.70385 178.742 2.03221 178.502 2.19744C178.445 2.23672 172.767 6.24776 173.338 13.1792C173.362 13.4695 173.146 13.7243 172.856 13.7482C172.841 13.7495 172.826 13.7501 172.812 13.7501Z" fill="white"/>
</g>
<mask id="mask1_2431_2373" style="mask-type:luminance" maskUnits="userSpaceOnUse" x="8" y="86" width="150" height="116">
<path d="M157.948 92.4773L131.194 91.7651C131.194 91.7651 116.447 81.3939 93.1944 90.3702C64.7328 101.358 29.1983 129.026 9.07592 160.963C4.81755 167.721 144.466 201.883 144.466 201.883L157.948 92.4773Z" fill="white"/>
</mask>
<g mask="url(#mask1_2431_2373)">
<path d="M79.4752 174.997C79.2179 174.997 78.9926 174.808 78.9539 174.546C78.9115 174.258 79.1107 173.99 79.399 173.948C79.4804 173.936 87.6564 172.708 97.9085 169.11C107.348 165.798 120.53 159.742 129.727 149.701C134.017 145.018 139.559 135.297 141.06 123.312C142.17 114.46 141.294 101.872 130.823 92.1658C130.609 91.9679 130.596 91.6338 130.795 91.4203C130.993 91.2065 131.326 91.1941 131.54 91.392C142.339 101.402 143.247 114.346 142.107 123.443C140.846 133.509 136.292 144.096 130.505 150.414C121.155 160.622 107.796 166.761 98.2366 170.113C87.8931 173.74 79.6349 174.98 79.5526 174.992C79.5264 174.995 79.5007 174.997 79.4752 174.997Z" fill="#241B84"/>
</g>
<path d="M147.931 270.835L66.6861 242.646C66.1356 242.455 65.8442 241.854 66.0351 241.303L103.266 133.997C103.457 133.447 104.059 133.155 104.609 133.346L185.854 161.535C186.404 161.726 186.696 162.327 186.505 162.878L149.273 270.184C149.082 270.734 148.481 271.026 147.931 270.835Z" fill="#7242EE"/>
<path d="M154.395 163.694L127.616 154.402C127.065 154.211 126.774 153.61 126.965 153.06L133.779 133.421C133.97 132.871 134.571 132.58 135.121 132.77L161.901 142.062C162.451 142.253 162.743 142.854 162.552 143.405L155.738 163.043C155.547 163.593 154.946 163.885 154.395 163.694Z" fill="#241B84"/>
<path d="M178.274 194.65C178.274 194.65 184.15 188.658 180.017 182.786C176.054 186.601 164.463 187.441 163.827 185.095C163.311 183.195 166.396 176.313 167.297 173.04C168.744 167.768 168.477 163.448 160.742 169.361C135.256 192.464 97.8638 178.131 87.4582 176.144C80.8244 174.879 75.8239 173.958 74.6929 173.836C48.0844 170.971 2.58008 191.915 2.58008 191.918C2.81473 193.066 4.33998 218.2 30.0071 231.096C52.5711 242.433 108.39 235.281 130.114 231.934C133.875 231.355 147.818 228.731 151.792 227.818C164.852 224.818 171.129 220.217 170.739 214.049C170.739 214.049 177.211 209.574 175.393 204.509C175.393 204.509 180.294 199.601 178.274 194.65Z" fill="white"/>
<path d="M69.4487 237.772C53.7172 237.772 38.993 236.201 29.7704 231.567C7.74843 220.503 3.09504 200.512 2.11655 192.43C2.09418 192.245 2.07287 192.07 2.06337 192.023C2.02602 191.84 2.08848 191.65 2.22776 191.525C2.355 191.411 13.8125 186.171 28.4952 181.3C41.9576 176.833 60.9104 171.821 74.7495 173.312C75.782 173.422 79.9716 174.179 87.5573 175.625C88.973 175.896 90.9112 176.399 93.1552 176.983C107.886 180.81 138.539 188.776 160.388 168.97C160.399 168.96 160.411 168.951 160.422 168.942C163.921 166.266 166.166 165.434 167.485 166.323C168.736 167.166 168.841 169.409 167.806 173.18C167.505 174.273 166.971 175.744 166.406 177.302C165.405 180.062 164.034 183.841 164.336 184.957C164.383 185.13 164.685 185.385 165.391 185.581C168.599 186.468 176.592 185.352 179.651 182.406C179.762 182.3 179.914 182.248 180.067 182.261C180.221 182.276 180.36 182.357 180.448 182.483C182.249 185.041 182.503 188.03 181.181 191.127C180.419 192.913 179.35 194.236 178.883 194.766C179.624 196.865 179.341 199.248 178.058 201.682C177.3 203.119 176.404 204.187 175.992 204.641C176.641 206.81 176.012 209.176 174.161 211.506C173.042 212.916 171.795 213.92 171.279 214.308C171.377 217.453 169.811 220.224 166.62 222.548C163.419 224.879 158.47 226.825 151.91 228.332C147.982 229.234 133.935 231.879 130.194 232.455C116.801 234.519 92.0834 237.772 69.4487 237.772ZM3.15561 192.235C3.15814 192.257 3.16109 192.279 3.16384 192.303C4.12186 200.216 8.6784 219.789 30.2439 230.625C39.3118 235.18 53.8396 236.729 69.3892 236.73C91.9437 236.73 116.655 233.474 130.033 231.412C133.762 230.838 147.76 228.203 151.674 227.303C164.345 224.393 170.583 219.944 170.212 214.082C170.201 213.898 170.286 213.72 170.438 213.615C170.5 213.572 176.555 209.308 174.896 204.687C174.827 204.495 174.875 204.28 175.019 204.136C175.065 204.089 179.647 199.412 177.786 194.849C177.706 194.654 177.75 194.431 177.897 194.281C177.911 194.266 179.324 192.806 180.222 190.684C181.311 188.111 181.205 185.726 179.908 183.583C176.296 186.492 168.462 187.525 165.109 186.597C164.089 186.315 163.486 185.856 163.317 185.233C162.955 183.898 163.958 180.955 165.414 176.942C165.972 175.405 166.498 173.953 166.788 172.9C167.995 168.502 167.265 167.447 166.895 167.198C166.408 166.87 165.006 166.769 161.08 169.766C149.904 179.888 136.525 182.901 124.086 182.902C111.737 182.902 100.315 179.933 92.8895 178.004C90.6633 177.425 88.7409 176.926 87.3591 176.662C79.907 175.241 75.6265 174.467 74.6364 174.361C49.5621 171.661 7.43739 190.3 3.15561 192.235Z" fill="#241B84"/>
<mask id="mask2_2431_2373" style="mask-type:luminance" maskUnits="userSpaceOnUse" x="128" y="169" width="54" height="63">
<path d="M178.275 194.65C180.294 199.601 175.393 204.509 175.393 204.509C177.212 209.574 170.739 214.049 170.739 214.049C171.313 223.147 157.386 230.609 128.579 231.096C127.454 231.115 128.213 184.362 129.98 184.152C139.02 183.076 149.786 178.716 158.835 171.801C166.569 165.888 167.695 170.464 166.248 175.736C165.348 179.009 163.312 183.195 163.827 185.095C164.463 187.441 176.054 186.601 180.017 182.786C184.15 188.658 178.275 194.65 178.275 194.65Z" fill="white"/>
</mask>
<g mask="url(#mask2_2431_2373)">
<path d="M170.735 197.76C169.07 197.76 168.023 197.377 167.931 197.342C167.659 197.238 167.522 196.934 167.625 196.661C167.729 196.389 168.034 196.252 168.306 196.356C168.316 196.359 169.436 196.769 171.2 196.685C172.826 196.608 175.352 196.083 178.151 194.019C178.385 193.846 178.716 193.896 178.888 194.131C179.061 194.365 179.011 194.695 178.777 194.868C175.6 197.212 172.726 197.76 170.735 197.76Z" fill="#241B84"/>
<path d="M168.438 207.256C167.315 207.256 166.287 207.047 165.4 206.622C165.138 206.497 165.027 206.182 165.153 205.919C165.279 205.656 165.594 205.545 165.856 205.671C168.142 206.766 171.605 206.163 175.121 204.056C175.371 203.906 175.695 203.988 175.845 204.238C175.995 204.488 175.913 204.812 175.663 204.961C173.143 206.471 170.614 207.256 168.438 207.256Z" fill="#241B84"/>
<path d="M164.771 216.028C163.783 216.028 162.947 215.887 162.395 215.611C162.135 215.481 162.029 215.164 162.159 214.903C162.289 214.643 162.606 214.537 162.867 214.668C164.071 215.27 167.923 215.051 170.987 213.349C171.242 213.208 171.563 213.3 171.705 213.554C171.846 213.809 171.754 214.13 171.5 214.272C169.365 215.457 166.76 216.028 164.771 216.028Z" fill="#241B84"/>
</g>
<path d="M130.125 231.939C107.346 236.001 54.9656 242.336 32.168 233.368C0.538746 220.926 0.969227 192.07 1.07558 188.769C1.01375 188.788 43.6681 171.017 70.3098 168.48C72.719 168.25 83.2757 171.267 89.9095 172.532C94.895 173.483 126.522 182.233 126.522 182.233C126.522 182.233 123.427 194.839 124.011 205.627C124.741 219.125 130.139 231.936 130.125 231.939Z" fill="white"/>
<mask id="mask3_2431_2373" style="mask-type:luminance" maskUnits="userSpaceOnUse" x="25" y="153" width="106" height="84">
<path d="M126.511 182.227C109.826 177.842 96.0434 173.7 89.8981 172.526L91.4518 168.048C91.4518 168.048 31.3008 136.456 26.0758 167.626C22.625 188.212 93.1222 236.71 93.1222 236.71C93.1222 236.71 102.738 235.803 106.07 235.408C112.116 234.691 130.113 231.934 130.113 231.934C130.113 231.934 130.184 232.15 129.572 230.542C127.077 223.984 124.211 205.39 124.254 198.596C124.285 193.848 126.511 182.227 126.511 182.227Z" fill="white"/>
</mask>
<g mask="url(#mask3_2431_2373)">
<path d="M90.0908 172.5C90.0473 172.5 90.0032 172.495 89.9591 172.484C78.1488 169.448 66.1066 167.014 48.7015 170.531C48.416 170.588 48.1377 170.404 48.0799 170.118C48.0223 169.832 48.2069 169.554 48.4924 169.496C66.1165 165.936 78.2879 168.394 90.2216 171.461C90.5037 171.534 90.6738 171.822 90.6012 172.104C90.54 172.342 90.3256 172.5 90.0908 172.5Z" fill="#241B84"/>
</g>
<mask id="mask4_2431_2373" style="mask-type:luminance" maskUnits="userSpaceOnUse" x="25" y="153" width="106" height="84">
<path d="M126.511 182.227C109.826 177.842 96.0434 173.7 89.8981 172.526L91.4518 168.048C91.4518 168.048 31.3008 136.456 26.0758 167.626C22.625 188.212 93.1222 236.71 93.1222 236.71C93.1222 236.71 102.738 235.803 106.07 235.408C112.116 234.691 130.113 231.934 130.113 231.934C130.113 231.934 130.184 232.15 129.572 230.542C127.077 223.984 124.211 205.39 124.254 198.596C124.285 193.848 126.511 182.227 126.511 182.227Z" fill="white"/>
</mask>
<g mask="url(#mask4_2431_2373)">
<path d="M114.665 227.303C116.237 227.303 117.511 226.029 117.511 224.457C117.511 222.885 116.237 221.611 114.665 221.611C113.093 221.611 111.818 222.885 111.818 224.457C111.818 226.029 113.093 227.303 114.665 227.303Z" fill="#241B84"/>
</g>
<mask id="mask5_2431_2373" style="mask-type:luminance" maskUnits="userSpaceOnUse" x="25" y="153" width="106" height="84">
<path d="M126.511 182.227C109.826 177.842 96.0434 173.7 89.8981 172.526L91.4518 168.048C91.4518 168.048 31.3008 136.456 26.0758 167.626C22.625 188.212 93.1222 236.71 93.1222 236.71C93.1222 236.71 102.738 235.803 106.07 235.408C112.116 234.691 130.113 231.934 130.113 231.934C130.113 231.934 130.184 232.15 129.572 230.542C127.077 223.984 124.211 205.39 124.254 198.596C124.285 193.848 126.511 182.227 126.511 182.227Z" fill="white"/>
</mask>
<g mask="url(#mask5_2431_2373)">
<path d="M106.509 237.781C106.299 237.781 106.1 237.655 106.018 237.448C105.988 237.372 102.985 229.72 101.395 218.436C99.9271 208.019 99.3932 192.271 105.184 176.409C105.284 176.135 105.587 175.995 105.861 176.094C106.134 176.194 106.275 176.497 106.175 176.771C100.463 192.417 100.989 207.968 102.435 218.258C104.005 229.425 106.969 236.984 106.999 237.059C107.106 237.329 106.974 237.636 106.703 237.744C106.639 237.769 106.573 237.781 106.509 237.781Z" fill="#241B84"/>
</g>
<path d="M76.3928 169.549C76.2356 169.549 76.0801 169.479 75.9761 169.346C71.3767 163.433 59.5795 160.68 59.4609 160.652C59.1769 160.587 58.9992 160.305 59.0642 160.021C59.1292 159.737 59.4122 159.56 59.6958 159.624C59.8205 159.652 62.7889 160.337 66.3935 161.79C71.268 163.755 74.7722 166.079 76.809 168.698C76.9879 168.928 76.9464 169.259 76.7166 169.438C76.6201 169.513 76.506 169.549 76.3928 169.549Z" fill="#241B84"/>
<path d="M66.7689 238.457C51.4222 238.457 39.7501 236.917 31.9639 233.854C19.4049 228.913 10.3252 221.098 4.97626 210.624C2.19228 205.173 0.565117 199.255 0.140125 193.037C0.125142 192.819 0.109949 192.594 0.100031 192.539C0.0495976 192.255 0.235927 191.978 0.519537 191.924C0.803357 191.87 1.07642 192.048 1.13424 192.331C1.15618 192.437 1.16715 192.593 1.19269 192.965C1.60797 199.041 3.19716 204.821 5.91592 210.145C11.1441 220.382 20.0379 228.029 32.3501 232.872C42.1323 236.72 58.995 238.15 81.1153 237.008C103.24 235.866 122.944 232.658 129.385 231.527C127.929 227.803 124.088 217.027 123.472 205.651C122.956 196.111 125.325 185.043 125.883 182.596C121.894 181.451 94.4968 173.589 89.9656 172.486L88.7271 172.183C83.3535 170.867 77.797 169.506 70.2634 169.001C69.9726 168.982 69.7527 168.73 69.7724 168.439C69.792 168.149 70.0429 167.93 70.3341 167.948C77.9591 168.46 83.5608 169.832 88.9783 171.158L90.2155 171.46C95.101 172.65 126.342 181.63 126.657 181.721C126.929 181.799 127.091 182.078 127.024 182.353C126.993 182.479 123.954 195.011 124.526 205.594C125.18 217.665 129.667 229.398 130.56 231.628C130.627 231.795 130.696 231.967 130.577 232.186C130.501 232.327 130.364 232.425 130.207 232.454C124.511 233.469 104.141 236.875 81.1701 238.062C76.0593 238.325 71.2565 238.457 66.7689 238.457Z" fill="#241B84"/>
<path d="M326.691 55.7429C334.018 73.7789 331.85 83.0196 327.166 96.931C319.591 119.428 291.096 155.926 286.606 168.162C273.175 204.759 277.775 228.547 291.726 232.062C347.288 246.063 365.879 155.035 368.438 143.647C373.632 120.532 376.542 90.12 376.602 72.1023C376.668 51.8348 375.687 52.36 375.687 52.36C375.687 52.36 347.232 43.0364 344.659 49.0152C342.549 53.9169 341.579 66.5236 341.579 66.5236C341.579 66.5236 340.419 63.582 337.676 59.5927C332.702 52.36 325.96 53.9431 326.691 55.7429Z" fill="white"/>
<path d="M302.995 234.042C299.287 234.042 295.485 233.553 291.597 232.574C287.415 231.52 283.98 228.644 281.662 224.257C275.585 212.757 277.206 192.244 286.111 167.98C287.981 162.884 293.919 153.704 300.794 143.075C310.346 128.307 322.233 109.929 326.667 96.7626C331.196 83.3114 333.597 74.1433 326.202 55.9414C325.988 55.4135 326.096 54.6675 327.043 54.1573C328.765 53.2292 333.944 53.2341 338.111 59.2937C339.578 61.4262 340.594 63.2532 341.229 64.5113C341.595 60.7438 342.54 52.604 344.175 48.8067C345.372 46.0246 350.957 45.7378 361.248 47.9295C368.271 49.4252 375.092 51.6128 375.793 51.8397C375.86 51.8519 375.925 51.8764 375.986 51.9131C376.347 52.1302 377.194 52.639 377.13 72.1042C377.071 89.8919 374.243 120.218 368.953 143.762C368.887 144.053 368.812 144.396 368.725 144.788C367.403 150.766 363.891 166.646 356.935 183.641C348.131 205.151 337.282 219.999 324.69 227.774C317.93 231.948 310.666 234.042 302.995 234.042ZM329.193 54.7667C328.454 54.7667 327.878 54.9062 327.544 55.0862C327.408 55.1592 327.101 55.3502 327.18 55.5443C330.713 64.2412 332.187 71.1365 331.96 77.9013C331.738 84.5223 329.884 90.5129 327.667 97.0992C323.191 110.39 311.264 128.831 301.68 143.648C294.839 154.224 288.931 163.358 287.101 168.344C282.547 180.754 279.909 192.058 279.261 201.941C278.669 210.97 279.822 218.517 282.595 223.764C284.8 227.938 287.916 230.558 291.855 231.55C295.651 232.507 299.366 232.984 302.985 232.984C310.467 232.985 317.547 230.944 324.135 226.876C336.534 219.221 347.241 204.54 355.958 183.241C362.88 166.33 366.378 150.514 367.695 144.56C367.782 144.167 367.858 143.823 367.923 143.531C373.198 120.06 376.016 89.8309 376.074 72.1004C376.126 56.5268 375.56 53.4185 375.359 52.8078C374.25 52.4514 367.726 50.3872 361.021 48.9597C348.457 46.2848 345.68 47.9767 345.144 49.2234C343.093 53.9893 342.115 66.4386 342.105 66.5637C342.087 66.8087 341.901 67.0081 341.658 67.0448C341.415 67.0809 341.179 66.9454 341.089 66.7169C341.077 66.688 339.914 63.7766 337.242 59.8913C334.432 55.8049 331.208 54.7667 329.193 54.7667ZM375.935 52.8262C375.864 52.8637 375.786 52.8842 375.707 52.8872C375.78 52.8855 375.857 52.8673 375.935 52.8262Z" fill="#241B84"/>
<path d="M349.42 88.1626C349.129 88.1626 348.893 87.9264 348.893 87.6352C348.893 87.4962 348.798 73.6413 341.229 66.918C341.011 66.7245 340.991 66.3911 341.185 66.1733C341.378 65.9553 341.712 65.9359 341.93 66.1292C346.085 69.8204 348.044 75.4795 348.955 79.5766C349.936 83.9899 349.947 87.4886 349.947 87.6352C349.948 87.9264 349.711 88.1626 349.42 88.1626Z" fill="#241B84"/>
<path d="M343.951 48.698C344.71 44.1527 351.67 42.1148 352.938 48.4214C353.012 44.4504 359.94 43.3717 361.179 47.8252C362.326 45.3574 367.712 44.147 369.103 48.8873C369.65 47.1158 375.078 46.4511 375.666 51.0724C376.187 55.1746 372.363 57.3548 370.299 55.7019C369.468 54.9762 368.685 52.5139 368.652 52.3024C366.629 55.4673 363.254 58.2736 360.506 52.0572C359.078 54.8365 356.932 59.595 352.515 53.3478C351.535 55.8397 350.235 57.2831 348.727 57.4587C346.174 57.7558 344.329 53.1254 344.086 51.295C344.086 51.2952 343.742 49.9325 343.951 48.698Z" fill="white"/>
<path d="M348.488 58.0003C347.265 58.0003 346.096 57.1242 345.088 55.4466C344.229 54.0182 343.7 52.3528 343.566 51.3933C343.513 51.1703 343.221 49.8481 343.43 48.61C343.863 46.0214 346.219 43.9604 348.796 43.9178C350.631 43.8798 352.092 44.8777 352.914 46.6368C353.522 45.5779 354.688 44.6772 356.471 44.4506C358.263 44.2231 360.311 44.861 361.302 46.714C362.264 45.6646 363.887 45.021 365.475 45.1394C367.169 45.2664 368.508 46.2265 369.26 47.8157C369.958 47.2542 371.076 46.9379 372.242 47.039C374.422 47.2278 375.897 48.7109 376.189 51.0061C376.532 53.7082 375.178 55.4987 373.796 56.2734C372.48 57.0117 371.013 56.9505 369.969 56.1143C369.963 56.1096 369.957 56.1048 369.951 56.0999C369.338 55.5646 368.808 54.3725 368.481 53.4807C367.361 54.9874 365.822 56.4143 364.066 56.2803C362.718 56.1774 361.519 55.1554 360.492 53.2381C359.62 54.9034 358.447 56.8146 356.667 56.9429C355.386 57.0349 354.063 56.2008 352.638 54.3964C351.616 56.573 350.295 57.8077 348.787 57.9833C348.687 57.9946 348.587 58.0003 348.488 58.0003ZM348.876 44.9723C348.855 44.9723 348.834 44.9725 348.813 44.9727C346.986 45.0031 344.862 46.4371 344.47 48.7847C344.47 48.7849 344.47 48.7854 344.47 48.7858C344.282 49.8981 344.593 51.1536 344.597 51.1661C344.601 51.1857 344.605 51.2055 344.608 51.2256C344.848 53.0332 346.546 56.9442 348.497 56.9446C348.553 56.9446 348.609 56.9415 348.665 56.9349C349.949 56.7855 351.11 55.4785 352.023 53.1551C352.094 52.9747 352.258 52.8477 352.451 52.8245C352.643 52.8015 352.833 52.8853 352.945 53.0437C354.333 55.0073 355.562 55.9665 356.591 55.8906C358.01 55.7882 359.091 53.6688 359.88 52.1211L360.036 51.8169C360.128 51.636 360.317 51.5238 360.52 51.5305C360.723 51.5364 360.905 51.6586 360.987 51.8445C361.941 54.0028 363.004 55.1413 364.146 55.2284C365.362 55.3221 366.843 54.1516 368.206 52.019C368.324 51.8344 368.544 51.7419 368.758 51.7867C368.973 51.8314 369.137 52.004 369.172 52.2203C369.246 52.5689 369.983 54.7148 370.637 55.298C371.339 55.8532 372.35 55.8745 373.28 55.3533C374.362 54.7469 375.419 53.3214 375.142 51.1395C374.818 48.5933 372.942 48.1588 372.151 48.0903C370.897 47.9831 369.773 48.5039 369.606 49.0434C369.537 49.2659 369.328 49.4085 369.098 49.4155C368.866 49.4138 368.661 49.2597 368.596 49.0365C367.916 46.7193 366.299 46.2597 365.396 46.1921C363.863 46.0767 362.186 46.9098 361.657 48.0483C361.564 48.2487 361.354 48.3684 361.135 48.3517C360.915 48.3338 360.729 48.1802 360.67 47.9672C360.078 45.8385 358.109 45.3063 356.603 45.4979C355.114 45.6872 353.497 46.6859 353.465 48.4317C353.46 48.7007 353.253 48.9232 352.985 48.9472C352.718 48.9727 352.473 48.7898 352.42 48.5258C351.966 46.2637 350.675 44.9723 348.876 44.9723Z" fill="#241B84"/>
<mask id="mask6_2431_2373" style="mask-type:luminance" maskUnits="userSpaceOnUse" x="343" y="43" width="33" height="19">
<path d="M343.961 50.6155C343.108 43.3839 350.756 40.2756 352.938 48.4216C353.012 44.4506 359.94 43.3719 361.179 47.8254C362.326 45.3576 367.632 44.2316 369.234 48.9065C369.781 47.135 375.114 46.2314 375.702 50.8527C376.223 54.9549 372.617 57.473 370.278 55.9718C362.787 62.4362 353.19 62.0623 348.064 59.0322C344.47 56.9079 344.025 53.2898 343.961 50.6155Z" fill="white"/>
</mask>
<g mask="url(#mask6_2431_2373)">
<path d="M371.883 56.3719C371.607 56.3719 371.341 56.3257 371.081 56.2335C368.26 55.229 368.118 49.1017 368.124 49.0424C368.156 48.7529 368.415 48.5448 368.706 48.5752C368.991 48.6062 369.198 48.8594 369.174 49.1437C369.143 49.9434 369.651 54.6715 371.476 55.2533C372.267 55.5057 374.109 55.1318 377.568 49.8008C377.726 49.5562 378.053 49.4866 378.297 49.6453C378.542 49.8037 378.611 50.1304 378.453 50.375C375.844 54.3966 373.684 56.3717 371.883 56.3719Z" fill="#241B84"/>
<path d="M364.761 56.6878C362.922 56.6878 361.262 54.9237 360.657 53.0684C359.703 50.1458 360.175 45.9311 360.195 45.753C360.229 45.4635 360.491 45.2563 360.78 45.2894C361.069 45.3228 361.277 45.5844 361.243 45.8739C361.239 45.9153 360.778 50.0395 361.66 52.7409C362.237 54.5099 363.744 55.7977 365.02 55.6139C366.859 55.3474 368.039 52.1798 368.178 47.1407C368.186 46.8495 368.432 46.622 368.72 46.6279C369.011 46.6359 369.241 46.8786 369.233 47.1698C369.019 54.9442 366.596 56.4517 365.171 56.6581C365.034 56.6783 364.897 56.6878 364.761 56.6878Z" fill="#241B84"/>
<path d="M356.372 57.2991C355.259 57.2991 354.149 56.5384 353.304 55.1628C351.396 52.0534 351.835 45.9919 351.855 45.7353C351.877 45.4449 352.131 45.2289 352.421 45.2495C352.711 45.2717 352.929 45.5251 352.907 45.8157C352.902 45.8752 352.474 51.7934 354.204 54.6108C354.964 55.8488 355.887 56.4257 356.739 56.194C358.351 55.7549 360.126 52.3946 360.276 44.281C360.281 43.9929 360.517 43.7631 360.803 43.7631H360.813C361.105 43.7684 361.336 44.009 361.331 44.3004C361.193 51.7962 359.62 56.5023 357.016 57.2118C356.803 57.2706 356.587 57.2991 356.372 57.2991Z" fill="#241B84"/>
<path d="M348.552 58.2116C348.511 58.2116 348.47 58.2109 348.429 58.2097C346.934 58.1633 345.645 56.9199 344.599 54.5147C343.863 52.8245 343.52 51.1733 343.506 51.1038C343.448 50.8183 343.631 50.5398 343.917 50.4811C344.202 50.4218 344.481 50.6065 344.54 50.8915C344.893 52.6107 346.288 57.0875 348.462 57.155C349.139 57.1786 349.689 56.9626 350.15 56.5021C352.098 54.5525 351.917 48.8875 351.808 45.5028C351.782 44.6983 351.76 44.0037 351.77 43.4892C351.775 43.198 352.019 42.9608 352.307 42.9718C352.599 42.9773 352.83 43.2181 352.825 43.5093C352.815 43.9969 352.837 44.6791 352.863 45.4692C352.984 49.2549 353.167 54.9756 350.896 57.2483C350.256 57.8879 349.469 58.2116 348.552 58.2116Z" fill="#241B84"/>
</g>
<path d="M352.211 63.4894C352.206 63.4894 352.2 63.4894 352.194 63.4892C351.903 63.4801 351.675 63.2366 351.684 62.9452L351.988 53.3313C351.997 53.0401 352.236 52.8093 352.532 52.8209C352.823 52.83 353.051 53.0735 353.042 53.3649L352.738 62.9787C352.729 63.264 352.495 63.4894 352.211 63.4894Z" fill="#241B84"/>
<path d="M360.731 63.6092C360.445 63.6092 360.21 63.3801 360.204 63.0925L359.978 52.0682C359.972 51.777 360.203 51.536 360.494 51.5299C360.789 51.5263 361.027 51.7552 361.033 52.0465L361.259 63.0707C361.265 63.3619 361.033 63.6029 360.742 63.609C360.739 63.6092 360.735 63.6092 360.731 63.6092Z" fill="#241B84"/>
<path d="M369.17 62.678C368.892 62.678 368.659 62.4598 368.644 62.1783L368.125 52.3307C368.109 52.0397 368.333 51.7913 368.624 51.7761C368.918 51.7586 369.163 51.9842 369.178 52.2752L369.697 62.1228C369.713 62.4138 369.489 62.6622 369.198 62.6774C369.189 62.6778 369.18 62.678 369.17 62.678Z" fill="#241B84"/>
<path d="M297.602 234.726C302.088 234.456 307.169 234.194 311.867 233.011C312.822 232.793 314.799 232.192 314.799 232.192C352.708 220.508 366.269 153.427 368.437 143.78C370.731 133.574 372.895 119.356 374.388 105.63C374.388 105.63 360.748 108.836 350.986 107.113C336.957 104.637 327.612 95.5968 327.612 95.5968C322.428 110.992 306.912 134.42 296.531 150.667C296.531 150.667 260.716 167.334 263.636 200.059C266.216 228.972 297.602 234.726 297.602 234.726Z" fill="white"/>
<path d="M297.006 235.225C353.511 235.225 366.27 153.427 368.437 143.78C370.731 133.574 372.896 119.356 374.389 105.629C374.389 105.629 360.748 108.835 350.986 107.113C336.957 104.637 327.612 95.5965 327.612 95.5965C322.428 110.992 306.912 134.42 296.531 150.667" fill="white"/>
<path d="M297.007 235.752C296.715 235.752 296.479 235.516 296.479 235.225C296.479 234.933 296.715 234.697 297.007 234.697C309.117 234.697 320.111 230.852 329.684 223.268C337.609 216.989 344.662 208.079 350.648 196.784C361.285 176.71 365.73 154.533 367.404 146.184C367.62 145.105 367.791 144.253 367.923 143.664C370.1 133.975 372.23 120.394 373.784 106.304C370.805 106.945 359.48 109.147 350.895 107.632C338.876 105.511 330.16 98.5335 327.852 96.5219C322.924 110.522 310.215 130.32 299.967 146.284C298.935 147.893 297.934 149.452 296.976 150.951C296.82 151.196 296.493 151.268 296.247 151.111C296.002 150.954 295.93 150.628 296.087 150.383C297.045 148.884 298.046 147.324 299.079 145.715C309.482 129.509 322.428 109.341 327.113 95.4279C327.17 95.2566 327.312 95.1266 327.488 95.0838C327.664 95.0409 327.849 95.0914 327.979 95.2169C328.072 95.3062 337.381 104.176 351.078 106.593C360.618 108.276 374.133 105.147 374.268 105.116C374.435 105.077 374.61 105.12 374.739 105.234C374.867 105.348 374.932 105.516 374.913 105.686C373.348 120.075 371.176 134.001 368.953 143.895C368.823 144.473 368.653 145.319 368.438 146.391C366.757 154.781 362.289 177.068 351.58 197.278C345.526 208.703 338.38 217.725 330.339 224.095C320.575 231.83 309.36 235.752 297.007 235.752Z" fill="#241B84"/>
<path d="M183.645 124.319C185.023 127.198 186.401 130.074 187.78 132.953C190.031 133.14 192.589 132.99 195.284 132.159C196.382 131.818 197.445 131.388 198.465 130.862C198.749 127.583 199.032 124.303 199.315 121.024C198.378 120.159 197.435 119.217 196.494 118.196C192.526 113.321 189.483 109.022 187.645 105.1C187.117 108.115 186.808 111.574 186.067 114.831C185.308 118.156 184.495 121.321 183.645 124.319Z" fill="#D5C6FA"/>
<path d="M187.305 220.434C194.352 225.891 201.402 231.348 208.449 236.805L223.387 216.939C222.145 203.584 219.61 187.618 214.596 170.042C210.44 155.469 203.542 142.73 198.622 132.125C197.658 132.595 196.659 132.987 195.634 133.304C194.547 133.641 193.482 133.869 192.446 134.016C190.972 134.225 189.56 134.264 188.242 134.187C190.015 144.285 190.906 155.548 190.761 166.961C190.517 186.191 189.217 204.08 187.305 220.434Z" fill="#D5C6FA"/>
<mask id="mask7_2431_2373" style="mask-type:luminance" maskUnits="userSpaceOnUse" x="9" y="86" width="366" height="181">
<path d="M350.987 107.113C336.957 104.637 327.613 95.5965 327.613 95.5965C322.473 110.861 307.177 134.021 296.799 150.249C294.533 146.891 278.049 118.403 258.602 106.305C219.398 81.9156 205.538 94.2475 205.538 94.2475L195.628 94.2112L157.949 92.4773L131.194 91.7651C131.194 91.7651 116.447 81.3939 93.195 90.3702C64.7334 101.358 29.1989 129.026 9.07651 160.963C4.81793 167.721 253.648 266.865 253.648 266.865C254.13 258.792 252.87 241.537 251.092 220.494C251.85 221.132 252.775 221.856 253.537 222.378C269.798 233.538 311.925 232.877 311.943 232.649C312.871 232.435 313.785 232.187 314.686 231.91C352.595 220.226 366.27 153.427 368.438 143.78C370.731 133.574 372.59 119.391 374.083 105.665C374.082 105.665 360.748 108.835 350.987 107.113Z" fill="white"/>
</mask>
<g mask="url(#mask7_2431_2373)">
<path d="M293.426 174.095C293.17 174.095 292.945 173.908 292.905 173.647C291.202 162.608 296.259 150.172 296.311 150.048C296.422 149.778 296.73 149.65 296.999 149.761C297.269 149.872 297.397 150.181 297.286 150.45C297.236 150.572 292.29 162.743 293.948 173.486C293.992 173.774 293.795 174.044 293.507 174.088C293.48 174.093 293.453 174.095 293.426 174.095Z" fill="#241B84"/>
</g>
<mask id="mask8_2431_2373" style="mask-type:luminance" maskUnits="userSpaceOnUse" x="9" y="86" width="366" height="181">
<path d="M350.987 107.113C336.957 104.637 327.613 95.5965 327.613 95.5965C322.473 110.861 307.177 134.021 296.799 150.249C294.533 146.891 278.049 118.403 258.602 106.305C219.398 81.9156 205.538 94.2475 205.538 94.2475L195.628 94.2112L157.949 92.4773L131.194 91.7651C131.194 91.7651 116.447 81.3939 93.195 90.3702C64.7334 101.358 29.1989 129.026 9.07651 160.963C4.81793 167.721 253.648 266.865 253.648 266.865C254.13 258.792 252.87 241.537 251.092 220.494C251.85 221.132 252.775 221.856 253.537 222.378C269.798 233.538 311.925 232.877 311.943 232.649C312.871 232.435 313.785 232.187 314.686 231.91C352.595 220.226 366.27 153.427 368.438 143.78C370.731 133.574 372.59 119.391 374.083 105.665C374.082 105.665 360.748 108.835 350.987 107.113Z" fill="white"/>
</mask>
<g mask="url(#mask8_2431_2373)">
<path d="M289.863 168.102C289.848 168.102 289.834 168.102 289.819 168.101C289.528 168.077 289.313 167.822 289.337 167.531C290.049 158.971 294.091 153.211 295.817 150.752C296.051 150.418 296.236 150.154 296.351 149.97C296.505 149.723 296.83 149.647 297.077 149.801C297.325 149.955 297.4 150.28 297.247 150.528C297.117 150.736 296.924 151.011 296.68 151.358C295.004 153.748 291.077 159.344 290.388 167.619C290.365 167.894 290.134 168.102 289.863 168.102Z" fill="#241B84"/>
</g>
<mask id="mask9_2431_2373" style="mask-type:luminance" maskUnits="userSpaceOnUse" x="9" y="86" width="366" height="181">
<path d="M350.987 107.113C336.957 104.637 327.613 95.5965 327.613 95.5965C322.473 110.861 307.177 134.021 296.799 150.249C294.533 146.891 278.049 118.403 258.602 106.305C219.398 81.9156 205.538 94.2475 205.538 94.2475L195.628 94.2112L157.949 92.4773L131.194 91.7651C131.194 91.7651 116.447 81.3939 93.195 90.3702C64.7334 101.358 29.1989 129.026 9.07651 160.963C4.81793 167.721 253.648 266.865 253.648 266.865C254.13 258.792 252.87 241.537 251.092 220.494C251.85 221.132 252.775 221.856 253.537 222.378C269.798 233.538 311.925 232.877 311.943 232.649C312.871 232.435 313.785 232.187 314.686 231.91C352.595 220.226 366.27 153.427 368.438 143.78C370.731 133.574 372.59 119.391 374.083 105.665C374.082 105.665 360.748 108.835 350.987 107.113Z" fill="white"/>
</mask>
<g mask="url(#mask9_2431_2373)">
<path d="M364.098 121.582C365.67 121.582 366.945 120.308 366.945 118.736C366.945 117.164 365.67 115.889 364.098 115.889C362.526 115.889 361.252 117.164 361.252 118.736C361.252 120.308 362.526 121.582 364.098 121.582Z" fill="#241B84"/>
<path d="M358.358 130.225C352.71 130.225 346.805 129.138 340.974 126.975C331.731 123.547 323.71 117.819 319.52 111.654C319.356 111.413 319.419 111.085 319.66 110.921C319.901 110.757 320.229 110.82 320.393 111.061C324.403 116.962 332.43 122.681 341.341 125.986C351.69 129.824 362.264 130.205 371.115 127.059C371.39 126.962 371.691 127.105 371.789 127.38C371.886 127.654 371.743 127.956 371.469 128.054C367.39 129.503 362.959 130.225 358.358 130.225Z" fill="#241B84"/>
</g>
<mask id="mask10_2431_2373" style="mask-type:luminance" maskUnits="userSpaceOnUse" x="9" y="86" width="366" height="181">
<path d="M350.987 107.113C336.957 104.637 327.613 95.5965 327.613 95.5965C322.473 110.861 307.177 134.021 296.799 150.249C294.533 146.891 278.049 118.403 258.602 106.305C219.398 81.9156 205.538 94.2475 205.538 94.2475L195.628 94.2112L157.949 92.4773L131.194 91.7651C131.194 91.7651 116.447 81.3939 93.195 90.3702C64.7334 101.358 29.1989 129.026 9.07651 160.963C4.81793 167.721 253.648 266.865 253.648 266.865C254.13 258.792 252.87 241.537 251.092 220.494C251.85 221.132 252.775 221.856 253.537 222.378C269.798 233.538 311.925 232.877 311.943 232.649C312.871 232.435 313.785 232.187 314.686 231.91C352.595 220.226 366.27 153.427 368.438 143.78C370.731 133.574 372.59 119.391 374.083 105.665C374.082 105.665 360.748 108.835 350.987 107.113Z" fill="white"/>
</mask>
<g mask="url(#mask10_2431_2373)">
<path d="M199.85 120.824C198.685 120.824 196.607 119.673 192.253 113.675C189.533 109.927 187.189 105.997 187.165 105.958C187.016 105.707 187.098 105.384 187.349 105.235C187.599 105.086 187.923 105.168 188.072 105.418C188.095 105.457 190.419 109.351 193.111 113.06C197.979 119.767 199.657 119.865 200.055 119.736C200.232 119.679 200.378 119.532 200.501 119.287C202.224 115.87 197.492 99.8224 195.523 93.9274C195.43 93.6509 195.579 93.3521 195.856 93.2599C196.132 93.1673 196.431 93.3169 196.523 93.5931C196.818 94.4756 203.716 115.255 201.443 119.762C201.19 120.264 200.833 120.593 200.381 120.74C200.227 120.79 200.052 120.824 199.85 120.824Z" fill="#241B84"/>
<path d="M179.937 127.379C179.913 127.379 179.888 127.379 179.863 127.378C174.753 127.24 167.185 115.637 156.046 90.863C155.927 90.5973 156.046 90.285 156.311 90.1653C156.577 90.0459 156.889 90.1645 157.009 90.4302C167.662 114.124 175.361 126.201 179.892 126.323C183.517 126.421 186.23 113.683 187.094 105.631C187.125 105.342 187.386 105.133 187.675 105.163C187.964 105.194 188.174 105.454 188.143 105.744C188.137 105.797 187.554 111.165 186.307 116.445C184.571 123.801 182.487 127.379 179.937 127.379Z" fill="#241B84"/>
</g>
<mask id="mask11_2431_2373" style="mask-type:luminance" maskUnits="userSpaceOnUse" x="9" y="86" width="366" height="181">
<path d="M350.987 107.113C336.957 104.637 327.613 95.5965 327.613 95.5965C322.473 110.861 307.177 134.021 296.799 150.249C294.533 146.891 278.049 118.403 258.602 106.305C219.398 81.9156 205.538 94.2475 205.538 94.2475L195.628 94.2112L157.949 92.4773L131.194 91.7651C131.194 91.7651 116.447 81.3939 93.195 90.3702C64.7334 101.358 29.1989 129.026 9.07651 160.963C4.81793 167.721 253.648 266.865 253.648 266.865C254.13 258.792 252.87 241.537 251.092 220.494C251.85 221.132 252.775 221.856 253.537 222.378C269.798 233.538 311.925 232.877 311.943 232.649C312.871 232.435 313.785 232.187 314.686 231.91C352.595 220.226 366.27 153.427 368.438 143.78C370.731 133.574 372.59 119.391 374.083 105.665C374.082 105.665 360.748 108.835 350.987 107.113Z" fill="white"/>
</mask>
<g mask="url(#mask11_2431_2373)">
<path d="M203.929 93.3925C242.19 126.132 250.775 220.218 250.775 220.218L203.929 93.3925Z" fill="white"/>
<path d="M250.775 220.745C250.505 220.745 250.275 220.54 250.25 220.266C250.228 220.031 248.026 196.457 241.185 169.196C237.17 153.198 232.366 139.08 226.908 127.234C220.1 112.461 212.254 101.21 203.586 93.7932C203.365 93.6039 203.339 93.2707 203.528 93.0493C203.718 92.8282 204.051 92.8022 204.272 92.9915C213.058 100.509 220.997 111.884 227.869 126.8C233.355 138.707 238.181 152.889 242.212 168.954C249.071 196.291 251.279 219.934 251.301 220.17C251.327 220.46 251.113 220.716 250.823 220.743C250.807 220.745 250.791 220.745 250.775 220.745Z" fill="#241B84"/>
</g>
</svg>
