<svg width="257" height="344" viewBox="0 0 257 344" fill="none" xmlns="http://www.w3.org/2000/svg">
<path d="M62.1094 245.927C62.1094 245.927 68.4114 249.634 73.2384 247.493C78.0654 245.351 63.2491 234.375 63.2491 234.375L62.1094 245.94V245.927Z" fill="#282626"/>
<path d="M17.1239 228.405L16.1049 231.618L15.9842 231.993L14.6299 236.262C14.4958 236.222 14.3618 236.182 14.2277 236.142C8.74361 234.522 7.52344 233.264 7.52344 233.264C7.95251 229.998 17.1239 228.405 17.1239 228.405Z" fill="#282626"/>
<path d="M178.129 128.779L173.262 133.303L170.781 135.606C170.781 135.606 170.754 135.565 170.701 135.485C169.99 134.401 164.841 126.196 168.368 124.375C168.529 124.295 168.689 124.228 168.864 124.161C172.994 122.93 176.909 127.267 177.888 128.471C178.049 128.672 178.129 128.779 178.129 128.779Z" fill="#282626"/>
<path d="M225.223 169.029C225.236 169.122 225.223 169.203 225.209 169.283C225.209 169.31 225.196 169.35 225.183 169.39C225.022 170.153 224.405 170.702 223.091 170.836C218.747 171.277 214.697 170.019 213.209 169.484C212.82 169.336 212.605 169.243 212.605 169.243L213.799 168.239L221.281 161.961C221.281 161.961 221.388 162.082 221.562 162.282C222.474 163.34 225.317 166.847 225.223 169.029Z" fill="#282626"/>
<path d="M256.515 109.545C255.214 117.71 251.701 125.406 247.384 132.393C240.438 143.597 231.374 153.435 221.559 162.282C219.226 164.397 216.839 166.445 214.439 168.466C214.024 168.801 213.621 169.136 213.206 169.484C212.857 169.765 212.508 170.059 212.16 170.34C209.398 172.602 206.582 174.838 203.713 176.993C203.498 177.167 203.283 177.327 203.056 177.488C199.046 180.513 194.917 183.404 190.679 186.054C190.237 186.322 189.835 185.626 190.277 185.358C190.411 185.278 190.545 185.184 190.679 185.104C194.541 182.454 198.363 179.777 202.117 177.019C202.331 176.859 202.546 176.712 202.747 176.551C206.421 173.847 210.028 171.063 213.541 168.145C214.225 167.583 214.909 167.007 215.579 166.432C228.625 155.309 241.216 142.579 249.355 127.36C253.19 120.186 255.992 112.275 256.233 104.07C256.488 94.9145 253.23 85.7724 249.274 77.6342C240.639 59.8185 227.07 44.5326 212.736 31.0804C205.844 24.6154 198.631 18.3109 190.961 12.7561C190.545 12.4348 190.13 12.127 189.701 11.8325C189.62 11.779 189.54 11.712 189.459 11.6585C189.298 11.5514 189.258 11.3908 189.285 11.2436C189.325 10.9892 189.593 10.7751 189.862 10.9625C190.009 11.0695 190.143 11.1766 190.291 11.2837C190.304 11.2971 190.331 11.3105 190.344 11.3239C200.494 18.4314 209.88 26.9578 218.636 35.6716C232.702 49.6725 246.056 65.8151 253.15 84.5678C256.18 92.6257 257.869 100.965 256.515 109.545Z" fill="#282626"/>
<path d="M209.371 100.095C209.371 100.202 209.331 100.295 209.251 100.376C207.534 101.928 205.805 103.494 204.088 105.061C196.003 112.449 187.971 119.905 180.06 127.481C177.888 129.569 175.716 131.657 173.571 133.772C171.559 135.739 169.575 137.72 167.604 139.728C167.202 140.13 166.813 140.545 166.424 140.946C166.209 141.16 166.008 141.361 165.807 141.575C164.734 142.66 163.689 143.757 162.67 144.882C162.482 145.096 162.281 145.31 162.106 145.511C161.168 146.568 160.256 147.652 159.411 148.763C159.103 149.178 158.406 148.763 158.727 148.362C159.679 147.117 160.685 145.899 161.744 144.734C161.932 144.52 162.12 144.306 162.321 144.092C163.313 143.008 164.332 141.937 165.365 140.893C165.566 140.679 165.767 140.464 165.968 140.264C166.209 140.009 166.464 139.755 166.706 139.501C168.02 138.149 169.36 136.81 170.701 135.485C171.506 134.669 172.31 133.879 173.115 133.089C174.697 131.536 176.293 129.997 177.888 128.471C178.237 128.123 178.599 127.775 178.947 127.441C186.295 120.387 193.764 113.44 201.286 106.546C203.418 104.592 205.563 102.638 207.709 100.697C207.789 100.617 208.138 100.376 208.392 100.148C208.459 100.081 208.526 100.028 208.58 99.9742C208.526 99.9608 208.473 99.934 208.406 99.8805C208.205 99.6931 207.963 99.3317 207.923 99.2781C207.695 98.9435 207.467 98.5955 207.239 98.2475C206.837 97.6585 206.462 97.0696 206.073 96.4672C205.201 95.1153 204.343 93.75 203.512 92.3714C195.507 79.1735 188.521 65.2529 182.206 51.1047C181.643 49.8465 181.079 48.5749 180.53 47.3167C180.329 46.8616 180.127 46.4065 179.94 45.9514C179.806 45.6436 179.671 45.3357 179.537 45.0278C179.149 44.1444 178.773 43.261 178.384 42.3642C177.754 40.8784 177.124 39.4061 176.507 37.9203C176.306 37.4518 177.084 37.2377 177.285 37.7061C177.982 39.3793 178.693 41.0257 179.417 42.6854C179.47 42.7925 179.511 42.913 179.564 43.0201C179.725 43.3815 179.886 43.7429 180.047 44.1043C180.181 44.4121 180.315 44.72 180.463 45.0278C180.556 45.2822 180.677 45.5365 180.798 45.7908C181.428 47.2364 182.085 48.682 182.742 50.1276C185.692 56.6462 188.749 63.1113 191.954 69.5094C197.076 79.7357 202.479 89.9219 208.969 99.3584C209.076 99.5324 209.197 99.7065 209.318 99.8805C209.358 99.9474 209.371 100.014 209.371 100.095Z" fill="#282626"/>
<path d="M225.263 169.002C225.263 169.002 225.25 169.096 225.21 169.283C225.21 169.31 225.196 169.35 225.183 169.39C224.821 171.143 222.997 178.238 217.138 179.496C210.447 180.928 208.06 179.978 208.06 179.978C208.06 179.978 195 193.805 173.211 201.689C171.133 202.438 168.974 203.134 166.735 203.763C166.762 203.817 166.802 203.884 166.842 203.937C169.001 207.324 171.964 211.259 176.041 215.756C189.905 231.029 200.887 242.246 191.809 247.493C190.589 248.202 188.685 249.019 186.258 249.915C186.017 250.009 185.762 250.103 185.507 250.197C182.343 251.348 178.387 252.633 173.922 253.998C173.828 254.025 173.734 254.052 173.641 254.078C173.654 254.025 173.654 253.971 173.654 253.931C173.56 253.409 173.359 252.994 173.064 252.646C173.064 252.633 173.037 252.606 173.024 252.593C172.032 251.455 170.195 251.16 169.336 251.08C169.041 251.067 168.867 251.067 168.867 251.067C168.867 251.067 168.867 250.96 168.854 250.786C168.827 250.076 168.666 248.189 167.915 246.301C167.178 244.441 163.799 243.745 162.364 243.517C161.962 243.464 161.707 243.437 161.707 243.437C161.707 243.437 161.72 243.37 161.72 243.236C161.747 243.062 161.761 242.768 161.761 242.393C161.761 241.402 161.627 239.823 160.983 238.003C160.809 237.454 160.567 236.865 160.272 236.276C158.596 232.956 152.938 233.612 151.517 233.826C151.302 233.867 151.181 233.893 151.181 233.893L151.155 233.826L138.095 204.968L138.041 204.847L137.8 204.312L84.3268 227.187L84.2731 227.214L84.2463 227.254L83.6832 228.312L83.4954 228.673L82.5032 230.534L82.3021 230.895L80.5188 234.255L80.4517 234.375L80.7333 235.018L96.0189 269.23L96.2201 269.672L96.1128 269.712L78.0516 277.917C77.7432 277.85 77.4482 277.783 77.1666 277.69C75.0481 277.074 73.6 275.883 73.0234 273.969C71.6424 269.431 71.3071 259.633 71.1597 248.082C71.1462 247.332 71.1462 246.556 71.1328 245.793V245.351C71.0122 245.244 70.8915 245.124 70.7708 245.003C69.135 243.45 66.5874 241.764 63.423 240.117C63.1816 239.997 62.9537 239.877 62.7123 239.756C62.6989 239.756 62.6855 239.743 62.6855 239.743C53.675 235.232 40.1459 231.176 28.3464 231.417C23.1305 231.538 19.2689 231.725 16.4129 231.952C16.2654 231.966 16.1313 231.979 15.9838 231.993C15.8497 232.006 15.7022 232.019 15.5682 232.019C8.51531 232.649 8.27396 233.465 8.27396 233.465C8.27396 233.465 7.93875 233.465 7.52309 233.264C6.5979 232.823 5.23024 231.404 5.88725 226.92C6.77221 220.829 13.0206 218.982 13.9055 218.755C13.9726 218.741 14.0128 218.728 14.0128 218.728L14.0932 218.514C14.281 217.952 14.9514 215.971 17.3649 208.903C20.7036 199.065 36.472 167.944 55.5924 165.08C60.9558 164.277 65.7024 164.304 69.7786 164.759C73.4927 165.174 76.6437 165.95 79.1511 166.78L82.4228 166.526L83.0396 166.485C83.0396 166.485 83.0798 166.526 83.1066 166.552C85.0508 168.346 88.9795 170.996 95.0267 170.675C95.724 170.635 96.4078 170.568 97.0648 170.447C97.2525 170.421 97.4268 170.394 97.6145 170.354C98.1509 170.247 98.6604 170.126 99.1565 169.979C102.321 169.069 104.869 167.449 106.478 166.004C106.974 165.562 107.389 165.134 107.698 164.745L121.173 163.688C122.34 162.162 124.566 159.498 128.441 155.67C129.889 154.238 131.565 152.632 133.496 150.878C144.021 141.335 161.707 134.174 161.707 134.174C161.707 134.174 161.707 127.347 168.371 124.376C168.532 124.295 168.693 124.228 168.867 124.161C168.867 124.161 168.666 126.423 173.118 133.089C173.158 133.156 173.211 133.223 173.265 133.303C173.359 133.451 173.466 133.611 173.573 133.772C175.92 137.199 179.42 141.696 184.649 147.532C194.223 158.213 205.298 165.093 213.544 168.145C213.638 168.185 213.718 168.212 213.799 168.239C214.013 168.319 214.228 168.4 214.442 168.466C219.712 170.3 223.708 170.488 225.223 169.029C225.236 169.029 225.25 169.015 225.263 169.002Z" fill="white" stroke="#282626" stroke-width="0.5" stroke-linejoin="round"/>
<path d="M123.01 107.47C122.326 107.216 121.588 107.028 120.838 106.908C122.245 106.426 123.626 105.703 124.552 104.779C125.96 103.374 125.651 101.246 124.136 100.041C121.655 98.0734 118.773 99.2245 116.614 101.098C116.721 100.71 116.748 100.322 116.708 99.9473C116.547 98.5954 115.139 97.7254 113.838 97.779C113.396 97.8057 112.967 97.8994 112.564 98.0734C111.814 98.3679 111.157 98.9033 110.58 99.5726C109.279 101.098 108.515 103.347 108.529 105.154C105.901 104.458 101.462 106.011 101.556 108.862C101.57 109.143 101.623 109.424 101.717 109.719C101.744 109.812 101.784 109.906 101.824 110C102.066 110.575 102.401 111.017 102.79 111.338C103.004 111.526 103.232 111.673 103.487 111.78C104.023 112.021 104.627 112.115 105.243 112.088C105.552 112.088 105.86 112.048 106.169 111.994C106.879 111.86 107.603 111.606 108.26 111.285C107.617 112.623 107.215 114.203 107.992 115.501C108.421 116.224 109.172 116.639 110.003 116.839C110.258 116.893 110.526 116.933 110.795 116.947C111.438 116.987 112.095 116.906 112.645 116.719C114.831 115.996 115.715 113.466 115.93 111.271C117.056 112.489 118.504 113.547 120.113 113.774C121.95 114.042 124.994 113.627 125.772 111.619C126.55 109.625 124.659 108.086 123.01 107.47ZM125.101 111.004C124.82 112.931 121.615 113.212 120.14 112.958C118.464 112.69 116.855 111.244 115.93 110.04C115.702 109.732 115.179 109.799 115.179 110.241C115.166 111.981 114.737 114.243 113.342 115.421C112.685 115.969 111.613 116.251 110.634 116.143C110.54 116.143 110.446 116.143 110.366 116.117C109.802 116.01 109.293 115.782 108.931 115.394C107.63 114.029 108.864 111.726 109.655 110.441C109.856 110.107 109.44 109.665 109.105 109.893C108.274 110.455 107.094 111.07 105.927 111.271C105.847 111.298 105.753 111.311 105.659 111.311C104.774 111.432 103.903 111.285 103.232 110.656C102.709 110.16 102.441 109.692 102.361 109.223C102.347 109.116 102.334 109.009 102.334 108.902C102.374 106.68 106.745 105.114 108.757 106.051C108.783 106.064 108.797 106.064 108.824 106.064C108.824 106.064 108.832 106.069 108.85 106.078C108.85 106.078 108.917 106.091 108.944 106.091C109.159 106.118 109.387 105.997 109.36 105.716V105.676C109.36 105.676 109.36 105.609 109.346 105.569C109.159 103.053 110.687 99.5726 113.154 98.7293C114.482 98.2742 116.131 99.0639 115.876 100.617C115.715 101.607 115.112 102.611 114.536 103.414C114.241 103.842 114.938 104.244 115.233 103.829C116.909 101.433 120.194 98.6088 123.224 100.389C124.002 100.844 124.646 101.621 124.686 102.544C124.726 103.668 123.895 104.378 123.023 104.9C121.615 105.743 119.993 106.439 118.37 106.707C118.33 106.707 118.303 106.72 118.263 106.72C117.807 106.787 117.928 107.497 118.37 107.51C120.382 107.51 125.544 108.032 125.101 111.004Z" fill="#282626"/>
<path d="M115.901 129.542C113.541 128.86 111.047 128.538 108.566 128.338C108.298 128.324 108.03 128.297 107.762 128.284C106.703 128.217 105.657 128.164 104.611 128.123C102.171 128.03 99.7302 127.989 97.2899 128.056C97.0217 128.056 96.7535 128.07 96.4854 128.083C94.9032 128.137 93.3076 128.244 91.7388 128.404C90.6125 128.512 89.4325 128.645 88.2526 128.846C87.9844 128.886 87.7162 128.94 87.4481 128.993C85.477 129.395 83.5462 130.024 81.9372 131.162C80.5025 132.179 79.8723 133.518 80.1002 134.736C80.2745 135.713 80.9986 136.61 82.3126 137.212C82.3394 137.212 82.3528 137.239 82.3797 137.239C82.4333 137.279 82.4869 137.292 82.5406 137.319C84.0691 137.961 85.8927 138.069 87.5285 138.243C90.0493 138.524 92.5969 138.698 95.1445 138.778C95.4261 138.805 95.7077 138.805 95.9758 138.805C99.4218 138.898 102.881 138.805 106.3 138.537C109.411 138.296 112.629 137.935 115.606 136.917C117.268 136.342 119.253 135.458 119.937 133.718C119.95 133.692 119.964 133.665 119.964 133.638C119.99 133.598 120.004 133.544 120.017 133.504C120.567 131.135 117.684 130.064 115.901 129.542ZM84.7798 130.6C85.6647 130.278 86.5765 130.037 87.5017 129.837C87.7699 129.783 88.038 129.73 88.3062 129.689C88.5207 129.649 88.7487 129.609 88.9632 129.569C91.417 129.167 93.9109 128.967 96.4049 128.886C96.6731 128.873 96.9413 128.873 97.2094 128.86C98.081 128.86 98.9391 128.833 99.8107 128.833C100.883 128.833 104.101 128.806 107.628 129.034C107.896 129.047 108.164 129.06 108.432 129.087C113.957 129.489 119.883 130.546 119.24 133.29C118.743 134.843 116.92 135.606 115.512 136.101C113.246 136.891 110.846 137.265 108.473 137.533C103.015 138.135 97.4642 138.135 91.9935 137.814C89.7945 137.68 87.5956 137.506 85.4234 137.158C83.8144 136.917 81.3472 136.556 80.7975 134.709C80.1539 132.621 83.2244 131.162 84.7798 130.6Z" fill="#282626"/>
<path d="M82.4213 136.569L82.4884 136.65L82.4616 136.851C82.4616 136.851 82.4079 136.824 82.3945 136.811L82.4348 136.583L82.4213 136.569Z" fill="#6A686A"/>
<path d="M96.0826 138.377C95.7608 138.377 95.439 138.377 95.1172 138.35V138.283C95.1976 138.283 95.2915 138.283 95.3719 138.269L96.0692 138.377H96.0826Z" fill="#6A686A"/>
<path d="M97.6145 145.363C100.202 143.958 103.3 143.65 106.183 144.172C107.322 144.373 108.435 144.707 109.521 145.122C109.856 145.256 110.178 145.39 110.5 145.537C110.795 145.671 111.13 145.832 110.782 146.059C110.54 146.22 110.084 146.274 109.803 146.354C108.073 146.822 106.276 147.13 104.48 147.17C103.259 147.197 102.026 147.117 100.833 146.849C100.269 146.729 99.7062 146.568 99.1565 146.367C98.9285 146.287 97.2257 145.658 97.6145 145.363C98.0302 145.055 97.6145 144.359 97.2122 144.667C96.8636 144.935 96.6223 145.31 96.7564 145.765C96.9039 146.327 97.5475 146.541 98.0302 146.769C99.2235 147.304 100.497 147.652 101.798 147.826C104.252 148.161 106.759 147.92 109.159 147.358C109.602 147.251 110.044 147.13 110.487 147.01C110.849 146.903 111.305 146.822 111.559 146.528C112.444 145.484 110.956 144.868 110.218 144.56C107.751 143.53 105.043 142.967 102.361 143.195C100.578 143.342 98.8079 143.824 97.2257 144.681C96.7698 144.935 97.172 145.618 97.6279 145.377L97.6145 145.363Z" fill="#282626"/>
<path d="M92.5058 145.163C90.0521 145.859 87.5045 145.992 84.9971 145.591C83.7903 145.404 82.597 145.096 81.4438 144.681C80.9209 144.493 80.398 144.279 79.875 144.052C79.6873 143.971 79.2583 143.837 79.446 143.543C79.5666 143.356 80.2371 143.248 80.4382 143.195C82.8651 142.512 85.4396 142.378 87.9201 142.914C88.8989 143.128 89.8509 143.422 90.7761 143.824C91.1516 143.985 91.527 144.172 91.889 144.373C92.1438 144.507 93.0422 144.922 92.412 145.189C91.9427 145.39 92.3449 146.086 92.8142 145.885C93.5383 145.578 93.6321 144.614 93.0287 144.132C92.4656 143.663 91.6879 143.356 91.0175 143.074C88.9123 142.178 86.6195 141.736 84.3267 141.79C83.0126 141.83 81.712 142.017 80.4516 142.365C79.7007 142.566 78.5208 142.74 78.6147 143.771C78.6817 144.681 79.8482 144.922 80.5455 145.203C81.712 145.658 82.9322 146.019 84.1658 146.26C87.0083 146.809 89.918 146.729 92.7204 145.939C93.2165 145.792 93.0019 145.029 92.5058 145.163Z" fill="#282626"/>
<path d="M94.2628 141.308C94.0215 142.941 93.3913 144.56 92.6806 146.019C92.332 146.729 91.9566 147.438 91.5275 148.107C91.0448 148.884 90.4548 149.566 89.9587 150.316C89.4224 151.119 90.3341 151.695 91.018 151.909C92.2247 152.297 93.6997 152.27 94.8528 151.721C95.3221 151.494 94.9064 150.811 94.4506 151.025C93.5388 151.454 92.3454 151.44 91.38 151.173C91.2191 151.132 90.6291 150.985 90.5889 150.771C90.5889 150.744 90.9107 150.396 90.9509 150.343C91.2057 150.021 91.4471 149.687 91.675 149.339C93.0293 147.371 94.0885 145.163 94.7321 142.847C94.8528 142.405 94.9735 141.964 95.0405 141.508C95.1076 141 94.3433 140.786 94.2628 141.294V141.308Z" fill="#282626"/>
<path d="M100.657 152.618C100.791 152.511 100.563 152.685 100.51 152.725C100.335 152.846 100.148 152.953 99.96 153.06C99.2762 153.435 98.5521 153.716 97.8012 153.93C95.133 154.666 92.3306 154.331 89.7562 153.395C89.2735 153.221 89.0589 153.997 89.5416 154.171C92.2501 155.161 95.2134 155.496 98.0158 154.706C99.1421 154.398 100.309 153.93 101.234 153.194C101.636 152.872 101.073 152.31 100.671 152.632L100.657 152.618Z" fill="#282626"/>
<path d="M132.218 168.962C132.057 169.069 131.87 169.176 131.655 169.256C130.489 169.805 128.625 170.193 126.426 170.447C124.549 170.675 122.417 170.795 120.271 170.836C120.003 170.849 119.735 170.849 119.467 170.849C114.05 170.916 108.767 170.474 107.453 169.818C106.367 169.283 106.166 167.824 106.474 166.004C106.863 163.46 108.231 160.208 109.504 157.678C111.14 154.399 112.293 149.125 111.797 145.993C111.797 145.859 111.77 145.725 111.73 145.604C111.569 144.775 111.274 144.132 110.805 143.757C108.633 142.017 102.68 143.797 98.3352 142.071C96.5117 141.335 95.6803 140.371 95.3317 139.514C95.2244 139.26 95.1708 139.006 95.144 138.778C95.1172 138.631 95.1172 138.484 95.1172 138.35V138.283C95.1976 138.283 95.2781 138.269 95.3719 138.269L96.0692 138.376C105.924 138.604 117.737 137.654 119.494 133.745C119.521 133.705 119.534 133.665 119.547 133.625C119.762 133.611 119.842 133.611 119.842 133.611C119.869 133.638 119.896 133.665 119.909 133.692C119.923 133.692 119.936 133.705 119.936 133.718C121.693 135.673 124.884 144.4 127.445 152.913C127.74 153.877 128.075 154.8 128.437 155.67C131.28 162.617 135.691 166.646 132.218 168.962Z" fill="#282626"/>
<path d="M81.5632 139.113C81.4157 140.036 81.2548 140.96 81.1073 141.87C81.0805 142.004 81.0671 142.138 81.0403 142.272C81.0001 142.486 81.0939 142.7 81.3219 142.767C81.5096 142.82 81.7778 142.7 81.818 142.486C81.9655 141.562 82.1264 140.639 82.2739 139.728C82.3007 139.594 82.3141 139.461 82.3409 139.327C82.3811 139.113 82.2873 138.898 82.0593 138.832C81.8716 138.778 81.6035 138.898 81.5632 139.113Z" fill="#282626"/>
<path d="M80.4501 144.788C79.7394 149.633 79.3103 154.68 79.7662 159.565C80.0076 162.202 80.7048 164.531 82.4747 166.566C84.3922 168.788 87.1141 170.3 89.9969 170.889C94.3412 171.759 98.6722 170.554 102.453 168.426C102.909 168.172 102.494 167.476 102.051 167.73C96.1111 171.076 88.2806 171.692 83.3061 166.285C81.4557 164.277 80.7719 161.934 80.5573 159.271C80.316 156.339 80.4367 153.381 80.6646 150.463C80.7987 148.643 80.9864 146.809 81.2412 145.002C81.3082 144.493 80.5439 144.279 80.4635 144.788H80.4501Z" fill="#282626"/>
<path d="M96.2056 138.39C96.2056 138.39 96.0313 138.912 95.334 139.501C94.6234 140.103 93.363 140.759 91.164 140.973C86.9538 141.388 83.5748 140.933 81.7781 141.134C81.7245 141.134 81.6708 141.134 81.6172 141.147L82.3681 136.783L82.4351 136.824C82.4351 136.824 82.4619 136.824 82.4753 136.85C83.7223 137.506 88.9382 138.149 95.0927 138.336V138.269C95.1731 138.269 95.267 138.269 95.3475 138.256L96.0447 138.363L96.1654 138.39H96.2056Z" fill="#282626"/>
<path d="M83.7767 167.436C83.7767 167.436 83.7231 167.529 83.5622 167.677C83.4147 167.824 83.1734 167.984 82.7845 168.158C82.3286 168.373 81.685 168.587 80.7464 168.734C80.5051 168.774 80.2369 168.828 79.9285 168.868C79.6603 168.921 79.3519 168.962 79.0167 169.015C78.5474 169.082 78.0245 169.136 77.4882 169.189C74.3506 169.484 70.489 169.323 69.8856 166.566C69.7247 165.843 69.6979 165.267 69.7783 164.759C70.1001 162.483 72.3795 161.626 73.7874 157.035C75.316 152.069 79.2045 138.028 80.1028 134.736C80.2369 134.294 80.3039 134.04 80.3039 134.04H80.3174C80.2369 135.03 80.8939 135.994 82.3823 136.797L82.4493 136.837L82.3823 137.239L82.1275 138.885L81.7789 141.147L81.6314 142.111L81.6046 142.285C81.6046 142.285 81.3766 142.352 81.0414 142.472C80.1967 142.767 78.6949 143.396 79.0033 144.012C79.2983 144.614 80.0224 144.801 80.438 144.855C80.6258 144.882 80.7464 144.882 80.7464 144.882C80.7464 144.882 80.733 145.029 80.7062 145.283C80.5319 147.05 79.8749 154.117 79.8749 157.892C79.8749 162.229 82.4761 165.709 82.4761 165.709L83.1063 166.552L83.7767 167.436Z" fill="#282626"/>
<path d="M89.5001 104.244C90.3985 103.655 91.1762 102.879 91.5516 101.942C91.5516 101.928 91.565 101.915 91.565 101.902C91.6589 101.661 91.7259 101.406 91.7527 101.152C91.8868 100.108 91.4309 99.1041 90.318 98.6891C90.318 98.6891 90.3091 98.6847 90.2912 98.6758C90.023 98.5821 89.7415 98.5018 89.4733 98.4482C86.4698 97.886 83.359 100.001 81.4953 102.223C80.2081 101.339 78.599 100.804 77.0705 100.63C75.2469 100.429 72.7664 101.045 72.1093 102.999C71.2914 105.422 73.6781 106.466 75.8369 106.841C74.6704 107.349 73.5709 108.072 72.7127 108.982C71.5328 110.227 70.4333 112.248 72.4714 113.266C75.1263 114.591 78.3175 112.583 80.5701 110.789C80.3958 111.914 80.4628 113.172 81.0528 114.042C81.75 115.073 83.2384 115.166 84.3379 114.912C84.472 114.885 84.606 114.845 84.7267 114.805C84.9815 114.725 85.2362 114.604 85.4642 114.484C87.2877 113.44 87.9984 111.111 87.395 109.076C88.4006 109.558 89.594 109.759 90.6533 109.745C92.2757 109.719 94.5417 108.822 94.7965 106.975C95.1317 104.525 91.9405 104.15 89.5001 104.244ZM89.9158 108.915C88.8431 108.808 87.5559 108.46 86.738 107.684C86.7112 107.657 86.6709 107.63 86.6307 107.604C86.6039 107.604 86.5771 107.59 86.5637 107.59C86.4832 107.55 86.3894 107.564 86.3089 107.604C86.2553 107.63 86.215 107.657 86.1748 107.684C86.0541 107.791 86.0005 107.938 86.081 108.112C86.0944 108.139 86.1078 108.152 86.1078 108.166C87.4486 110.214 86.8453 113.359 84.3379 114.082C83.4663 114.336 82.2059 114.363 81.6696 113.493C81.0528 112.529 81.2941 110.856 81.6159 109.826C81.75 109.424 81.2271 109.197 80.9455 109.437C79.2024 110.923 76.5475 113.011 74.134 112.904C73.2357 112.864 71.868 112.382 72.1496 111.258C72.3641 110.388 73.1686 109.585 73.8256 109.023C74.9519 108.045 76.4135 107.363 77.8348 106.988C78.2772 106.868 78.1834 106.198 77.7275 106.198C76.1185 106.198 72.3105 105.837 72.82 103.428C73.2491 101.353 76.2123 101.219 77.8214 101.567C78.9879 101.821 80.4628 102.41 81.2807 103.039C81.4282 103.16 81.6964 103.227 81.8439 103.039C83.4663 101.018 85.7994 99.2781 88.4811 99.2379C89.8487 99.2246 91.3237 99.6796 90.908 101.339C90.5192 102.825 88.7492 103.95 87.3816 104.431C86.8989 104.619 87.1 105.288 87.5961 105.208C89.0711 104.994 93.7372 104.458 94.0054 106.6C94.2333 108.501 91.1896 109.023 89.9158 108.915Z" fill="#282626"/>
<path d="M86.8069 104.485C86.8069 104.485 85.4125 102.745 82.2749 103.441C79.1373 104.137 77.7428 106.921 79.4859 108.313C81.229 109.705 88.55 107.965 86.8069 104.485Z" fill="#FFDE10"/>
<path d="M88.4265 133.223C88.4265 133.732 87.622 133.732 87.622 133.223C87.622 132.099 87.5818 130.974 87.5013 129.837C87.5013 129.556 87.4879 129.275 87.4477 128.993C87.4209 128.297 87.3538 127.588 87.2734 126.879V126.852C87.2734 126.852 87.26 126.718 87.2466 126.651C87.2466 126.584 87.2466 126.504 87.2332 126.423C87.2198 126.303 87.2063 126.183 87.1929 126.062C87.1795 125.942 87.1661 125.821 87.1393 125.687C87.1259 125.5 87.0991 125.312 87.0589 125.112C86.9516 124.161 86.8041 123.211 86.6164 122.261C86.1605 119.717 85.5303 117.214 84.7258 114.805C84.6856 114.658 84.6453 114.524 84.5917 114.39C84.4174 113.895 85.1951 113.681 85.3694 114.176C85.4096 114.283 85.4364 114.377 85.4632 114.484C86.2141 116.706 86.8175 119.021 87.26 121.364C87.5684 122.89 87.8097 124.442 87.9974 125.982C88.0108 126.183 88.0377 126.383 88.0511 126.571C88.0913 126.879 88.1181 127.186 88.1449 127.494C88.1852 127.949 88.2254 128.404 88.2522 128.846C88.279 129.127 88.3058 129.408 88.3058 129.689C88.3863 130.867 88.4265 132.059 88.4265 133.223Z" fill="#282626"/>
<path d="M109.303 109.183C109.303 109.183 108.257 108.139 110.001 106.399C112.119 104.284 116.276 103.963 116.624 105.703C116.973 107.443 112.092 110.227 109.303 109.183Z" fill="#FFDE10"/>
<path d="M112.752 97.6452C112.712 97.7924 112.645 97.9396 112.564 98.0735C112.189 98.8231 111.438 99.3049 110.58 99.5726C109.52 99.934 108.314 99.9742 107.402 99.8805C106.611 99.7868 105.793 99.5994 105.015 99.3317C105.552 100.081 105.9 100.938 105.927 101.835C105.967 103.682 104.613 104.9 102.816 104.994C101.516 105.061 100.349 104.699 99.5044 103.923C99.2228 103.682 98.9948 103.387 98.8071 103.039C98.6328 102.758 98.4987 102.45 98.3915 102.102C98.1903 101.42 98.1099 100.684 98.1233 99.9474C97.3858 100.71 96.3802 101.286 95.4148 101.607C94.503 101.902 92.6794 102.397 91.5531 101.942C91.3654 101.875 91.1911 101.781 91.057 101.647C90.6682 101.286 91.2447 100.724 91.6202 101.072C91.6604 101.112 91.7006 101.139 91.7543 101.152C92.5856 101.661 94.7846 101.018 95.5891 100.684C96.6752 100.242 97.7747 99.4254 98.311 98.368C98.5389 97.9396 99.1289 98.2609 99.0485 98.6758C98.606 100.938 99.1557 103.776 101.837 104.137C103.554 104.378 105.297 103.628 105.123 101.661C105.002 100.228 103.822 98.9435 102.642 98.2207C102.213 97.953 102.615 97.257 103.058 97.5247C104.077 98.1672 105.257 98.6223 106.437 98.9034C107.979 99.2514 111.357 99.4254 111.988 97.431C112.511 95.7846 110.419 94.6469 109.158 94.3256C107.911 94.0178 106.571 93.9642 105.297 94.0981C104.774 94.1516 104.787 93.3485 105.297 93.295C106.195 93.2013 107.415 92.6659 108.126 91.9163C109.574 90.4171 109.561 87.9275 107.348 87.2716C104.103 86.2945 101.435 88.8243 100.966 91.8895C100.912 92.2911 100.295 92.2509 100.202 91.8895C99.9334 90.8856 98.9546 90.0825 98.0965 89.6006C96.0986 88.4897 92.7063 87.9409 90.5877 88.9983C89.8369 89.3731 89.2871 90.0959 89.4614 90.9793C89.6223 91.8092 90.5073 92.2911 91.1911 92.6525C92.304 93.2147 93.5376 93.5894 94.7578 93.8304C95.1332 93.9107 95.1466 94.5398 94.7578 94.6067C92.5856 94.9547 90.2123 96.2665 90.2927 98.6758C90.2927 98.7695 90.2927 98.8766 90.2927 98.9837C90.3464 99.4923 89.5419 99.4923 89.4882 98.9837C89.4614 98.7963 89.4614 98.6223 89.4614 98.4483C89.4882 96.3468 91.1241 94.9146 93.0147 94.2319C92.0627 93.9508 91.1375 93.5761 90.3062 93.0808C89.0994 92.358 88.2413 91.1935 88.791 89.7479C89.3944 88.1417 91.3922 87.7535 92.9074 87.7133C95.2807 87.6598 98.9814 88.3023 100.443 90.551C100.805 89.4266 101.435 88.3424 102.293 87.5929C103.862 86.1874 106.638 85.7992 108.488 86.8834C110.405 88.0212 110.245 90.551 108.984 92.1438C108.649 92.5722 108.22 92.9469 107.751 93.2548C108.796 93.3485 109.815 93.5894 110.714 94.0445C111.974 94.687 113.194 96.146 112.739 97.6452H112.752Z" fill="#282626"/>
<path d="M95.8837 95.7847C95.8837 95.7847 95.8837 94.0446 100.067 93.3486C104.251 92.6525 105.296 94.7406 103.553 96.4807C101.81 98.2208 94.8378 98.9168 95.8837 95.7847Z" fill="#FFDE10"/>
<path d="M105.55 111.459C104.826 113.105 103.619 114.417 102.024 115.247C100.991 115.782 99.7978 116.117 98.6715 116.237C98.4435 116.264 98.2022 116.277 97.9608 116.277L98.3631 116.679C98.3765 113.895 99.6637 110.789 102.185 109.424C102.64 109.17 102.238 108.487 101.782 108.728C99.1676 110.16 97.9206 113.078 97.6122 115.929C97.5854 116.184 97.5586 116.425 97.5586 116.679C97.5586 116.893 97.7463 117.081 97.9608 117.081C100.24 117.107 102.667 116.144 104.316 114.604C105.134 113.841 105.778 112.891 106.234 111.874C106.435 111.405 105.751 110.99 105.537 111.472L105.55 111.459Z" fill="#282626"/>
<path d="M103.111 111.004C101.649 112.449 100.188 113.895 98.7261 115.34C98.364 115.702 98.9272 116.277 99.2892 115.903C100.751 114.444 102.212 113.011 103.674 111.566C104.049 111.204 103.473 110.629 103.111 111.004Z" fill="#282626"/>
<path d="M98.7798 103.146C97.573 113.118 97.0635 123.131 95.9908 133.102C95.9372 133.611 96.7417 133.611 96.7954 133.102C97.868 123.131 98.3776 113.118 99.5843 103.146C99.6514 102.638 98.8469 102.638 98.7798 103.146Z" fill="#282626"/>
<path d="M94.8259 112.637C94.2091 111.954 93.2571 111.847 92.399 112.115C89.5698 112.985 88.1217 116.318 87.6122 118.968C87.4513 119.758 87.344 120.561 87.2636 121.364C87.1965 122.02 87.1563 122.676 87.1429 123.331C87.1295 123.907 87.1295 124.469 87.1429 125.045C87.1563 125.259 87.1563 125.486 87.1697 125.701C87.1831 125.821 87.1831 125.942 87.1965 126.062C87.1965 126.182 87.2099 126.303 87.2233 126.423C87.2233 126.517 87.2233 126.611 87.2367 126.705C87.2367 126.705 87.2501 126.812 87.277 126.865C87.277 126.865 87.277 126.892 87.277 126.905C87.4915 127.307 87.7999 127.494 88.1351 127.494C89.3687 127.575 91.152 125.527 91.6481 124.964C93.8873 122.354 95.6438 119.182 95.6707 115.662C95.6707 114.658 95.5366 113.426 94.8125 112.637H94.8259ZM88.0546 126.571C88.0546 126.571 88.0412 126.571 88.0278 126.544C88.0144 126.356 88.001 126.169 88.001 125.982C87.9072 124.603 87.934 123.198 88.0412 121.819C88.2558 119.062 88.8189 116.063 90.8704 114.029C91.514 113.386 92.466 112.677 93.4449 112.784C94.303 112.878 94.6382 113.721 94.7857 114.484C95.2818 117.121 94.1555 120.106 92.7208 122.274C92.5063 122.595 88.8592 127.401 88.0546 126.571Z" fill="#282626"/>
<path d="M88.9516 125.727C88.965 125.607 88.9516 125.674 88.9784 125.513C89.0187 125.259 89.0589 124.991 89.1125 124.737C89.2868 123.827 89.5014 122.943 89.7695 122.06C90.574 119.343 91.7674 116.746 93.43 114.457C93.7384 114.042 93.0412 113.641 92.7328 114.056C90.3059 117.402 88.6164 121.618 88.1471 125.754C88.0935 126.263 88.898 126.263 88.9516 125.754V125.727Z" fill="#282626"/>
<path d="M87.7851 125.246C87.6511 124.59 87.4231 123.947 87.1415 123.331C87.0209 123.05 86.8868 122.783 86.7527 122.515C86.7125 122.435 86.6588 122.341 86.6186 122.261C85.68 120.48 84.4196 118.687 82.8374 117.455C80.625 115.755 76.3209 114.457 74.2292 117.081C73.5588 117.91 73.2638 119.035 73.7063 120.039C74.1219 120.976 74.9398 121.725 75.7309 122.341C77.8361 124.001 80.3703 125.219 82.9179 126.022C83.6687 126.249 86.1091 126.999 87.222 126.423H87.2354C87.6108 126.236 87.8254 125.901 87.7986 125.353C87.7986 125.353 87.7986 125.272 87.7851 125.246ZM86.8331 125.687C86.632 125.794 86.3638 125.821 86.1225 125.821C85.2509 125.835 84.366 125.607 83.5213 125.366C81.2552 124.697 79.0428 123.666 77.0852 122.341C75.8114 121.484 73.7465 120.039 74.4571 118.245C75.6103 115.354 79.8473 116.451 81.7916 117.696C83.6017 118.861 84.9425 120.815 85.9348 122.676C86.2163 123.211 86.4979 123.787 86.6991 124.376C86.7527 124.509 86.8063 124.643 86.8465 124.777C86.9002 124.964 86.9538 125.138 86.994 125.326V125.353C87.0074 125.54 86.994 125.607 86.8331 125.687Z" fill="#282626"/>
<path d="M86.7403 124.402C83.5625 121.658 79.9959 119.155 76.2013 117.375C75.732 117.161 75.3297 117.844 75.799 118.071C79.54 119.825 83.053 122.274 86.1772 124.978C86.566 125.312 87.1426 124.75 86.7403 124.416V124.402Z" fill="#282626"/>
<path d="M110.875 116.599C110.848 116.719 110.822 116.826 110.795 116.947C110.259 119.369 109.762 121.805 109.293 124.242C109.186 124.844 109.065 125.446 108.958 126.049C108.944 126.169 108.918 126.289 108.904 126.397C108.904 126.397 108.9 126.405 108.891 126.423C108.891 126.423 108.877 126.504 108.877 126.53C108.877 126.53 108.877 126.557 108.877 126.571C108.864 126.624 108.851 126.678 108.851 126.718C108.837 126.758 108.837 126.785 108.824 126.811C108.784 127.026 108.757 127.24 108.717 127.454C108.663 127.748 108.609 128.043 108.569 128.337C108.529 128.578 108.489 128.833 108.435 129.087C108.207 130.559 107.979 132.032 107.778 133.504C107.697 134.013 106.933 133.785 107 133.29C107.201 131.871 107.402 130.452 107.63 129.033C107.684 128.779 107.724 128.525 107.765 128.284C107.832 127.896 107.885 127.508 107.952 127.119C107.992 126.932 108.019 126.745 108.06 126.557C108.06 126.544 108.06 126.53 108.06 126.504C108.06 126.437 108.073 126.356 108.1 126.276C108.1 126.236 108.113 126.196 108.113 126.156C108.113 126.156 108.113 126.142 108.127 126.129V126.075C108.287 125.205 108.448 124.335 108.609 123.465C109.038 121.243 109.494 119.035 109.99 116.84C110.017 116.692 110.044 116.532 110.084 116.384C110.111 116.224 110.232 116.13 110.352 116.117C110.446 116.09 110.54 116.103 110.621 116.143C110.781 116.21 110.916 116.384 110.862 116.599H110.875Z" fill="#282626"/>
<path d="M108.876 126.664C109.279 125.058 108.648 123.157 107.924 121.752C107.2 120.333 106.168 118.941 104.921 117.924C104.09 117.241 103.017 116.599 101.891 116.692C100.912 116.773 100.067 117.455 99.6513 118.339C99.3429 118.994 99.4636 119.757 99.6781 120.413C100.282 122.26 101.663 123.893 103.124 125.138C104.586 126.383 106.718 127.735 108.689 126.892C109.158 126.691 108.756 125.995 108.286 126.196C106.905 126.785 105.243 125.754 104.183 124.964C102.789 123.907 101.542 122.501 100.764 120.922C100.496 120.373 100.228 119.717 100.282 119.088C100.335 118.459 100.898 117.817 101.502 117.589C102.373 117.254 103.325 117.723 104.022 118.218C105.176 119.035 106.114 120.226 106.838 121.431C107.509 122.528 108.018 123.773 108.139 125.071C108.179 125.419 108.179 125.781 108.139 126.129C108.125 126.289 108.139 126.263 108.099 126.437C107.978 126.932 108.756 127.146 108.876 126.651V126.664Z" fill="#282626"/>
<path d="M120.85 118.566C119.563 118.084 118.047 118.312 116.774 118.7C115.178 119.182 113.663 119.985 112.362 121.029C111.222 121.926 110.163 123.024 109.292 124.242C109.158 124.429 109.037 124.603 108.916 124.79C108.621 125.232 108.366 125.674 108.139 126.129C108.125 126.129 108.139 126.142 108.139 126.142H108.125C108.125 126.142 108.112 126.169 108.112 126.182C108.098 126.196 108.098 126.209 108.085 126.223C108.071 126.249 108.058 126.263 108.045 126.29C108.031 126.33 108.031 126.37 108.031 126.423C108.031 126.464 108.031 126.517 108.058 126.557C108.058 126.745 108.152 126.905 108.259 127.053C108.38 127.213 108.541 127.347 108.715 127.454C108.903 127.575 109.104 127.668 109.292 127.735C110.606 128.204 112.148 128.07 113.502 127.896C116.425 127.508 119.938 126.531 121.855 124.108C123.223 122.368 123.183 119.463 120.85 118.566ZM121.748 122.756C120.756 125.031 117.806 126.116 115.594 126.678C113.998 127.093 112.268 127.374 110.619 127.2C110.27 127.16 109.104 127.012 108.876 126.571C108.876 126.557 108.863 126.557 108.876 126.544C108.863 126.531 108.849 126.517 108.849 126.504C108.849 126.49 108.863 126.49 108.863 126.477C108.876 126.464 108.876 126.437 108.889 126.423C108.889 126.423 108.894 126.415 108.903 126.397C110.78 122.836 114.373 119.651 118.45 119.155C119.442 119.035 120.649 119.075 121.386 119.851C122.11 120.614 122.15 121.832 121.748 122.756Z" fill="#282626"/>
<path d="M107.737 125.526C106.249 123.545 104.707 121.605 103.044 119.771C102.521 119.195 101.985 118.633 101.395 118.138C101.006 117.803 100.43 118.379 100.832 118.7C101.958 119.637 102.91 120.788 103.849 121.912C104.761 122.997 105.646 124.108 106.504 125.219C106.691 125.46 106.866 125.687 107.04 125.928C107.348 126.343 108.046 125.928 107.737 125.526Z" fill="#282626"/>
<path d="M120.54 120.467C116.584 121.792 112.682 123.68 109.277 126.075C108.861 126.37 109.263 127.066 109.679 126.771C113.018 124.402 116.852 122.542 120.741 121.243C121.223 121.083 121.022 120.306 120.526 120.467H120.54Z" fill="#282626"/>
<path d="M136.927 23.3572C136.792 23.4241 136.672 23.5044 136.551 23.5981C134.875 24.6422 133.44 26.235 132.327 27.8145C130.423 30.4648 129.364 33.0749 129.364 33.0749L120.461 29.7152C120.461 29.7152 121.467 27.7208 123.384 24.9902C124.577 23.2769 126.133 21.2691 128.037 19.3015C129.27 18.0165 130.611 16.9457 131.925 16.0623C132.18 15.8883 132.448 15.7276 132.703 15.567C135.411 13.8805 137.892 13.0104 138.965 12.6892C139.313 12.5821 139.514 12.5286 139.514 12.5286C134.486 20.118 136.927 23.3572 136.927 23.3572Z" fill="#FFDE10"/>
<path d="M176.228 22.6611C176.228 22.6611 178.977 25.7665 180.774 32.7402C182.57 39.7005 180.063 49.5654 180.063 49.5654L171.133 46.6742C171.133 46.6742 173.989 36.8896 171.522 30.3175L176.228 22.6745V22.6611Z" fill="#FFDE10"/>
<path d="M152.28 3.72108C148.539 4.79189 144.879 6.83983 141.969 9.36964C137.665 13.1041 133.481 20.6668 137.92 25.8335C139.944 28.1892 143.176 28.8184 146.072 27.9751C146.568 27.8278 146.354 27.0515 145.857 27.1987C143.31 27.9349 140.494 27.4531 138.657 25.4453C136.498 23.0895 136.592 19.6629 137.598 16.8252C139.448 11.6451 144.155 8.07127 148.995 5.83594C150.121 5.31392 151.288 4.81866 152.495 4.48403C152.991 4.3368 152.776 3.56045 152.28 3.70769V3.72108Z" fill="#282626"/>
<path d="M159.574 7.1878C156.33 8.39247 153.259 10.4003 150.658 12.6624C146.622 16.1693 141.379 22.7146 145.522 28.0152C147.359 30.3576 150.403 31.1875 153.205 30.3041C153.701 30.1434 153.487 29.3805 152.991 29.5277C150.403 30.3442 147.56 29.5545 145.965 27.279C144.155 24.6957 144.745 21.5367 146.287 18.9802C148.807 14.804 152.709 11.5648 156.987 9.26251C157.885 8.78064 158.81 8.31216 159.775 7.95076C160.258 7.77675 160.044 7.00041 159.561 7.17441L159.574 7.1878Z" fill="#282626"/>
<path d="M166.652 9.08868C163.179 11.0162 159.921 13.6129 157.213 16.5175C153.753 20.2252 149.597 26.717 153.592 31.4821C155.402 33.6372 158.285 34.5072 161.034 34.5206C161.557 34.5206 161.557 33.7175 161.034 33.7175C157.99 33.7041 154.638 32.4994 153.311 29.5413C151.755 26.0611 153.807 22.1393 155.872 19.3551C158.768 15.4734 162.817 12.1405 167.054 9.78472C167.51 9.5304 167.095 8.83437 166.652 9.08868Z" fill="#282626"/>
<path d="M172.298 12.2877C168.959 15.0718 165.835 18.3244 163.328 21.8715C161.679 24.2005 160.19 26.8642 160.002 29.7554C159.828 32.4726 160.914 35.0291 163.18 36.5818C165.875 38.4424 169.455 38.6164 172.566 37.9203C173.076 37.8133 172.861 37.0369 172.352 37.144C169.643 37.7463 166.626 37.6393 164.173 36.2472C161.464 34.7079 160.405 31.7631 160.928 28.7782C161.384 26.1949 162.858 23.8391 164.387 21.7644C165.969 19.6228 167.779 17.6417 169.67 15.7678C170.702 14.7505 171.748 13.76 172.861 12.8365C173.263 12.5018 172.687 11.9396 172.298 12.2743V12.2877Z" fill="#282626"/>
<path d="M179.7 16.5308C177.233 20.2786 174.806 24.0667 172.473 27.8948C171.776 29.0459 171.079 30.1971 170.448 31.3884C170.207 31.8435 170.904 32.245 171.146 31.7899C173.613 27.1586 176.603 22.7683 179.459 18.3645C179.767 17.8827 180.076 17.4008 180.398 16.9323C180.679 16.504 179.982 16.1024 179.7 16.5308Z" fill="#282626"/>
<path d="M185.735 44.68L182.744 50.1278L182.208 51.1049L160.017 91.5148L134.045 72.7755L133.71 72.548L133.374 72.3071L122.675 64.5838L106.504 52.9253L121.79 24.4817L123.385 24.9903L132.329 27.8146L172.299 40.4369L178.387 42.3643L179.419 42.6856L180.626 43.0604L181.162 43.2344L181.404 43.3147L185.735 44.68Z" fill="#FFDE10"/>
<path d="M138.937 71.3701L134.177 72.4409L133.708 72.548L133.346 72.6283L113.569 77.0856L119.133 92.8533L117.833 93.5895L93.4023 67.7962C93.4023 67.7962 93.8716 67.0065 94.2873 67.0333C94.6896 67.06 109.707 72.6684 109.707 72.6684L122.673 64.5838L122.901 64.4499L124.188 63.6468L127.111 61.8264L130.115 64.2491L133.842 67.2608L138.937 71.3701Z" fill="#FFDE10"/>
<path d="M190.962 12.756C190.881 13.0773 190.425 13.2647 190.251 12.8899C190.09 12.5285 189.916 12.1805 189.701 11.8324C189.567 11.6317 189.433 11.4309 189.286 11.2435C187.61 9.00817 184.78 7.36178 182.488 6.21066C177.58 3.78793 172.217 2.39587 166.813 1.63291C161.195 0.816414 155.376 0.428243 149.758 1.40536C142.316 2.71711 133.667 7.2547 132.702 15.5669C132.689 15.6606 132.689 15.7409 132.675 15.8346C132.635 16.263 132.085 16.3433 131.924 16.0622C131.884 16.0086 131.857 15.9283 131.871 15.8346C132.179 12.582 133.936 9.3428 136.161 7.01377C144.099 -1.25829 157.829 -0.629189 168.181 1.03058C173.946 1.95416 179.886 3.58715 184.928 6.63898C186.792 7.77673 188.991 9.32941 190.291 11.2837C190.546 11.6584 190.774 12.06 190.948 12.4749C190.989 12.5686 190.989 12.6757 190.962 12.756Z" fill="#282626"/>
<path d="M181.282 37.7462C183.762 38.469 186.726 38.1612 188.925 36.8226C189.367 36.5549 188.965 35.8589 188.522 36.1266C186.498 37.3447 183.776 37.6258 181.496 36.9699C181 36.8226 180.786 37.599 181.282 37.7462Z" fill="#282626"/>
<path d="M134.176 72.4408C134.136 72.5478 134.096 72.6415 134.055 72.7486C134.055 72.762 134.042 72.7754 134.042 72.7754C133.868 73.11 133.425 72.936 133.345 72.6281C133.304 72.5478 133.318 72.4408 133.358 72.3471C133.358 72.3471 133.363 72.3381 133.372 72.3203C133.372 72.3203 133.385 72.2667 133.385 72.2534C133.439 72.1329 133.479 71.999 133.519 71.8786C133.653 71.4369 133.734 70.9952 133.774 70.5401C134.149 65.2529 127.485 63.5396 123.329 64.6238C123.127 64.6773 122.98 64.5836 122.9 64.4498C122.779 64.249 122.819 63.9278 123.114 63.8474C123.463 63.7538 123.825 63.6868 124.187 63.6467C124.683 63.5797 125.192 63.5396 125.688 63.5262C127.123 63.486 128.692 63.7002 130.113 64.249C131.655 64.8246 133.023 65.8017 133.841 67.2607C133.868 67.2874 133.881 67.3276 133.908 67.3678C134.726 68.8803 134.806 70.8211 134.176 72.4408Z" fill="#282626"/>
<path d="M180.679 42.98C173.452 56.0172 166.225 69.041 158.998 82.0782C157.992 83.8986 156.987 85.7056 155.981 87.526C155.726 87.9811 156.423 88.3826 156.678 87.9275L178.36 48.8293L181.377 43.3815C181.631 42.9264 180.934 42.5249 180.679 42.98Z" fill="#282626"/>
<path d="M102.694 144.252C102.56 143.931 102.332 143.69 102.064 143.489C101.943 143.396 101.34 143.516 101.259 143.61C101.071 143.61 100.884 143.61 100.709 143.663C100.414 143.73 100.119 143.824 99.8378 143.945C99.6903 144.011 99.5428 144.078 99.4087 144.172C99.3283 144.172 99.2344 144.172 99.154 144.199C99.0869 144.226 99.0333 144.252 98.9663 144.279C98.7517 144.346 98.564 144.493 98.5104 144.721C98.5104 144.748 98.5104 144.774 98.497 144.801C98.497 144.815 98.497 144.841 98.4835 144.855C98.4701 144.922 98.4567 144.975 98.4433 145.056C98.4433 145.069 98.4433 145.096 98.4433 145.109C98.3763 145.551 98.3897 145.992 98.497 146.421C98.564 146.675 98.8054 146.876 99.0735 146.903C99.2076 146.97 99.3551 147.037 99.4892 147.077C99.7708 147.17 100.066 147.197 100.347 147.251C100.683 147.304 101.045 147.398 101.38 147.385C102.117 147.358 102.6 146.689 102.814 146.059C103.016 145.47 102.962 144.828 102.707 144.266L102.694 144.252Z" fill="#282626"/>
<path d="M84.9304 143.342C84.8902 142.927 84.7427 142.472 84.327 142.271C84.1125 142.164 83.8577 142.164 83.6566 142.271C83.4555 142.245 83.2409 142.271 83.0532 142.298C82.7314 142.365 82.4096 142.432 82.0878 142.512C81.7794 142.593 81.4308 142.66 81.1626 142.834C80.7738 143.075 80.5995 143.449 80.5727 143.891C80.5458 144.386 80.747 144.841 81.2699 144.962C81.3504 144.975 81.4174 144.989 81.4978 145.015C81.5247 145.015 81.5649 145.042 81.5917 145.042C81.5917 145.042 81.6051 145.042 81.6185 145.042C81.6319 145.042 81.6587 145.056 81.6722 145.069C81.699 145.082 81.7392 145.096 81.766 145.109C81.8331 145.149 81.9135 145.176 81.9805 145.216C82.2755 145.363 82.5705 145.497 82.8923 145.564C83.3214 145.645 83.7773 145.618 84.1527 145.39C84.5013 145.176 84.7427 144.815 84.8634 144.426C84.9706 144.078 84.9706 143.677 84.9304 143.316V143.342Z" fill="#282626"/>
<path d="M79.7674 167.208C78.1986 170.822 76.9248 174.597 75.9192 178.398C74.5381 183.618 72.9157 190.512 75.356 195.665C77.5014 200.163 82.5966 199.828 86.3108 197.526C90.9233 194.675 92.8273 189.749 94.3826 184.81C95.8174 180.219 96.9437 175.507 97.8018 170.782C97.5336 170.742 97.2789 170.715 97.0107 170.675C96.4073 177.662 96.3135 185.439 98.4856 192.172C99.746 196.094 102.709 199.761 107.282 199.52C112.725 199.239 115.581 192.894 116.909 188.437C118.625 182.695 119.658 176.645 120.274 170.675C120.328 170.166 119.524 170.166 119.47 170.675C119.027 175.092 118.277 179.496 117.284 183.819C116.131 188.839 114.227 197.178 108.247 198.583C103.313 199.734 100.189 195.237 99.0354 191.181C97.8688 187.085 97.6141 182.722 97.5739 178.479C97.547 175.882 97.6007 173.272 97.8152 170.675C97.8554 170.233 97.1046 170.126 97.0241 170.568C96.4207 173.874 95.6699 177.153 94.8117 180.393C93.5513 185.171 92.2373 190.873 88.7109 194.568C85.8281 197.593 79.6333 200.738 76.5762 196.201C75.0074 193.858 74.927 190.672 75.0745 187.955C75.2354 185.011 75.8119 182.093 76.536 179.242C77.5416 175.293 78.8288 171.358 80.4647 167.623C80.6658 167.155 79.982 166.74 79.7674 167.222V167.208Z" fill="#282626"/>
<path d="M113.114 265.616C112.953 263.341 113.972 260.664 114.535 258.522C115.622 254.373 116.882 250.277 118.196 246.208C119.684 241.563 121.401 236.918 124.055 232.782C125.825 230.025 131.444 223.212 135.131 227.495C136.378 228.954 135.774 231.712 135.466 233.398C134.93 236.303 134.045 239.154 133.093 241.951C131.578 246.422 129.835 250.852 127.89 255.162C127.676 255.631 128.373 256.032 128.588 255.564C130.398 251.562 132.02 247.466 133.482 243.316C134.554 240.238 135.573 237.106 136.19 233.893C136.552 231.993 137.102 229.409 136.163 227.589C134.031 223.439 128.641 226.224 126.375 228.512C123.586 231.337 121.669 235.004 120.113 238.618C117.955 243.651 116.413 248.965 114.898 254.212C114.026 257.237 113.154 260.289 112.591 263.381C112.457 264.09 112.256 264.893 112.31 265.616C112.35 266.125 113.154 266.138 113.114 265.616Z" fill="#282626"/>
<path d="M124.418 255.216C129.138 256.367 133.456 254.052 137.21 251.522C141.715 248.47 146.046 245.137 150.324 241.791C151.423 240.921 152.522 240.064 153.622 239.181C154.024 238.859 153.448 238.297 153.059 238.618C150.404 240.76 147.709 242.848 144.987 244.909C141.112 247.841 137.183 251.04 132.852 253.289C130.506 254.507 127.248 255.096 124.633 254.453C124.123 254.333 123.922 255.109 124.418 255.229V255.216Z" fill="#282626"/>
<path d="M151.53 234.509C156.049 233.211 161.251 235.553 161.788 240.613C162.096 243.571 160.514 246.515 158.918 248.885C156.827 251.99 154.145 254.707 151.249 257.063C148.004 259.713 144.33 262.002 140.321 263.314C139.825 263.474 140.039 264.251 140.535 264.09C148.098 261.614 155.204 255.845 159.616 249.286C161.318 246.77 162.927 243.611 162.579 240.479C162.244 237.521 160.206 234.844 157.39 233.866C155.499 233.211 153.247 233.184 151.316 233.733C150.82 233.88 151.034 234.656 151.53 234.509Z" fill="#282626"/>
<path d="M161.773 244.039C163.436 243.718 165.3 244.374 166.506 245.512C169.04 247.934 169.014 251.294 167.512 254.212C164.428 260.235 158.273 264.867 152.159 267.477C150.416 268.213 148.11 269.444 146.166 269.511C145.643 269.525 145.643 270.328 146.166 270.314C148.016 270.261 150.027 269.217 151.69 268.534C155.31 267.035 158.528 265.161 161.505 262.604C166.077 258.669 172.781 251.187 167.364 245.244C165.943 243.691 163.65 242.848 161.559 243.249C161.049 243.343 161.264 244.119 161.773 244.026V244.039Z" fill="#282626"/>
<path d="M174.309 259.968C174.242 260.249 174.161 260.53 174.054 260.811C172.834 264.585 169.817 268.106 167.055 270.207C163.609 272.858 159.291 274.491 155.175 275.816C153.056 276.498 150.871 277.114 148.658 277.462C148.149 277.542 147.934 276.766 148.444 276.686C150.589 276.351 152.721 275.749 154.786 275.093C161.892 272.844 169.106 269.484 172.458 262.417C172.82 261.654 173.142 260.824 173.397 259.968C173.397 259.954 173.41 259.927 173.41 259.901C173.893 258.107 173.987 256.206 173.249 254.466C172.579 252.86 171.05 251.548 169.254 251.548C169.16 251.548 169.052 251.548 168.959 251.562C168.476 251.602 168.449 250.919 168.851 250.785C168.878 250.772 168.918 250.759 168.959 250.759C169.093 250.759 169.227 250.759 169.361 250.759C170.796 250.785 172.096 251.535 173.021 252.606C173.035 252.619 173.062 252.646 173.062 252.659C173.41 253.074 173.705 253.529 173.92 254.011C173.947 254.051 173.96 254.078 173.973 254.118C174.791 256.006 174.818 258.013 174.309 259.981V259.968Z" fill="#282626"/>
<path d="M176.643 266.634C176.267 269.98 174.779 272.925 172.66 275.441C172.472 275.655 172.285 275.883 172.084 276.084C171.668 276.539 171.225 276.98 170.77 277.409C170.568 277.596 170.367 277.783 170.153 277.971C169.737 278.319 169.321 278.667 168.879 278.975C168.664 279.162 168.45 279.323 168.235 279.47C167.927 279.698 167.605 279.925 167.283 280.126C167.055 280.287 166.827 280.434 166.6 280.581C163.609 282.468 160.324 283.86 157.254 284.73C150.898 286.511 144.288 287.541 137.758 288.425C137.691 288.438 137.624 288.438 137.557 288.452C137.047 288.518 137.061 287.715 137.557 287.648H137.584C139.729 287.354 142.572 286.912 144.918 286.511C152.856 285.159 161.183 283.74 167.779 278.801C167.833 278.761 167.873 278.72 167.927 278.68C168.074 278.573 168.222 278.466 168.369 278.346C171.909 275.521 175.074 271.533 175.798 266.995C176.12 264.92 175.717 262.27 174.055 260.811C173.907 260.664 173.733 260.543 173.559 260.423C173.384 260.316 173.344 260.128 173.398 259.968C173.398 259.954 173.411 259.928 173.411 259.901C173.505 259.713 173.733 259.58 173.974 259.727C174.095 259.807 174.202 259.887 174.309 259.968C176.254 261.48 176.911 264.305 176.643 266.634Z" fill="#282626"/>
<path d="M171.307 289.281C171.307 289.281 171.267 289.335 171.226 289.348C168.96 290.325 166.708 291.302 164.455 292.293C154.587 296.576 144.718 300.86 134.849 305.143C128.655 307.833 122.46 310.51 116.265 313.201C116.077 313.281 115.809 313.268 115.715 313.067C115.072 311.621 114.415 310.202 113.771 308.77C113.704 308.636 113.651 308.489 113.583 308.355C113.369 307.887 114.066 307.472 114.281 307.94C114.334 308.047 114.375 308.154 114.428 308.262C115.032 309.627 115.648 310.979 116.252 312.331C118.384 311.407 120.502 310.497 122.621 309.573C132.489 305.29 142.358 301.007 152.227 296.723C158.314 294.087 164.388 291.436 170.489 288.799C169.188 286.055 167.901 283.325 166.601 280.581C166.547 280.46 166.48 280.327 166.426 280.206C166.212 279.738 166.909 279.323 167.123 279.791C167.177 279.898 167.231 280.019 167.284 280.126C168.585 282.883 169.872 285.614 171.173 288.358C171.24 288.505 171.307 288.652 171.374 288.799C171.441 288.947 171.441 289.161 171.307 289.281Z" fill="#282626"/>
<path d="M149.371 242.125C145.187 233.184 141.004 224.243 136.82 215.301L135.037 211.487C134.943 211.272 134.675 211.259 134.487 211.339C128.413 213.909 122.339 216.493 116.265 219.063C106.571 223.172 96.89 227.281 87.1957 231.39C84.9565 232.341 82.7173 233.291 80.478 234.241C80.2635 234.335 80.2501 234.616 80.3306 234.79C84.9431 244.99 89.5422 255.176 94.1547 265.375C94.8117 266.834 95.4687 268.28 96.1257 269.739C96.3403 270.207 97.0375 269.806 96.823 269.337C92.2104 259.138 87.6113 248.952 82.9988 238.752C82.3418 237.293 81.6848 235.848 81.0278 234.389C80.9742 234.576 80.9339 234.75 80.8803 234.937C86.9543 232.367 93.0284 229.784 99.1024 227.214C108.797 223.105 118.478 218.996 128.172 214.886C130.411 213.936 132.65 212.986 134.89 212.035C134.702 211.982 134.528 211.942 134.34 211.888C138.523 220.829 142.707 229.771 146.89 238.712L148.673 242.527C148.888 242.995 149.585 242.594 149.371 242.125Z" fill="#282626"/>
<path d="M81.0408 234.804C82.1671 232.702 83.28 230.601 84.4063 228.499C84.527 228.258 84.6611 227.857 84.8622 227.656C84.7549 227.763 84.7013 227.83 84.8622 227.723C85.1304 227.549 85.5058 227.442 85.8142 227.321C89.4613 225.769 93.095 224.202 96.7421 222.65C107.777 217.925 118.812 213.213 129.848 208.488C132.65 207.284 135.466 206.092 138.268 204.888C138.08 204.834 137.906 204.794 137.718 204.74C142.197 214.779 146.662 224.832 151.14 234.87C151.77 236.276 152.387 237.681 153.017 239.087C153.232 239.555 153.916 239.154 153.715 238.685C149.236 228.646 144.771 218.594 140.293 208.555C139.663 207.15 139.046 205.744 138.416 204.339C138.322 204.125 138.04 204.111 137.866 204.192C130.33 207.417 122.781 210.643 115.232 213.869C105.471 218.045 95.6962 222.221 85.9349 226.411C85.2376 226.705 84.5136 226.866 84.0711 227.468C83.2532 228.566 82.7034 230.038 82.0464 231.243C81.4833 232.287 80.9201 233.345 80.3704 234.389C80.129 234.844 80.8262 235.245 81.0676 234.79L81.0408 234.804Z" fill="#282626"/>
<path d="M176.563 284.985C174.807 286.417 173.064 287.849 171.307 289.281C171.079 289.469 170.798 289.362 170.677 289.188C170.65 289.148 170.637 289.121 170.624 289.094C170.57 288.974 170.597 288.826 170.731 288.719C170.758 288.706 170.771 288.679 170.798 288.666C170.798 288.666 170.807 288.661 170.825 288.652C170.945 288.545 171.053 288.451 171.173 288.358C171.562 288.05 171.938 287.729 172.326 287.407C172.541 287.247 172.755 287.073 172.97 286.899C173.345 286.591 173.708 286.283 174.083 285.989C174.297 285.815 174.499 285.641 174.713 285.467C175.075 285.172 175.437 284.878 175.799 284.583C174.552 281.759 173.332 278.908 172.085 276.084C172.072 276.043 172.058 276.017 172.045 275.976C171.871 275.562 172.407 275.173 172.662 275.441C172.688 275.468 172.715 275.508 172.742 275.562C174.043 278.546 175.33 281.531 176.631 284.503C176.698 284.663 176.711 284.864 176.563 284.985Z" fill="#282626"/>
<path d="M83.9752 229.035C96.1769 224.055 108.365 219.076 120.567 214.097C123.999 212.691 127.432 211.299 130.865 209.894C132.742 209.131 134.901 208.528 136.67 207.524C136.791 207.458 137.046 207.431 137.126 207.337C137.126 207.337 136.845 206.989 136.791 207.257C136.711 207.739 137.609 209.091 137.81 209.519C139.299 212.838 140.787 216.171 142.289 219.491C145.225 226.023 148.148 232.555 151.085 239.087C151.299 239.555 151.983 239.154 151.782 238.685C147.598 229.369 143.428 220.053 139.245 210.724C138.642 209.385 138.052 208.047 137.448 206.708C137.381 206.561 137.14 206.467 136.992 206.521C131.012 208.957 125.032 211.393 119.065 213.842C109.518 217.737 99.9715 221.633 90.4247 225.528C88.2123 226.438 85.9999 227.335 83.7741 228.245C83.3048 228.432 83.5059 229.209 83.9886 229.021L83.9752 229.035Z" fill="#282626"/>
<path d="M82.7955 231.256C94.6218 226.451 106.448 221.632 118.274 216.827L134.847 210.081C135.102 209.974 136 209.786 135.544 209.612C135.115 209.452 135.451 209.666 135.491 209.907C135.544 210.255 135.839 210.683 135.987 211.018C137.341 214.07 138.709 217.135 140.063 220.187C142.946 226.652 145.815 233.117 148.698 239.582C148.913 240.05 149.596 239.649 149.395 239.18C145.507 230.426 141.605 221.686 137.717 212.932C137.153 211.66 136.59 210.389 136.014 209.117C135.947 208.97 135.705 208.876 135.558 208.93C120.071 215.234 104.571 221.539 89.0841 227.843C86.9253 228.727 84.7532 229.61 82.5944 230.48C82.1251 230.667 82.3262 231.444 82.8089 231.256H82.7955Z" fill="#282626"/>
<path d="M169.897 277.462C171.157 280.046 172.431 282.615 173.691 285.199C173.866 285.56 174.053 285.935 174.228 286.296C174.456 286.765 175.153 286.35 174.925 285.895L171.13 278.158C170.956 277.797 170.768 277.422 170.594 277.061C170.366 276.592 169.669 277.007 169.897 277.462Z" fill="#282626"/>
<path d="M167.968 278.948C169.295 281.518 170.623 284.074 171.937 286.644C172.124 287.006 172.312 287.367 172.486 287.715C172.728 288.17 173.412 287.769 173.184 287.314C171.856 284.744 170.529 282.187 169.215 279.617C169.027 279.256 168.839 278.894 168.665 278.546C168.424 278.091 167.74 278.493 167.968 278.948Z" fill="#282626"/>
<path d="M70.3422 228.78C70.2751 228.834 70.1679 228.834 70.0606 228.793C68.7063 228.258 67.3253 227.763 65.9576 227.281C49.6395 221.619 31.5917 217.349 14.2546 219.263C13.9328 219.29 13.8121 218.995 13.9059 218.755C13.9328 218.661 13.9998 218.567 14.0937 218.514C14.1339 218.487 14.1875 218.46 14.2546 218.46C19.9532 217.831 25.7188 217.951 31.4174 218.527C44.5845 219.839 57.9662 223.118 70.2751 228.017C70.3019 228.031 70.3153 228.03 70.3288 228.057C70.6371 228.218 70.5969 228.66 70.3422 228.78Z" fill="#282626"/>
<path d="M19.0406 215.448C25.8923 214.538 32.7709 213.735 39.6494 213.133C41.8216 212.945 44.0072 212.771 46.1793 212.664C47.7615 212.584 49.5046 212.798 51.06 212.464C51.6768 212.33 52.3606 211.995 51.8913 211.299C51.3282 210.469 49.4644 210.175 48.6063 209.947C42.9479 208.421 36.847 207.765 30.9875 207.979C30.478 207.993 30.4646 208.796 30.9875 208.783C36.0023 208.595 41.0841 209.131 45.9916 210.161C47.547 210.483 49.2767 210.79 50.7248 211.5C50.8857 211.58 51.0734 211.647 51.2075 211.767C51.2477 211.794 51.422 211.647 51.0868 211.674C50.3628 211.727 49.6521 211.808 48.9147 211.808C41.178 211.901 33.4011 212.919 25.7314 213.829C23.5056 214.097 21.2798 214.364 19.054 214.672C18.5445 214.739 18.5445 215.542 19.054 215.475L19.0406 215.448Z" fill="#282626"/>
<path d="M70.2463 225.059C70.4072 230.989 70.5547 236.918 70.7156 242.848C70.7424 243.705 70.7558 244.561 70.7826 245.405C70.796 245.927 71.6005 245.927 71.5871 245.405C71.4262 239.475 71.2787 233.545 71.1178 227.616C71.091 226.759 71.0776 225.902 71.0508 225.059C71.0374 224.537 70.2329 224.537 70.2463 225.059Z" fill="#282626"/>
<path d="M137.852 288.331C137.852 288.331 137.798 288.398 137.758 288.425C137.061 289.201 136.323 289.924 135.572 290.647C129.726 296.228 123.344 301.275 117.002 306.254C116.143 306.923 115.285 307.592 114.427 308.262C114.213 308.436 113.985 308.61 113.77 308.77C106.422 314.459 98.927 319.96 91.2439 325.194C84.285 329.919 77.1114 334.778 69.3211 338.057C61.8392 341.203 53.6734 342.956 45.6015 343.679C36.8056 344.455 27.5403 343.96 19.2941 340.6C11.0882 337.267 4.83981 330.95 2.01063 322.517C-0.604025 314.673 -0.188362 305.933 0.57592 297.821C1.52792 287.782 3.41851 277.837 5.65773 268.012C8.08466 257.304 10.9138 246.623 14.2257 236.142C14.6682 234.763 15.1107 233.385 15.5666 232.019C15.58 231.979 15.5934 231.926 15.6068 231.886C15.6873 231.645 15.9152 231.564 16.1029 231.618C16.2638 231.658 16.3979 231.779 16.4113 231.953C16.4113 231.993 16.3979 232.046 16.3845 232.1C16.304 232.327 16.2236 232.568 16.1566 232.796C11.7854 246.261 8.11148 260.008 5.20184 273.862C3.19057 283.445 1.51451 293.177 1.00499 302.988C0.562511 311.327 0.884314 320.081 5.10798 327.536C14.3866 343.933 36.524 344.83 53.003 341.885C60.3777 340.56 67.5512 338.365 74.175 334.831C82.5016 330.374 90.3456 324.966 98.0286 319.492C106.355 313.549 114.508 307.338 122.445 300.886C127.514 296.777 132.917 292.654 137.275 287.769C137.356 287.675 137.45 287.635 137.557 287.648H137.584C137.865 287.675 138.093 288.05 137.852 288.331Z" fill="#282626"/>
<path d="M62.658 239.823C60.5797 252.994 58.4745 266.152 56.289 279.296C55.699 282.816 55.1224 286.336 54.4922 289.843C54.3984 290.352 55.1761 290.566 55.2699 290.058C57.9784 275.133 60.2444 260.115 62.6312 245.137C62.8993 243.437 63.1675 241.737 63.4357 240.037C63.5161 239.528 62.7384 239.314 62.658 239.823Z" fill="#282626"/>
<path d="M33.5728 303.657C37.3137 300.766 41.3765 298.236 45.399 295.76C57.0108 288.585 69.1588 282.281 81.5349 276.525C91.9532 271.68 102.559 267.249 113.299 263.153C113.782 262.966 113.568 262.19 113.085 262.377C95.9221 268.922 79.0811 276.311 62.8435 284.904C53.9939 289.589 45.265 294.595 36.9919 300.244C35.7047 301.127 34.4041 302.011 33.1705 302.974C32.7683 303.282 33.1705 303.978 33.5728 303.67V303.657Z" fill="#282626"/>
<path d="M162.307 135.806C165.794 142.097 170.151 148 174.724 153.542C182.071 162.47 190.639 170.795 200.897 176.35C202.694 177.327 204.571 178.291 206.528 178.92C207.025 179.081 207.239 178.304 206.743 178.144C200.91 176.27 195.426 172.308 190.72 168.52C181.401 161.024 173.557 151.628 166.947 141.709C165.566 139.648 164.211 137.56 163.018 135.391C162.763 134.936 162.066 135.338 162.321 135.793L162.307 135.806Z" fill="#282626"/>
<path d="M160.111 136.797C159.843 140.076 161.13 143.637 162.591 146.501C164.844 150.918 168.102 154.894 170.958 158.936C172.165 160.649 173.385 162.363 174.485 164.156C174.82 164.692 175.169 165.254 175.423 165.83C175.504 166.004 175.665 166.271 175.651 166.472C175.651 166.512 175.893 166.512 175.571 166.392C174.418 165.95 173.372 165.013 172.42 164.263C170.864 163.032 169.376 161.707 167.901 160.368C164.951 157.665 161.599 154.787 159.427 151.387C159.145 150.959 158.448 151.36 158.73 151.788C160.808 155.014 163.905 157.745 166.694 160.342C168.29 161.827 169.926 163.286 171.629 164.652C172.675 165.495 173.801 166.499 175.048 167.034C177.837 168.239 175.316 163.956 174.887 163.273C172.192 159.016 169.095 155.014 166.252 150.865C163.503 146.849 160.5 141.883 160.915 136.797C160.956 136.288 160.151 136.288 160.111 136.797Z" fill="#282626"/>
<path d="M173.209 201.688C173.276 201.889 173.209 202.117 172.968 202.197C171.922 202.585 170.849 202.92 169.777 203.228C168.825 203.495 167.832 203.763 166.84 203.937C165.928 204.111 165.003 204.232 164.091 204.232C163.568 204.232 163.568 203.442 164.091 203.429C164.668 203.429 165.258 203.375 165.835 203.295C166.022 203.281 166.197 203.241 166.384 203.214C167.497 203.027 168.597 202.732 169.669 202.425C170.715 202.117 171.748 201.796 172.753 201.421C172.995 201.327 173.182 201.488 173.209 201.688Z" fill="#282626"/>
<path d="M96.056 175.293C94.9699 190.057 95.6404 205.102 97.008 219.812C97.0616 220.321 97.8662 220.321 97.8125 219.812C96.4449 205.102 95.761 190.057 96.8605 175.293C96.9007 174.771 96.0962 174.784 96.056 175.293Z" fill="#282626"/>
<path d="M129.137 227.268C130.036 226.946 131.001 227.348 131.511 228.124C132.396 229.476 132.074 231.123 131.578 232.555C130.545 235.593 127.81 239.676 124.082 239.14C122.675 238.94 121.615 237.628 122.098 236.209C122.259 235.714 121.495 235.513 121.32 235.995C120.851 237.36 121.535 238.926 122.809 239.582C124.605 240.492 126.885 239.796 128.387 238.618C130.063 237.307 131.283 235.419 132.074 233.465C132.758 231.805 133.227 229.838 132.422 228.151C131.806 226.853 130.344 225.969 128.896 226.491C128.413 226.665 128.628 227.442 129.111 227.268H129.137Z" fill="#282626"/>
<path d="M220.342 328.714C217.901 319.96 214.911 311.38 211.559 302.948C204.345 284.824 195.724 266.928 185.533 250.263C185.52 250.237 185.506 250.223 185.506 250.197C185.319 249.782 185.962 249.447 186.217 249.862C186.231 249.875 186.244 249.902 186.257 249.915C187.317 251.642 188.322 253.396 189.328 255.162C202.495 278.252 213.959 302.854 221.119 328.5C221.253 328.995 220.476 329.209 220.342 328.714Z" fill="#282626"/>
<path d="M219.67 99.0104C218.356 98.6891 216.989 98.5419 215.648 98.5017C213.516 98.4214 211.062 98.6623 209.373 100.095C209.265 100.161 209.158 100.255 209.064 100.349C208.809 100.59 208.461 100.402 208.394 100.148C208.367 100.054 208.367 99.9607 208.407 99.8804C208.434 99.8402 208.461 99.8001 208.488 99.7733C208.635 99.6261 208.796 99.4922 208.97 99.3584C210.754 97.9529 213.194 97.6451 215.406 97.6852C216.895 97.712 218.423 97.886 219.871 98.2474C220.381 98.3679 220.166 99.1442 219.67 99.0104Z" fill="#282626"/>
<path d="M254.075 103.013C251.702 103.695 249.235 104.779 247.344 106.372C246.674 106.948 246.057 107.63 245.708 108.434C245.507 108.902 246.191 109.317 246.406 108.835C247.036 107.416 248.39 106.466 249.691 105.716C250.884 105.034 252.171 104.485 253.472 104.03C253.74 103.936 254.008 103.842 254.29 103.762C254.786 103.615 254.571 102.839 254.075 102.986V103.013Z" fill="#282626"/>
<path d="M29.647 332.315C29.1643 334.376 28.105 336.558 26.5094 337.977C25.839 338.566 25.0613 338.994 24.1898 339.195C23.6803 339.315 23.8948 340.092 24.4043 339.971C27.4883 339.262 29.2716 336.143 30.1834 333.359C30.2772 333.091 30.3577 332.81 30.4247 332.542C30.5454 332.034 29.7677 331.82 29.647 332.328V332.315Z" fill="#282626"/>
</svg>
