<svg width="334" height="310" viewBox="0 0 334 310" fill="none" xmlns="http://www.w3.org/2000/svg">
<g clip-path="url(#clip0_212_746)">
<path d="M0.609131 202.417C1.62247 209.845 4.23877 217.032 8.73434 223.073C14.188 230.408 21.9079 235.599 30.2358 239.147C41.4932 243.95 53.8745 246.315 65.9794 247.996C67.2138 250.103 68.7246 251.267 68.7246 251.267L148.484 309.224C157.144 312.698 165.251 303.423 165.251 303.423C165.251 303.423 178.94 286.185 196.72 263.664C199.373 265.733 202.247 267.266 205.748 267.229C210.52 267.174 215.052 265.16 217.097 260.671C217.245 260.615 217.392 260.56 217.54 260.504C220.727 259.174 223.491 256.126 224.136 252.652C225.867 252.357 227.544 251.747 229.018 250.731C231.763 248.846 233.624 245.853 234.011 242.565C239.096 240.68 242.099 235.618 242.136 230.112C242.155 224.606 238.875 218.879 234.343 215.812C234.343 215.794 234.306 215.794 234.287 215.794C240.054 208.403 245.582 201.253 250.648 194.695C250.648 194.695 250.655 194.707 250.667 194.732C256.673 201.494 263.159 208.089 271.008 212.69C278.875 217.29 287.792 219.341 296.876 219.064C301.832 218.898 306.751 218.14 311.578 217.013C315.098 216.182 318.727 215.35 321.878 213.503C326.447 210.824 329.487 206.427 331.293 201.512C333.706 194.898 334.112 187.619 333.983 180.653C333.817 171.101 332.527 161.587 330.906 152.183C327.239 130.751 321.675 109.966 313.753 89.717C310.823 82.2529 307.783 74.6225 303.674 67.6942C300.487 62.3363 295.402 57.9207 289.856 55.057C290.445 54.706 291.035 54.281 291.662 53.7822C298.276 48.4797 301.15 39.4268 299.934 23.5009C299.289 15.15 295.42 8.86831 290.059 5.83834C286.079 3.56585 281.399 3.47348 277.235 5.5612C276.59 5.89376 275.982 6.26327 275.429 6.68821L271.671 7.26095C271.671 7.26095 271.652 7.224 271.652 7.20552C270.971 5.2656 269.313 3.91689 267.581 2.91921C264.909 1.38575 261.777 0.369596 258.663 0.665204C256.987 0.813007 255.439 1.31185 254.039 2.06934C252.436 0.332645 249.617 -0.147717 247.387 0.0370374C244.458 0.295694 241.952 1.4966 239.815 3.28872C237.751 1.53355 233.993 1.90306 231.671 2.4019C229.7 2.82683 227.82 3.80603 226.125 5.08084C224.246 3.84299 221.372 4.02774 219.345 4.41573C216.803 4.91456 214.426 6.06004 212.344 7.59351C212.289 7.63046 212.252 7.64893 212.215 7.68588C211.183 8.4249 210.225 9.2563 209.359 10.1616C207.498 12.083 205.545 14.7435 205.472 17.5333L202.155 18.0322C202.155 18.0322 201.142 18.1984 199.797 19.27C199.797 19.27 199.613 18.6049 198.71 18.3093C198.71 18.3093 196.057 16.5726 192.206 16.9975C194.785 11.769 192.63 8.2771 187.784 7.83369C181.427 7.26095 173.339 19.4363 169.286 20.009C165.251 20.6002 157.144 19.4363 153.68 28.1198C150.382 36.4152 152.317 42.5676 156.02 45.653C155.173 45.9855 154.38 46.4659 153.699 47.0571C149.019 45.7638 144.21 44.9694 139.364 44.7107C117.808 43.5098 96.4904 51.9901 78.9871 64.0915C70.0512 70.2808 61.8338 77.5971 54.722 85.8371C46.9652 94.8532 40.7746 105.181 34.1971 115.065C17.0254 140.857 -3.81277 169.494 0.609131 202.417Z" fill="white"/>
<path d="M197.862 51.2142C197.273 51.8239 196.444 52.2489 195.688 52.5999C193.477 53.5976 191.045 53.9301 188.632 53.9486C187.858 53.9486 187.858 52.7477 188.632 52.7477C190.824 52.7477 193.127 52.4706 195.154 51.5468C195.67 51.3066 196.167 51.0295 196.628 50.6969C196.665 50.66 196.72 50.6415 196.757 50.6046C196.72 50.6415 196.609 50.7154 196.757 50.6046C196.812 50.5676 196.849 50.5306 196.904 50.4752C196.941 50.4383 196.996 50.4013 197.033 50.3644C197.567 49.8101 198.415 50.66 197.881 51.2142H197.862Z" fill="#282626"/>
<path d="M114.639 172.746C114.805 172.543 114.952 172.339 115.118 172.136C144.781 134.465 176.803 94.1882 176.803 94.1882C176.803 94.1882 183.16 85.5047 195.301 90.142C207.443 94.7794 274.49 145.199 274.49 145.199C274.49 145.199 281.418 149.836 275.632 160.848C273.993 163.989 264.338 176.903 251.367 193.753C251.128 194.067 250.888 194.381 250.649 194.695C245.582 201.254 240.055 208.404 234.288 215.794C234.067 216.089 233.827 216.385 233.588 216.699C232.224 218.436 230.879 220.172 229.497 221.928C229.387 222.075 229.276 222.205 229.166 222.353C227.655 220.985 225.168 218.473 221.759 214.242L222.109 213.798L262.348 162.012C269.847 152.146 267.544 149.781 264.651 147.527C261.206 144.829 250.206 137.661 250.206 137.661C250.206 137.661 249.046 138.825 246.153 141.134C243.279 143.462 238.065 139.398 238.065 139.398C238.065 139.398 210.907 122.603 208.014 120.276C205.122 117.966 205.711 115.638 205.711 115.638L209.175 110.428C209.175 110.428 201.087 104.054 193.569 99.9895C186.052 95.9433 180.856 103.481 180.856 103.481C180.856 103.481 153.588 138.104 127.038 172.025C126.891 172.229 126.725 172.413 126.578 172.617C126.523 172.69 126.486 172.746 126.43 172.82L114.289 173.189C114.418 173.041 114.528 172.894 114.639 172.746ZM80.6823 249.031C80.9402 249.216 81.2534 249.438 81.6404 249.696C91.8291 256.846 143.842 293.261 149.056 295.885C154.841 298.786 162.358 290.675 162.358 290.675L189.092 256.255L189.516 255.719C191.34 257.807 194.177 260.818 197.199 263.054C197.033 263.257 196.886 263.46 196.72 263.664C178.94 286.185 165.251 303.423 165.251 303.423C165.251 303.423 157.144 312.698 148.485 309.224L68.7248 251.267C68.7248 251.267 67.214 250.103 65.9795 247.996C65.8505 247.775 65.7216 247.553 65.611 247.331C70.6409 248.052 75.6892 248.625 80.6823 249.031Z" fill="#282626"/>
<path d="M253.375 153.033L247.59 165.208L242.965 160.571L226.641 170.51C224.633 170.75 218.553 171.748 210.593 175.148V158.261L173.597 178.547L174.168 155.36L145.849 172.746H129.083L182.256 140.284V165.208L216.931 148.986L215.771 168.7L239.464 157.116L236.001 152.478L253.338 153.051L253.375 153.033Z" fill="#FFDE10"/>
<path d="M156.166 247.091L168.436 256.199C168.436 256.199 171.9 259.673 169.008 263.737C166.115 267.802 158.598 275.322 158.598 275.322C158.598 275.322 154.544 277.631 149.92 274.158C145.295 270.684 114.176 250.176 114.176 250.176C114.176 250.176 149.68 250.749 156.166 247.091Z" fill="#FFDE10"/>
<path d="M166.133 189.337C169.45 188.782 172.785 188.247 176.101 187.692C176.58 187.618 177.059 187.526 177.538 187.452C178.294 187.323 178.625 188.487 177.851 188.616C174.535 189.17 171.2 189.706 167.884 190.26C167.405 190.334 166.926 190.427 166.447 190.501C165.691 190.63 165.36 189.466 166.133 189.337Z" fill="#282626"/>
<path d="M173.818 188.173C177.116 185.106 181.132 182.575 185.26 180.82C189.313 179.101 194.638 178.288 198.709 180.542C199.391 180.912 198.783 181.947 198.101 181.577C194.103 179.36 188.871 180.487 184.983 182.242C181.28 183.923 177.669 186.233 174.665 189.004C174.094 189.522 173.247 188.672 173.818 188.154V188.173Z" fill="#282626"/>
<path d="M197.087 180.616C206.17 176.219 215.806 172.118 225.645 169.9C230.601 168.792 236.202 167.868 239.998 172.044C246.096 178.75 235.76 186.048 230.638 188.838C223.655 192.644 215.972 195.471 208.344 197.651C207.607 197.854 207.276 196.708 208.031 196.487C213.761 194.842 219.436 192.792 224.871 190.353C229.09 188.45 233.402 186.307 236.828 183.11C239.647 180.468 242.264 176.367 239.168 172.893C235.483 168.755 229.532 170.178 224.816 171.342C219.03 172.764 213.411 174.87 207.902 177.143C204.457 178.565 201.03 180.043 197.676 181.669C196.995 182.002 196.387 180.967 197.068 180.635L197.087 180.616Z" fill="#282626"/>
<path d="M207.147 194.436C213.08 202.362 219.031 210.325 225.48 217.863C226.548 219.119 227.82 221.041 229.331 221.817C230.012 222.168 229.404 223.202 228.723 222.851C227.414 222.186 226.346 220.671 225.388 219.581C223.49 217.419 221.684 215.184 219.897 212.93C216.083 208.145 212.343 203.286 208.658 198.408C207.811 197.281 206.963 196.173 206.116 195.046C205.655 194.436 206.687 193.826 207.147 194.436Z" fill="#282626"/>
<path d="M198.839 214.242C201.013 217.475 203.353 220.616 205.767 223.683C209.728 228.763 213.929 233.77 218.811 237.983C222.643 241.29 226.807 244.172 232.058 243.137C232.298 243.1 232.519 243.045 232.74 242.971C233.182 242.879 233.606 242.731 234.011 242.564C239.097 240.68 242.1 235.618 242.137 230.112C242.155 224.606 238.875 218.879 234.343 215.812C234.343 215.794 234.306 215.794 234.288 215.794C233.753 215.461 233.238 216.218 233.588 216.699C233.625 216.754 233.68 216.81 233.753 216.847C238.857 220.32 241.989 227.193 240.571 233.29C239.723 236.837 237.144 239.978 233.864 241.419C233.551 241.567 233.238 241.696 232.906 241.789C231.119 242.398 229.166 242.491 227.194 241.881C222.441 240.421 218.443 236.246 215.108 232.754C209.488 226.897 204.403 220.375 199.889 213.632C199.447 212.985 198.415 213.595 198.839 214.242Z" fill="#282626"/>
<path d="M190.955 224.551C192.226 226.971 193.645 229.318 195.118 231.627C197.735 235.71 200.572 239.682 203.833 243.267C206.8 246.555 210.245 249.807 214.409 251.451C217.007 252.504 220.01 253.059 222.884 252.8C223.308 252.782 223.732 252.726 224.137 252.652C225.869 252.357 227.546 251.747 229.02 250.731C231.765 248.846 233.626 245.853 234.013 242.565L234.068 241.899C234.086 241.678 233.994 241.511 233.865 241.419C233.552 241.197 232.999 241.327 232.907 241.789C232.889 241.826 232.87 241.863 232.87 241.899C232.852 242.269 232.797 242.62 232.741 242.971C232.041 247.036 228.817 250.306 224.8 251.303C224.395 251.396 224.008 251.488 223.621 251.544C223.511 251.562 223.4 251.581 223.29 251.599C214.022 252.929 206.505 245.077 201.291 238.352C197.808 233.844 194.639 228.985 191.986 223.941C191.636 223.258 190.604 223.867 190.955 224.551Z" fill="#282626"/>
<path d="M183.069 231.756C184.377 233.881 185.759 235.987 187.16 238.057C192.06 245.244 197.459 253.133 204.608 258.269C207.74 260.523 211.701 261.89 215.496 261.114C216.031 261.022 216.565 260.874 217.099 260.671C217.247 260.615 217.394 260.56 217.542 260.504C220.729 259.174 223.493 256.126 224.138 252.652C224.156 252.541 224.174 252.412 224.193 252.283C224.248 251.876 223.935 251.581 223.622 251.544C223.511 251.562 223.401 251.581 223.29 251.599C223.161 251.655 223.069 251.784 223.051 251.969C223.014 252.246 222.958 252.523 222.885 252.8C222.111 255.978 219.55 258.527 216.491 259.599C216.473 259.599 216.455 259.599 216.436 259.618C215.404 259.969 214.299 260.172 213.212 260.153C208.643 260.098 204.884 257.308 201.715 254.26C198.62 251.267 195.856 247.904 193.258 244.486C189.997 240.2 186.902 235.747 184.101 231.147C183.696 230.482 182.664 231.091 183.069 231.756Z" fill="#282626"/>
<path d="M165.158 235.784C168.106 235.193 171.053 234.602 174.001 234.011C174.425 233.918 174.849 233.844 175.273 233.752C176.028 233.604 176.341 234.75 175.586 234.916C172.638 235.507 169.69 236.098 166.742 236.69C166.318 236.782 165.895 236.856 165.471 236.948C164.715 237.096 164.402 235.95 165.158 235.784Z" fill="#282626"/>
<path d="M172.545 231.997C172.932 232.699 173.338 233.382 173.761 234.066C173.946 234.417 174.167 234.786 174.388 235.137C175.106 236.357 175.862 237.558 176.617 238.759C180.376 244.708 184.392 250.86 189.09 256.255C191.062 258.527 193.162 260.652 195.392 262.573C195.834 262.943 196.276 263.313 196.718 263.664C199.371 265.733 202.246 267.266 205.746 267.229C210.518 267.174 215.051 265.16 217.096 260.67C217.114 260.615 217.151 260.56 217.169 260.504C217.409 259.987 216.893 259.525 216.488 259.599C216.469 259.599 216.451 259.599 216.432 259.617C216.322 259.654 216.211 259.747 216.138 259.913C215.953 260.338 215.732 260.726 215.493 261.114C212.84 265.345 207.018 267.192 202.246 265.53C198.413 264.199 195.244 261.022 192.517 258.139C189.109 254.518 186.069 250.527 183.195 246.463C180.542 242.712 177.999 238.851 175.622 234.897C175.401 234.546 175.198 234.177 174.996 233.807C174.498 233.013 174.038 232.2 173.577 231.387C173.19 230.703 172.158 231.313 172.545 231.997Z" fill="#282626"/>
<path d="M236.647 174.02C234.878 171.84 231.175 172.136 228.743 172.764C226.035 173.466 222.921 175.369 222.147 178.251C221.428 180.912 223.51 182.907 226.016 183.11C228.596 183.332 231.322 182.482 233.589 181.263C235.044 180.487 236.463 179.397 237.108 177.826C237.66 176.459 237.421 175.055 236.555 173.891C236.094 173.281 237.126 172.672 237.587 173.281C239.742 176.164 238.103 179.655 235.468 181.521C232.999 183.258 229.664 184.385 226.624 184.33C223.713 184.293 220.876 182.575 220.802 179.36C220.728 175.942 223.953 173.318 226.827 172.136C228.835 171.305 231.138 171.009 233.312 171.212C234.897 171.36 236.463 171.877 237.495 173.152C237.974 173.743 237.126 174.593 236.647 174.002V174.02Z" fill="#282626"/>
<path d="M190.935 32.2027C191.285 32.9233 191.764 33.5515 192.335 34.0318C194.343 35.7131 196.351 35.011 197.77 34.0318C198.949 33.2004 199.705 32.1843 199.705 32.1843V30.5215L199.723 30.2443L199.797 19.2699C199.797 19.2699 199.613 18.6048 198.71 18.3092H198.618L198.176 18.2168C197.328 18.106 196.057 18.3277 194.177 19.2699C190.032 21.3392 188.945 28.249 190.935 32.2027Z" fill="#282626"/>
<path d="M195.392 30.7063C195.429 30.8911 195.485 31.0758 195.54 31.2421C195.613 31.4638 195.687 31.667 195.761 31.8703C196.387 33.3114 197.253 34.0319 197.253 34.0319H197.769L253.319 33.1081H254.314C256.285 29.3576 258.828 26.4015 261.905 24.8681C262.642 24.4986 263.397 24.2029 264.19 24.0182C265.203 23.7595 266.29 23.6487 267.414 23.7041C267.727 23.7226 268.04 23.7595 268.372 23.7965C268.648 23.8334 268.943 23.8889 269.238 23.9443C269.238 23.9443 269.238 23.6117 269.256 23.0575C269.385 20.009 270.38 9.97683 277.621 6.33716L275.429 6.68819L271.67 7.26093L270.454 7.44569L266.916 8.01843L265.903 8.16623C264.116 9.7736 260.449 13.1177 259.528 14.0414C258.294 15.2608 256.451 19.5656 252.158 20.8035C248.879 21.7457 247.018 19.4363 246.336 18.3093C246.134 17.9582 246.023 17.7181 246.023 17.7181C246.023 17.7181 245.857 17.9582 245.562 18.3093C244.66 19.3624 242.486 21.4131 239.28 21.4131C234.987 21.4131 233.752 18.9559 233.752 18.9559C233.752 18.9559 233.734 18.9744 233.697 18.9929C233.623 19.0298 233.476 19.1037 233.292 19.1961C231.91 19.9351 227.691 22.0413 225.166 22.0413C222.09 22.0413 220.247 19.5656 220.247 19.5656C220.247 19.5656 220.081 19.7319 219.786 19.9905C218.792 20.8404 216.341 22.651 213.504 22.651C209.819 22.651 206.134 22.0413 206.134 17.7181C206.134 17.6257 206.152 17.5148 206.152 17.4224L205.471 17.5333L202.154 18.0321C202.154 18.0321 201.141 18.1984 199.796 19.27C198.617 20.2122 197.18 21.875 196.019 24.7942C195.042 27.2514 195.042 29.2467 195.392 30.7063Z" fill="#FFDE10"/>
<path d="M268.374 23.7965V23.9628H269.239L270.105 23.9258C270.105 23.9074 270.105 23.6672 270.124 23.2607C270.234 20.5633 271.082 10.5865 278.01 7.11316C281.658 5.30256 285.748 5.37646 289.212 7.35334C294.039 10.0877 297.613 15.8705 298.203 23.6302C299.382 38.9095 296.692 47.519 290.575 52.4335C286.098 56.0362 282.892 54.9831 281.805 54.4104C281.565 54.281 281.418 54.1887 281.4 54.1702L280.349 55.5559C280.349 55.5559 280.828 55.9069 281.547 56.2025C282.247 56.4796 283.205 56.7383 284.421 56.7383C285.637 56.7383 286.982 56.4981 288.567 55.7406C288.991 55.5559 289.414 55.3341 289.857 55.057C290.446 54.706 291.036 54.281 291.662 53.7822C298.277 48.4797 301.151 39.4268 299.935 23.5009C299.29 15.15 295.421 8.86833 290.059 5.83835C286.079 3.56587 281.4 3.47349 277.236 5.56122C276.591 5.89378 275.983 6.26328 275.43 6.68822C269.424 11.0854 268.521 19.8982 268.392 22.9282C268.373 23.3346 268.374 23.6302 268.374 23.7965Z" fill="#282626"/>
<path d="M188.04 33.4223C188.04 33.4223 187.432 30.3369 183.139 32.1845C178.846 34.032 177.612 43.2513 179.454 47.5746C181.297 51.8793 186.198 52.489 187.432 50.0318C188.667 47.5746 188.04 33.4223 188.04 33.4223Z" fill="#282626"/>
<path d="M205.472 17.5333C205.472 17.9583 205.491 18.4017 205.583 18.8266C206.836 25.2561 216.73 24.6279 219.936 20.1938C220.009 20.1014 220.083 19.9906 220.157 19.8797C220.23 19.7689 220.249 19.658 220.249 19.5656C220.249 19.1037 219.622 18.8081 219.254 19.1407C219.199 19.1407 219.162 19.2146 219.125 19.27C217.651 21.6164 214.077 22.5956 211.479 22.3554C208.955 22.0968 206.688 20.2677 206.688 17.6811C206.688 17.4594 206.688 17.2192 206.744 16.9791C206.799 16.6465 206.854 16.3324 206.965 16.0183C207.72 13.3948 209.857 11.1593 211.847 9.47801C212.197 9.1824 212.566 8.90527 212.934 8.62814H212.953C213.671 8.09235 214.445 7.59351 215.237 7.18705C217.061 6.18938 219.051 5.52426 221.133 5.37646C222.312 5.28408 223.934 5.35798 225.094 5.89377C225.352 6.00462 225.573 6.13395 225.776 6.31871C225.85 6.35566 225.905 6.41108 225.96 6.46651C226.016 6.52194 226.089 6.57736 226.163 6.59584C226.476 6.72517 226.826 6.52193 226.937 6.22633C226.974 6.15243 226.992 6.06005 226.992 5.96767C226.974 5.83834 226.918 5.72749 226.808 5.61664C226.605 5.41341 226.384 5.22865 226.126 5.08085C224.247 3.84299 221.373 4.02775 219.346 4.41573C216.803 4.91457 214.427 6.06005 212.345 7.59351C212.289 7.63046 212.253 7.64894 212.216 7.68589C211.184 8.42491 210.226 9.25631 209.36 10.1616C207.499 12.0831 205.546 14.7435 205.472 17.5333Z" fill="#282626"/>
<path d="M218.739 17.7181C218.849 18.2354 219.015 18.7157 219.255 19.1407C219.402 19.4363 219.586 19.7319 219.789 19.9906C219.826 20.0645 219.881 20.1199 219.937 20.1938C221.521 22.0413 224.248 22.7434 226.717 22.3369C229.094 21.9674 231.489 20.8589 233.442 19.4732C233.626 19.3439 233.7 19.1776 233.7 18.9929C233.718 18.5864 233.368 18.1984 232.963 18.3647C232.926 18.3832 232.871 18.4017 232.834 18.4386C230.899 19.8243 228.504 20.9328 226.146 21.2284C223.603 21.524 220.931 20.3416 220.084 18.0137C219.9 17.4779 219.789 16.9236 219.808 16.2955C219.808 16.1661 219.826 16.0183 219.826 15.889C220.102 12.8406 222.35 10.0877 224.432 8.09235C224.432 8.07388 224.469 8.0554 224.487 8.03693C225.022 7.53809 225.574 7.03925 226.164 6.59584C226.311 6.44804 226.477 6.31871 226.643 6.22633C226.754 6.11548 226.883 6.04157 226.993 5.96767C228.817 4.65591 230.881 3.67671 233.11 3.36263C234.75 3.12245 236.555 3.0855 238.122 3.71367C238.379 3.82452 238.656 3.95385 238.895 4.12013C238.987 4.17555 239.061 4.23098 239.135 4.2864C239.209 4.36031 239.503 4.67439 239.411 4.54506C239.559 4.69287 239.761 4.76677 239.946 4.72982C240.222 4.72982 240.498 4.50811 240.535 4.24945C240.535 4.1386 240.498 4.00927 240.406 3.87994C240.24 3.65824 240.038 3.45501 239.817 3.28873C237.753 1.53356 233.994 1.90307 231.673 2.40191C229.702 2.82684 227.822 3.80604 226.127 5.08085C225.777 5.32103 225.427 5.59816 225.095 5.89377C224.174 6.63279 223.308 7.46419 222.534 8.31406C220.784 10.254 218.978 12.859 218.665 15.5934C218.628 15.6673 218.61 15.7597 218.628 15.8705C218.628 15.889 218.628 15.9075 218.628 15.926C218.592 16.5172 218.592 17.1269 218.721 17.7181H218.739Z" fill="#282626"/>
<path d="M232.647 16.2585C232.629 17.016 232.721 17.7181 232.961 18.3647C233.034 18.6603 233.145 18.9375 233.292 19.1961C233.329 19.2885 233.384 19.3809 233.44 19.4732C234.361 21.0806 236.056 22.0968 238.175 22.1337C240.828 22.1891 244.052 20.9882 245.895 18.9005C246.06 18.7157 246.208 18.5125 246.337 18.3093C246.429 18.2169 246.484 18.1245 246.539 18.0322C246.613 17.9398 246.632 17.8289 246.632 17.755C246.65 17.6626 246.613 17.5703 246.558 17.4779C246.558 17.4409 246.521 17.404 246.484 17.367C246.374 17.2192 246.152 17.1269 245.968 17.1453C245.802 17.1638 245.618 17.2377 245.508 17.4225C245.452 17.4964 245.397 17.5887 245.342 17.6626C243.684 20.009 239.833 21.4132 237.106 20.8219C235.393 20.4709 234.49 19.3624 234.103 17.9952C233.882 17.2192 233.826 16.3509 233.919 15.501C233.919 15.4456 233.919 15.3717 233.937 15.2978C233.974 14.9467 234.048 14.6142 234.121 14.3001C234.582 12.4156 235.411 10.5865 236.498 8.92374C236.498 8.92374 236.498 8.90527 236.516 8.90527C236.516 8.81289 236.59 8.73899 236.682 8.64661C236.701 8.64661 236.719 8.60966 236.719 8.59118C236.738 8.57271 236.738 8.55423 236.738 8.55423C237.29 7.68588 237.935 6.85449 238.617 6.09699H238.635C238.856 5.83834 239.114 5.57968 239.354 5.32102C239.538 5.11779 239.741 4.93304 239.943 4.72981C240.128 4.56353 240.33 4.39725 240.533 4.24945C242.854 2.27257 245.618 1.07166 248.769 1.20099C250.077 1.25642 251.403 1.60745 252.491 2.36495C252.656 2.4758 252.804 2.58665 252.951 2.69751C253.062 2.82683 253.172 2.91921 253.283 3.03006C253.449 3.19634 253.467 3.23329 253.485 3.27025C253.596 3.41805 253.743 3.49195 253.891 3.51043C254.186 3.58433 254.499 3.39957 254.591 3.12244C254.646 2.99311 254.628 2.82683 254.517 2.66056C254.37 2.45732 254.222 2.25409 254.038 2.06934C252.435 0.332645 249.616 -0.147717 247.387 0.0370374C244.457 0.295694 241.952 1.4966 239.814 3.28872C239.501 3.54738 239.188 3.82451 238.893 4.12012C238.267 4.71133 237.677 5.35797 237.106 6.06004C236.682 6.57736 236.277 7.11314 235.908 7.68588C235.779 7.83369 235.669 7.99997 235.577 8.16625C234.158 10.2909 233.053 12.6927 232.739 15.1685C232.684 15.5195 232.666 15.889 232.647 16.2585Z" fill="#282626"/>
<path d="M245.084 15.7227C245.084 16.3878 245.158 17.0529 245.342 17.6626C245.397 17.8843 245.471 18.106 245.563 18.3093C245.655 18.5125 245.766 18.7157 245.895 18.9005C246.3 19.5656 246.89 20.1383 247.682 20.6002C249.469 21.6348 251.588 21.6348 253.486 20.8404C255.955 19.8058 257.373 17.755 259.013 15.7412C261.316 12.8959 264.061 10.3278 266.917 8.01841C267.046 7.88909 267.175 7.79671 267.304 7.68585C267.912 7.20549 267.065 6.35562 266.457 6.83598C263.785 8.99761 261.206 11.3809 258.939 13.986C257.41 15.7227 256.231 17.7735 254.278 19.0667C252.565 20.1753 250.427 20.6556 248.53 19.6949C247.572 19.2146 246.964 18.5494 246.632 17.755C246.577 17.6626 246.521 17.5518 246.503 17.4409C246.484 17.4224 246.466 17.3855 246.484 17.367C246.263 16.7758 246.208 16.1291 246.263 15.4825C246.392 13.0437 247.811 10.3094 249.009 8.4803C249.119 8.25859 249.248 8.07384 249.377 7.88908C249.801 7.27939 250.261 6.70665 250.759 6.15239C251.68 5.13624 252.73 4.23094 253.891 3.5104C254.131 3.38107 254.352 3.25174 254.591 3.12241C256.194 2.27254 257.981 1.79218 259.879 1.81065C262.495 1.8476 265.075 2.78985 267.304 4.13856C268.594 4.91453 269.902 5.98611 270.455 7.44567C270.473 7.46415 270.492 7.5011 270.492 7.51958C270.75 8.22164 271.855 7.94451 271.671 7.26092C271.671 7.26092 271.652 7.22397 271.652 7.20549C270.971 5.26557 269.312 3.91686 267.581 2.91918C264.909 1.38572 261.777 0.369567 258.663 0.665174C256.986 0.812978 255.439 1.31182 254.039 2.06931C253.67 2.25407 253.302 2.47577 252.951 2.69748C251.035 3.97228 249.396 5.70898 248.106 7.66738H248.087C248.087 7.66738 247.995 7.81518 247.977 7.88908C247.866 8.01841 247.793 8.16622 247.7 8.29555C246.503 10.2539 245.176 13.0437 245.103 15.5934C245.084 15.6303 245.084 15.6857 245.084 15.7227Z" fill="#282626"/>
<path d="M248.088 7.68579C248.954 6.68811 250.354 6.11537 251.625 5.96757C253.486 5.74586 255.292 6.3925 255.955 8.24005C256.6 9.97675 255.992 12.046 255.052 13.561C253.818 15.5379 251.662 17.2561 249.341 17.6995C247.812 17.9951 245.453 17.681 245.103 15.7965C244.956 15.039 246.117 14.7249 246.264 15.4824C246.338 15.8704 246.577 16.1476 246.982 16.3508C247.535 16.6279 248.199 16.6649 248.807 16.5725C250.723 16.3138 252.584 14.9282 253.707 13.4132C254.573 12.2308 255.255 10.6049 254.96 9.1084C254.85 8.55413 254.61 8.01835 254.168 7.64884C253.615 7.18695 252.823 7.11305 252.123 7.13152C250.944 7.15 249.672 7.68579 248.936 8.53566C248.42 9.1084 247.572 8.25853 248.088 7.68579Z" fill="#282626"/>
<path d="M235.56 8.16627C236.26 6.90994 237.771 6.18939 239.135 6.00464C240.259 5.85683 241.622 5.93074 242.598 6.59585C243.372 7.13164 243.815 7.99999 243.962 8.92376C244.294 11.1408 243.391 13.5426 242.212 15.3717C240.996 17.2562 239.116 18.4756 236.85 18.6234C235.855 18.6788 234.75 18.4941 233.921 17.9028C233.036 17.2562 232.631 16.2401 232.741 15.1685C232.815 14.411 234.013 14.3925 233.939 15.1685C233.865 15.8151 234.013 16.4433 234.529 16.8682C235.044 17.2932 235.763 17.4225 236.426 17.441C238.177 17.4594 239.872 16.6096 240.885 15.1869C241.972 13.6904 242.801 11.769 242.82 9.90296C242.82 9.21937 242.727 8.48035 242.285 7.94456C241.714 7.26097 240.738 7.16859 239.89 7.16859C238.969 7.16859 238.029 7.44572 237.311 7.99999C237.09 8.18474 236.868 8.38797 236.684 8.60968C236.776 8.49883 236.611 8.72053 236.574 8.79444C236.187 9.45955 235.155 8.86834 235.542 8.18474L235.56 8.16627Z" fill="#282626"/>
<path d="M223.751 7.09466C225.096 6.18936 227.012 5.93071 228.523 6.48497C229.333 6.78058 230.052 7.26094 230.42 8.07386C230.77 8.83135 230.789 9.66275 230.678 10.4757C230.383 12.5449 229.149 14.4664 227.749 15.9814C226.348 17.4779 224.451 18.5495 222.369 18.5679C220.655 18.5679 218.831 17.755 218.629 15.889C218.555 15.113 219.752 15.1315 219.826 15.889C219.937 16.979 221.282 17.3485 222.203 17.367C223.843 17.404 225.427 16.628 226.57 15.4641C227.804 14.2262 228.873 12.6743 229.352 10.956C229.646 9.88446 229.739 8.44337 228.633 7.83368C227.343 7.11314 225.575 7.33484 224.359 8.14776C223.714 8.5727 223.124 7.53807 223.751 7.11314V7.09466Z" fill="#282626"/>
<path d="M206.686 17.6812C207.46 18.18 208.529 18.4017 209.284 18.4572C211.44 18.6235 213.393 18.0507 215.051 16.6651C216.488 15.4457 217.704 13.7275 218.128 11.8799C218.552 10.0508 217.87 8.25871 216.101 7.44579C215.825 7.31646 215.53 7.22408 215.235 7.18713C214.259 6.96543 213.209 7.13171 212.343 7.59359C212.287 7.63054 212.251 7.64902 212.214 7.68597C211.753 8.11091 212.324 8.96078 212.932 8.62822H212.951C213.153 8.53584 213.559 8.38804 213.927 8.33261C214.627 8.20328 215.364 8.33261 215.972 8.73907C218.699 10.6236 215.843 14.5219 214.056 15.9445C212.693 17.0161 211.071 17.3856 209.358 17.2747C208.676 17.2193 207.939 17.09 207.368 16.702C207.202 16.5912 207.073 16.4618 206.981 16.2955C206.944 16.2032 206.944 16.1108 206.963 16.0184C207.165 15.2609 206.023 14.9468 205.82 15.6859C205.581 16.5912 206.023 17.2378 206.686 17.6812Z" fill="#282626"/>
<path d="M267.509 23.2607L267.417 23.7042C261.779 23.4085 257.375 27.3253 254.335 33.1082C251.369 38.7247 249.692 46.1149 249.416 53.1171C248.992 63.5188 250.835 70.8351 255.109 74.4748L187.141 50.3458C187.141 50.3458 183.456 46.6507 184.064 40.4984C184.672 34.346 187.749 33.1082 187.749 33.1082C189.628 32.48 192.3 31.8518 195.561 31.2421C217.947 27.0113 267.527 23.2607 267.527 23.2607H267.509Z" fill="#FFDE10"/>
<path d="M282.173 51.3435C282.247 50.3458 283.924 27.1961 270.511 23.3532C266.568 22.2262 262.92 22.8543 259.659 25.2192C252.068 30.7249 248.917 43.6577 248.549 53.0617C248.143 63.1863 249.857 70.3178 253.671 74.2901C256.011 76.7288 259.124 77.9667 262.92 77.9667C274.159 77.9667 280.46 69.2647 282.192 51.3435H282.173ZM270.013 25.016C281.989 28.4524 280.46 50.6784 280.423 51.1772C278.765 68.2671 273.201 76.23 262.883 76.23C259.566 76.23 256.877 75.1769 254.887 73.0892C251.423 69.4864 249.875 62.7614 250.262 53.1356C250.649 43.4175 254.021 31.4454 260.654 26.6233C262.57 25.2377 264.633 24.5356 266.807 24.5356C267.839 24.5356 268.908 24.6834 270.013 24.9975V25.016Z" fill="#282626"/>
<path d="M279.152 40.4983C279.023 46.5582 272.961 50.3642 268.023 52.5627C263.859 54.4288 258.608 55.8883 254.002 55.2602C252.989 55.1308 251.478 54.7798 251.386 53.5235C251.331 52.8029 251.865 52.1193 252.27 51.5835C255.163 47.5559 259.161 43.9532 263.325 41.3112C266.365 39.3713 269.884 37.9302 273.495 37.6161C275.669 37.4313 278.986 37.7085 279.17 40.4983C279.225 41.2742 278.028 41.2742 277.972 40.4983C277.788 37.8747 272.721 38.8539 271.192 39.205C268.465 39.8516 265.868 41.0525 263.528 42.6045C259.916 45.0063 256.471 48.1102 253.799 51.5281C253.468 51.9715 252.897 52.5443 252.712 53.0801C252.418 53.9484 253.763 54.0223 254.407 54.0962C258.295 54.5027 262.57 53.4126 266.181 52.027C271.045 50.1609 277.843 46.4289 277.972 40.4798C277.972 39.7038 279.188 39.7038 279.17 40.4798L279.152 40.4983Z" fill="#282626"/>
<path d="M278.526 32.2767C280.424 30.9465 282.432 29.7456 284.478 28.637C287.425 27.0481 291.074 25.0897 294.537 25.3115C295.845 25.3854 297.098 25.9027 297.78 27.0666C298.48 28.2675 298.259 29.6901 297.743 30.9095C297.448 31.6116 297.025 32.1843 296.693 32.7571C296.288 33.4776 295.624 34.1612 295.072 34.7524C293.819 36.1196 292.418 37.339 290.945 38.466C288.07 40.7015 284.828 42.7338 281.345 43.8424C280.608 44.0825 280.295 42.9186 281.032 42.6784C283.685 41.8285 286.154 40.3874 288.439 38.817C291.037 37.0249 293.745 34.9002 295.569 32.2582C295.588 32.2767 295.624 32.2952 295.643 32.3321C295.643 32.2767 295.643 32.2213 295.661 32.1659C295.735 32.055 295.882 31.7963 295.919 31.7224C296.122 31.3899 296.324 31.0573 296.49 30.7063C296.822 30.0227 297.098 29.2467 297.006 28.4892C296.804 26.8819 295.219 26.42 293.837 26.4939C290.613 26.6417 287.407 28.3784 284.662 29.8934C282.764 30.928 280.903 32.055 279.134 33.2929C278.508 33.7363 277.9 32.7016 278.526 32.2582V32.2767Z" fill="#282626"/>
<path d="M277.348 42.5306C277.348 43.4728 277.145 44.4335 276.684 45.2649C276.261 46.0409 275.616 46.5582 275.063 47.1864C274.916 47.3896 274.787 47.6113 274.621 47.8145C273.405 48.8677 271.857 49.9023 269.941 50.9554C269.499 50.9554 269.057 50.9184 268.614 50.8076C268.32 50.7152 267.933 50.5489 267.656 50.4011C267.601 50.3826 267.564 50.3457 267.509 50.3272C267.196 50.1609 266.883 49.8838 266.625 49.6621C266.256 49.348 265.961 48.9231 265.703 48.5166C265.427 48.0917 265.243 47.5744 265.095 47.1125C264.966 46.7614 264.948 46.4104 264.893 46.0409C264.764 45.1171 264.801 44.3042 265.022 43.3804C265.169 42.6968 265.464 41.9948 265.851 41.4036C266.127 40.9786 266.44 40.5722 266.772 40.1842C266.809 40.1472 266.846 40.1103 266.883 40.0733C270.162 38.5953 273.35 38.0041 275.542 38.2443C275.8 38.3921 276.04 38.5768 276.242 38.78C276.592 39.1126 276.85 39.5191 276.998 39.9625C277.219 40.4059 277.329 40.8862 277.311 41.3851C277.274 41.7731 277.311 42.1611 277.311 42.549L277.348 42.5306Z" fill="#282626"/>
<path d="M296.229 32.3321C295.234 33.8101 293.76 35.3436 292.084 36.7662C292.028 36.7846 291.992 36.8031 291.936 36.8216C291.641 36.8955 291.218 36.9324 290.904 36.9694C290.849 36.9694 290.794 36.9694 290.739 36.9694C290.554 36.9694 290.315 36.914 290.149 36.8955C290.002 36.877 289.725 36.8585 289.541 36.8031C288.399 36.489 287.256 35.6392 286.741 34.5491C286.538 34.1242 286.317 33.6808 286.243 33.2189C286.151 32.7385 286.077 32.2397 286.077 31.7408C286.077 31.0572 286.206 30.3367 286.298 29.6531C286.39 29.0988 286.575 28.5815 286.796 28.0642C289.007 27.0111 291.31 26.1243 293.226 25.9026C293.281 25.958 293.337 26.0134 293.392 26.0504C293.392 26.0504 293.41 26.0689 293.429 26.0873C295.234 26.346 296.524 27.9164 296.598 29.7455C296.598 30.2074 296.321 31.9256 296.192 32.2951L296.229 32.3321Z" fill="#282626"/>
<path d="M194.968 30.7433C215.014 28.6186 235.06 26.4939 255.106 24.3693C257.943 24.0737 260.781 23.7781 263.618 23.464C264.392 23.3901 264.373 24.591 263.618 24.6649C243.572 26.7896 223.526 28.9142 203.48 31.0389C200.643 31.3345 197.805 31.6301 194.968 31.9442C194.194 32.0181 194.213 30.8172 194.968 30.7433Z" fill="#282626"/>
<path d="M250.648 194.695C250.648 194.695 250.648 194.713 250.667 194.732C256.673 201.494 263.159 208.089 271.008 212.69C278.875 217.29 287.792 219.341 296.876 219.064C301.832 218.898 306.751 218.14 311.578 217.013C315.098 216.182 318.727 215.35 321.878 213.503C326.447 210.824 329.487 206.427 331.293 201.512C333.706 194.898 334.112 187.619 333.983 180.653C333.817 171.102 332.527 161.587 330.906 152.183C327.239 130.751 321.675 109.966 313.753 89.7171C310.823 82.253 307.783 74.6226 303.674 67.6943C300.487 62.3364 295.402 57.9208 289.856 55.0571C289.432 54.8169 289.008 54.6137 288.566 54.4105C287.866 54.0964 287.258 55.131 287.958 55.4451C288.161 55.5375 288.364 55.6298 288.566 55.7407C295.107 58.9554 300.432 64.1101 303.877 70.5211C308.465 79.0198 312.002 88.1467 315.319 97.1997C322.375 116.58 327.295 136.515 330.482 156.894C331.882 165.836 332.932 174.926 332.785 183.997C332.693 190.408 332.03 197.134 329.377 203.064C327.184 207.942 323.499 211.858 318.488 213.817C309.994 217.105 299.86 218.454 290.777 217.715C274.287 216.348 262.072 205.762 251.514 193.882C251.459 193.826 251.404 193.789 251.367 193.753C250.87 193.475 250.225 194.177 250.648 194.695Z" fill="#282626"/>
<path d="M235.559 67.3248C235.338 71.7035 235.983 76.23 236.609 80.5348C238.581 93.8371 242.321 106.862 246.725 119.537C246.983 120.276 245.822 120.59 245.564 119.851C241.105 107.029 237.328 93.8556 235.375 80.4055C234.749 76.1191 234.122 71.6481 234.343 67.3063C234.38 66.5304 235.578 66.5304 235.541 67.3063L235.559 67.3248Z" fill="#282626"/>
<path d="M136.286 95.0748C133.909 100.174 131.09 105.126 128.142 109.911C122.707 118.705 116.461 127.407 108.446 134.021C107.857 134.502 107.009 133.67 107.599 133.171C115.669 126.502 121.914 117.763 127.35 108.894C130.206 104.239 132.932 99.4351 135.235 94.4652C135.567 93.7631 136.599 94.3728 136.267 95.0748H136.286Z" fill="#282626"/>
<path d="M114.896 127.758C112.87 133.873 110.198 139.841 107.305 145.587C101.888 156.34 95.1451 166.982 85.7486 174.667C85.159 175.148 84.3115 174.316 84.9011 173.817C94.2239 166.169 100.894 155.638 106.255 144.977C109.111 139.324 111.727 133.467 113.717 127.444C113.957 126.705 115.117 127.019 114.878 127.758H114.896Z" fill="#282626"/>
<path d="M0.610168 202.418C1.62352 209.845 4.23981 217.032 8.7354 223.073C14.1891 230.408 21.9089 235.599 30.2368 239.147C41.4942 243.95 53.8755 246.315 65.9804 247.997C66.7542 248.107 67.5097 248.218 68.2835 248.311C72.7238 248.902 77.1825 249.364 81.6413 249.696C91.222 250.491 100.84 250.786 110.439 250.768C111.968 250.768 113.497 250.768 115.027 250.731C124.552 250.62 134.059 250.177 143.566 249.659C147.693 249.438 152.576 249.105 156.795 247.553C159.688 246.519 162.249 244.93 164.073 242.398C165.068 241.031 165.731 239.424 165.897 237.724C165.934 237.41 165.934 237.133 165.878 236.856C165.86 236.449 165.749 236.061 165.62 235.692C165.381 235.045 165.049 234.399 164.791 233.567C162.064 225.161 163.465 215.147 164.515 206.556C165.031 202.325 165.694 198.131 166.32 193.919C166.505 192.773 166.689 191.609 166.836 190.445C166.873 190.039 166.928 189.633 166.947 189.208C167.039 187.988 167.021 186.769 166.818 185.531C165.51 178.104 158.085 174.741 151.433 173.393C149.665 173.023 147.877 172.783 146.09 172.598C142.184 172.192 138.223 172.136 134.317 172.081C132.954 172.062 131.59 172.044 130.227 172.044C129.158 172.044 128.108 172.044 127.039 172.044C123.06 172.044 119.08 172.081 115.119 172.155C114.658 172.155 114.197 172.155 113.737 172.155C105.096 172.303 96.4362 172.561 87.7951 172.931C87.1502 172.949 86.5238 172.968 85.8789 173.005H85.6947C85.3077 173.023 85.1235 173.337 85.1235 173.633C85.1419 173.928 85.3262 174.205 85.6947 174.205C85.9158 174.187 86.1184 174.187 86.3395 174.187C88.5505 174.076 90.7798 174.002 92.9724 173.928C105.335 173.485 117.717 173.152 130.098 173.226C135.975 173.263 141.945 173.245 147.785 173.984C152.355 174.593 157.274 175.702 161.033 178.51C166.965 182.944 165.823 189.374 164.846 195.785C163.557 204.191 162.304 212.653 162.212 221.189C162.175 224.995 162.322 228.893 163.262 232.606C163.667 234.195 164.828 235.71 164.736 237.318C164.46 242.546 159.245 245.576 154.768 246.906C150.07 248.292 145.132 248.366 140.268 248.643C135.257 248.902 130.245 249.142 125.215 249.308C112.65 249.715 100.047 249.696 87.4818 248.92C73.8477 248.089 60.2135 246.408 46.9295 243.174C36.2801 240.588 25.6123 236.985 17.008 229.964C4.53459 219.784 0.315353 204.45 1.51295 188.838C2.52631 175.296 6.8745 162.603 13.2862 150.705C22.7933 133.005 34.6771 116.544 45.7871 99.8417C57.7262 81.9205 73.6819 67.1216 92.7881 57.1633C111.065 47.6115 132.511 42.697 152.76 48.0365C153.202 48.1473 153.644 48.2766 154.087 48.406H154.105C154.584 48.5538 154.879 48.1104 154.824 47.7224C154.805 47.5191 154.676 47.3159 154.418 47.2605C154.179 47.1866 153.939 47.1312 153.7 47.0573C149.02 45.764 144.211 44.9695 139.365 44.7109C117.809 43.51 96.4914 51.9902 78.9881 64.0916C70.0522 70.2809 61.8349 77.5972 54.723 85.8373C46.9663 94.8533 40.7757 105.181 34.1981 115.065C17.0264 140.857 -3.81172 169.494 0.610168 202.418Z" fill="#282626"/>
<path d="M81.6399 159.259C75.5966 162.067 69.5902 164.967 63.6575 167.979C59.3462 170.159 55.0349 172.376 50.8525 174.815C49.3233 175.702 47.7756 176.626 46.3385 177.66C45.8778 177.993 44.3855 178.843 44.3302 179.526C44.3486 179.194 44.1828 179.323 44.5697 179.378C45.0119 179.434 45.4357 179.415 45.8778 179.397C47.3702 179.341 48.8811 179.083 50.355 178.843C54.5374 178.159 58.6645 177.254 62.81 176.385C67.0476 175.499 71.2669 174.593 75.5229 173.836C77.9734 173.411 81.0871 172.524 83.5929 173.06C87.0198 173.799 82.2663 176.884 81.4741 177.457C75.7993 181.577 69.8482 185.457 63.6944 188.819C63.0127 189.189 62.4047 188.154 63.0864 187.785C68.1531 185.013 73.0356 181.891 77.7707 178.602C79.5026 177.401 81.3451 176.238 82.948 174.852C83.1507 174.667 83.5929 174.372 83.6481 174.094C83.5744 174.445 83.8508 174.279 83.4086 174.224C82.9665 174.187 82.5427 174.15 82.1005 174.168C78.7104 174.242 75.2834 175.055 71.967 175.702C67.5083 176.57 63.0864 177.549 58.6276 178.455C54.9611 179.212 51.2762 179.988 47.5729 180.431C46.578 180.542 43.2247 181.226 43.0957 179.489C42.9668 177.734 46.6333 175.942 47.7572 175.24C51.6079 172.838 55.6429 170.713 59.6594 168.644C66.6792 165.023 73.8094 161.55 80.9766 158.224C81.6767 157.91 82.2847 158.944 81.5846 159.259H81.6399Z" fill="#282626"/>
<path d="M155.208 57.1447C157.787 58.4749 160.846 58.8998 163.646 58.1239C165.102 57.7174 166.612 57.1447 167.773 56.147C168.16 55.8329 168.547 55.4264 168.713 54.9461C168.971 54.2071 167.81 53.9114 167.552 54.632C167.644 54.3733 167.46 54.7613 167.423 54.8167C167.22 55.0754 166.87 55.371 166.557 55.5927C165.249 56.4611 163.572 57.0523 162.025 57.2555C158.027 57.7913 150.344 54.9276 153.144 49.6806C153.402 49.2002 153.697 48.7753 154.084 48.4058C154.286 48.1471 154.544 47.9069 154.821 47.7222C156.976 46.0409 160.145 45.8561 162.78 46.6691C163.517 46.8908 163.83 45.7453 163.093 45.5236C162.891 45.4682 162.688 45.4127 162.467 45.3573C160.827 44.9508 159.022 44.9139 157.382 45.2465C156.921 45.3388 156.461 45.4682 156.018 45.6529C155.171 45.9855 154.379 46.4658 153.697 47.057C153.365 47.3527 153.034 47.6852 152.757 48.0362C152.112 48.8492 151.652 49.7914 151.449 50.8445C150.896 53.6713 152.849 55.9253 155.208 57.1447Z" fill="#282626"/>
<path d="M164.937 52.4151C164.015 51.7684 162.965 51.2511 161.897 50.8631C160.146 50.235 157.972 49.8839 156.406 51.1587C155.816 51.6391 154.969 50.7892 155.558 50.3089C158.47 47.944 162.781 49.4405 165.526 51.3804C166.153 51.8239 165.563 52.8585 164.918 52.4151H164.937Z" fill="#282626"/>
<path d="M208.66 57.9393C207.554 61.8006 203.612 64.4796 200 65.5696C191.451 68.1562 181.742 65.0338 174.427 60.4889C172.474 59.288 170.54 57.9393 168.863 56.3688C168.292 55.833 169.139 54.9832 169.71 55.519C175.441 60.8953 183.676 64.5535 191.47 65.1447C197.071 65.5696 205.657 64.1101 207.499 57.6252C207.702 56.8861 208.863 57.2002 208.66 57.9393Z" fill="#282626"/>
<path d="M156.02 45.6531C156.204 45.8009 156.388 45.9487 156.572 46.078C156.572 46.078 160.312 45.5238 161.621 45.8009C161.621 45.8009 161.989 45.69 162.468 45.3575C163.758 44.4707 165.914 41.9765 164.661 35.6579C164.624 35.4177 164.569 35.1775 164.532 34.9558C167.203 34.1613 181.574 29.6718 188.355 22.337C190.087 20.471 191.321 18.7343 192.132 17.1454C192.15 17.09 192.169 17.0531 192.205 16.9976C194.785 11.7691 192.629 8.2772 187.783 7.83379C181.427 7.26105 173.339 19.4364 169.285 20.0091C165.25 20.6003 157.143 19.4364 153.68 28.1199C150.382 36.4154 152.316 42.5677 156.02 45.6531Z" fill="#282626"/>
<path d="M202.248 71.2416C198.158 73.1076 193.331 73.7727 188.891 73.7173C178.554 73.551 169.49 68.4333 162.801 60.729C162.304 60.1563 163.133 59.288 163.649 59.8792C170.227 67.4726 179.107 72.4979 189.277 72.5349C193.349 72.5349 197.992 71.8882 201.64 70.2254C202.34 69.9114 202.948 70.946 202.248 71.2601V71.2416Z" fill="#282626"/>
</g>
<defs>
<clipPath id="clip0_212_746">
<rect width="334" height="310" fill="white" transform="matrix(-1 0 0 1 334 0)"/>
</clipPath>
</defs>
</svg>
