<svg width="361" height="366" viewBox="0 0 361 366" fill="none" xmlns="http://www.w3.org/2000/svg">
<circle cx="180" cy="202" r="150" fill="#7242EE" fill-opacity="0.12"/>
<g clip-path="url(#clip0_2690_33711)">
<path d="M360.533 362.834C357.923 314.551 348.301 192.695 317.191 176.476C278.264 156.183 285.409 284.537 285.409 284.537C258.97 153.58 229.401 294.41 224.163 321.548C220.202 314.695 215.793 309.679 210.886 307.117C188.718 295.545 180.463 328.924 177.6 362.834H360.533Z" fill="#D2C7F6"/>
</g>
<g clip-path="url(#clip1_2690_33711)">
<path d="M139.603 129.609C133.569 135.194 121.275 139.652 109.273 136.275C94.3449 132.064 82.0733 135.194 76.9846 149.2C74.0574 157.306 70.0945 162.462 63.4521 166.425C50.5275 174.104 52.0812 192.568 66.5368 203.331C75.4534 199.031 139.491 162.057 139.491 162.057L149.15 132.402L139.603 129.609Z" fill="#21207F"/>
<path d="M66.5368 203.961C66.4017 203.961 66.2441 203.916 66.1315 203.826C58.1156 197.859 53.5898 189.28 54.0176 180.881C54.3553 174.463 57.5752 169.104 63.1143 165.817C69.4865 162.034 73.4494 156.99 76.3541 148.951C78.8534 142.038 83.1766 137.422 89.2111 135.261C94.7502 133.257 101.55 133.392 109.454 135.621C120.847 138.841 133.006 134.788 139.153 129.113C139.333 128.956 139.581 128.888 139.806 128.956L149.353 131.703C149.533 131.748 149.668 131.883 149.758 132.041C149.848 132.198 149.871 132.401 149.803 132.559L140.144 162.214C140.099 162.372 139.986 162.507 139.828 162.597C139.198 162.957 75.6561 199.638 66.8295 203.894C66.7395 203.939 66.6269 203.961 66.5368 203.961ZM97.88 135.193C94.8853 135.193 92.1382 135.643 89.6614 136.522C84.0322 138.548 79.9793 142.872 77.615 149.402C74.5753 157.756 70.4547 163.002 63.7898 166.965C58.656 170.028 55.6613 174.981 55.3461 180.948C54.9408 188.785 59.1289 196.801 66.5819 202.498C76.3316 197.634 134.785 163.925 138.905 161.561L148.272 132.806L139.761 130.352C136.519 133.257 131.813 135.643 126.814 136.949C120.824 138.503 114.677 138.503 109.071 136.904C105.04 135.779 101.28 135.193 97.88 135.193ZM168.605 225.893C156.603 234.653 140.909 242.376 122.018 244.785C103.734 247.105 88.1978 242.961 85.4283 249.109C82.0508 256.652 124.652 266.942 168.605 225.893Z" fill="#21207F"/>
<path d="M102.834 256.742C101.19 256.742 99.5914 256.674 98.0377 256.517C93.0616 256.044 89.0086 254.873 86.6668 253.184C84.843 251.878 84.1675 250.302 84.843 248.838C86.7119 244.695 93.3093 244.763 102.474 244.875C108.283 244.943 114.858 245.033 121.95 244.11C138.5 241.993 154.059 235.688 168.222 225.353C168.515 225.15 168.92 225.195 169.145 225.465C169.37 225.735 169.348 226.141 169.078 226.388C148.7 245.416 129.606 252.531 117.199 255.143C112.223 256.201 107.337 256.742 102.834 256.742ZM98.3305 246.181C91.8457 246.181 87.2973 246.586 86.0589 249.379C85.5861 250.437 86.5543 251.428 87.4549 252.081C91.598 255.03 102.586 256.854 116.929 253.815C127.602 251.563 143.274 245.933 160.454 232.085C156.468 234.45 152.37 236.544 148.205 238.323C139.806 241.903 131.047 244.29 122.153 245.438C114.97 246.361 108.328 246.271 102.474 246.204C101.01 246.204 99.6364 246.181 98.3305 246.181ZM217.961 311.842C228.251 310.153 236.875 307.068 248.404 300.763C259.932 294.458 274.073 284.01 279.297 291.081C288.618 303.691 258.536 321.975 217.961 311.842Z" fill="#21207F"/>
<path d="M241.108 315.468C234.421 315.468 226.585 314.679 217.781 312.495C217.466 312.428 217.263 312.135 217.263 311.82C217.286 311.505 217.511 311.234 217.826 311.189C228.206 309.478 236.673 306.393 248.043 300.201C250.07 299.097 252.232 297.836 254.303 296.621C264.548 290.608 275.131 284.394 279.814 290.721C282.269 294.054 282.269 297.949 279.769 301.687C276.212 307.001 267.926 311.527 257.568 313.801C253.38 314.679 247.818 315.468 241.108 315.468ZM221.271 311.91C237.1 315.355 249.507 314.139 257.298 312.428C267.295 310.244 275.289 305.92 278.666 300.876C280.85 297.611 280.895 294.346 278.756 291.464C274.816 286.127 264.751 292.027 255.024 297.724C252.93 298.94 250.768 300.223 248.719 301.327C238.406 307.001 230.413 310.086 221.271 311.91Z" fill="#21207F"/>
<path d="M252.907 296.98C252.907 296.98 251.916 303.533 251.173 308.577C250.925 310.333 250.633 312.27 250.34 314.251C250.317 314.431 250.295 314.612 250.25 314.792C249.169 321.862 247.886 329.653 246.85 333.706C246.805 333.909 246.76 334.089 246.692 334.292C244.531 342.286 220.1 332.896 219.627 327.537C219.289 323.506 218.929 320.173 218.659 317.629C218.614 317.246 218.569 316.863 218.524 316.526C218.164 313.486 217.938 311.864 217.938 311.864L252.907 296.98Z" fill="white"/>
<path d="M240.793 338.052C240.252 338.052 239.689 338.029 239.059 337.962C231.066 337.241 219.334 331.747 218.974 327.559C218.681 324.046 218.344 320.736 218.006 317.674C217.961 317.291 217.916 316.908 217.871 316.57C217.533 313.575 217.285 311.932 217.285 311.909C217.24 311.616 217.398 311.301 217.691 311.189L252.637 296.35C252.862 296.259 253.132 296.282 253.312 296.44C253.492 296.597 253.605 296.822 253.56 297.07C253.56 297.138 252.546 303.668 251.826 308.644C251.578 310.423 251.286 312.337 250.993 314.318L250.903 314.859C249.957 321.141 248.584 329.54 247.503 333.841C247.458 334.044 247.39 334.246 247.345 334.427C246.895 336.16 245.364 338.052 240.793 338.052ZM218.704 312.247C218.794 312.945 218.997 314.386 219.222 316.413C219.267 316.773 219.312 317.133 219.357 317.516C219.695 320.578 220.032 323.911 220.325 327.424C220.573 330.328 230.908 335.868 239.194 336.588C244.193 337.039 245.701 335.462 246.062 334.066C246.107 333.886 246.152 333.706 246.197 333.503C247.255 329.27 248.629 320.916 249.574 314.634L249.664 314.093C249.957 312.112 250.25 310.198 250.497 308.419C251.038 304.704 251.713 300.155 252.051 298.016L218.704 312.247Z" fill="#21207F"/>
<path d="M250.34 314.25C250.317 314.43 250.295 314.61 250.25 314.79C249.169 321.861 247.886 329.652 246.85 333.705C246.805 333.908 246.76 334.088 246.692 334.291C244.531 342.284 220.1 332.894 219.627 327.535C219.289 323.505 218.929 320.172 218.659 317.628C218.614 317.245 218.569 316.862 218.524 316.524L250.34 314.25Z" fill="#D2C7F6"/>
<path d="M219.12 321.35L249.317 319.732L249.399 321.261L219.202 322.879L219.12 321.35Z" fill="white"/>
<path d="M240.793 338.052C240.252 338.052 239.689 338.029 239.059 337.962C231.066 337.241 219.334 331.747 218.974 327.559C218.681 324.046 218.344 320.736 218.006 317.674C217.961 317.291 217.916 316.908 217.871 316.57C217.533 313.575 217.285 311.932 217.285 311.909C217.24 311.616 217.398 311.301 217.691 311.189L252.637 296.35C252.862 296.259 253.132 296.282 253.312 296.44C253.492 296.597 253.605 296.822 253.56 297.07C253.56 297.138 252.546 303.668 251.826 308.644C251.578 310.423 251.286 312.337 250.993 314.318L250.903 314.859C249.957 321.141 248.584 329.54 247.503 333.841C247.458 334.044 247.39 334.246 247.345 334.427C246.895 336.16 245.364 338.052 240.793 338.052ZM218.704 312.247C218.794 312.945 218.997 314.386 219.222 316.413C219.267 316.773 219.312 317.133 219.357 317.516C219.695 320.578 220.032 323.911 220.325 327.424C220.573 330.328 230.908 335.868 239.194 336.588C244.193 337.039 245.701 335.462 246.062 334.066C246.107 333.886 246.152 333.706 246.197 333.503C247.255 329.27 248.629 320.916 249.574 314.634L249.664 314.093C249.957 312.112 250.25 310.198 250.497 308.419C251.038 304.704 251.713 300.155 252.051 298.016L218.704 312.247Z" fill="#21207F"/>
<path d="M281.458 356.021C279.589 358.565 274.185 361.582 264.458 361.74L215.867 362.01C216.069 353.904 220.393 338.772 217.758 327.446C222.802 326.928 230.615 330.959 234.848 332.4C241.13 334.516 243.72 333.526 252.681 336.003C252.884 336.07 253.109 336.115 253.312 336.16C253.379 336.183 253.424 336.183 253.492 336.205C257.5 337.264 260.968 338.57 263.962 340.011C276.887 346.271 281.007 355.052 281.39 355.953C281.39 355.976 281.413 355.998 281.413 355.998C281.458 355.998 281.458 356.021 281.458 356.021Z" fill="white"/>
<path d="M215.89 362.664C215.687 362.664 215.507 362.574 215.372 362.438C215.237 362.281 215.192 362.101 215.214 361.898C215.394 360.66 215.597 359.331 215.822 357.935C216.903 351.09 218.389 341.722 217.758 327.356C217.736 327.018 217.984 326.703 218.344 326.658C221.068 326.275 223.23 327.221 226.247 328.505C228.837 329.608 232.056 331.004 236.83 332.04C238.474 332.4 240.59 332.828 242.819 333.256C245.972 333.886 249.552 334.607 252.862 335.327C253.019 335.372 253.177 335.395 253.335 335.44L253.717 335.53C257.5 336.521 261.08 337.827 264.323 339.381C277.292 345.663 281.571 354.49 282.066 355.616C282.066 355.638 282.088 355.638 282.088 355.661C282.088 355.683 282.111 355.706 282.111 355.728C282.201 355.953 282.178 356.224 282.043 356.404C279.972 359.196 274.275 362.236 264.503 362.393L215.89 362.664ZM219.132 327.919C219.717 342.083 218.254 351.337 217.173 358.138C216.993 359.241 216.835 360.299 216.678 361.29L264.48 361.042C270.132 360.952 277.653 359.556 280.692 355.908C279.837 354.107 275.536 346.316 263.715 340.597C260.54 339.065 257.072 337.804 253.357 336.836L252.974 336.746C252.839 336.701 252.704 336.678 252.569 336.633C249.259 335.89 245.702 335.192 242.549 334.562C240.298 334.111 238.181 333.684 236.537 333.323C231.651 332.265 228.364 330.846 225.707 329.721C223.05 328.595 221.203 327.807 219.132 327.919Z" fill="#21207F"/>
<path d="M218.164 345.505C217.826 345.505 217.533 345.235 217.488 344.897C217.443 344.537 217.713 344.199 218.096 344.154C218.141 344.154 222.082 343.726 225.279 341.362C225.707 341.047 226.09 340.776 226.45 340.506C229.512 338.232 231.201 336.971 235.276 336.521C235.637 336.476 235.974 336.746 236.019 337.106C236.065 337.466 235.794 337.804 235.434 337.849C231.719 338.277 230.323 339.313 227.261 341.587C226.9 341.857 226.495 342.15 226.09 342.465C222.577 345.032 218.411 345.482 218.254 345.505C218.209 345.482 218.186 345.505 218.164 345.505ZM264.728 358.858C259.82 358.858 254.506 357.732 248.854 355.458C245.949 354.287 244.238 354.602 242.414 354.94C240.861 355.233 239.262 355.525 237.033 354.85C235.276 354.309 234.128 353.431 233.025 352.553C231.606 351.45 230.255 350.414 227.666 350.144C222.87 349.671 219.267 352.936 219.222 352.981C218.952 353.228 218.524 353.206 218.276 352.936C218.029 352.666 218.029 352.238 218.321 351.99C218.479 351.832 222.397 348.275 227.801 348.815C230.796 349.108 232.349 350.324 233.858 351.495C234.916 352.328 235.929 353.093 237.438 353.566C239.352 354.152 240.725 353.904 242.167 353.634C244.013 353.296 246.084 352.913 249.349 354.219C254.123 356.133 258.671 357.237 262.859 357.484C269.254 357.867 274.883 356.313 279.612 352.868C279.904 352.643 280.332 352.711 280.557 353.026C280.783 353.319 280.715 353.746 280.4 353.972C275.919 357.214 270.628 358.858 264.728 358.858Z" fill="#21207F"/>
<path d="M227.155 359.674C230.003 359.629 232.29 358.242 232.264 356.576C232.238 354.91 229.908 353.595 227.061 353.64C224.213 353.684 221.926 355.071 221.952 356.738C221.978 358.404 224.308 359.719 227.155 359.674Z" fill="#7242EE"/>
<path d="M244.711 346.653C244.486 346.653 244.261 346.608 244.058 346.518C243.202 346.158 242.797 345.167 243.157 344.312C243.27 344.041 246.084 337.466 254.596 334.607C255.474 334.314 256.442 334.787 256.735 335.665C257.027 336.543 256.555 337.511 255.676 337.804C248.674 340.168 246.377 345.392 246.264 345.618C245.994 346.271 245.386 346.653 244.711 346.653ZM250.498 348.793C250.25 348.793 250.002 348.747 249.755 348.612C248.921 348.207 248.584 347.194 248.989 346.361C249.124 346.068 252.592 339.133 261.013 337.038C261.914 336.813 262.837 337.354 263.062 338.277C263.287 339.178 262.747 340.101 261.824 340.326C254.978 342.037 252.051 347.802 252.006 347.847C251.714 348.432 251.128 348.793 250.498 348.793ZM257.163 350.459C256.892 350.459 256.645 350.391 256.397 350.279C255.564 349.851 255.249 348.838 255.676 348.004C255.812 347.757 259.009 341.722 266.687 339.898C267.588 339.695 268.511 340.236 268.714 341.159C268.939 342.06 268.376 342.983 267.453 343.186C261.261 344.649 258.694 349.491 258.649 349.536C258.356 350.121 257.77 350.459 257.163 350.459ZM103.937 245.64C96.8442 304.186 163.066 280.317 163.066 280.317C163.066 280.317 194.589 272.774 211.341 262.371C211.499 272.481 215.237 297.025 217.533 314.093C217.533 314.093 233.813 312.112 248.696 302.136C263.152 292.454 275.851 285.946 280.58 291.801C280.782 291.531 263.58 270.319 250.385 244.492C240.725 225.284 229.782 210.513 168.605 225.892C106.639 241.475 103.937 245.64 103.937 245.64Z" fill="#7242EE"/>
<mask id="mask0_2690_33711" style="mask-type:luminance" maskUnits="userSpaceOnUse" x="103" y="219" width="178" height="96">
<path d="M103.937 245.64C96.8442 304.186 163.066 280.317 163.066 280.317C163.066 280.317 194.589 272.774 211.341 262.371C211.499 272.481 215.237 297.025 217.533 314.093C217.533 314.093 233.813 312.112 248.696 302.136C263.152 292.454 275.851 285.946 280.58 291.801C280.782 291.531 263.58 270.319 250.385 244.492C240.725 225.284 229.782 210.513 168.605 225.892C106.639 241.475 103.937 245.64 103.937 245.64Z" fill="white"/>
</mask>
<g mask="url(#mask0_2690_33711)">
<path d="M210.576 264.33C210.553 264.33 210.553 264.33 210.576 264.33C210.193 264.33 209.9 264.015 209.9 263.632C210.126 253.589 210.688 248.32 210.688 248.275C210.734 247.915 211.049 247.645 211.432 247.667C211.792 247.712 212.062 248.05 212.039 248.41C212.039 248.455 211.477 253.679 211.251 263.655C211.229 264.037 210.936 264.33 210.576 264.33Z" fill="white"/>
</g>
<path d="M66.6943 350.572C67.1896 335.441 70.2744 330.014 73.6069 321.367C75.138 317.359 87.8374 298.895 79.7539 292.455C71.4453 285.857 51.1803 305.312 66.6943 350.572Z" fill="#21207F"/>
<path d="M66.6942 351.247C66.4015 351.247 66.1538 351.067 66.0637 350.797C61.065 336.16 59.2862 322.605 60.9749 311.616C62.3259 302.835 65.8385 295.877 70.6571 292.477C74.0571 290.09 77.6147 289.887 80.1816 291.936C87.1843 297.521 79.9565 310.873 76.0611 318.056C75.2055 319.655 74.53 320.894 74.2372 321.614C73.7644 322.83 73.2915 324.001 72.8412 325.127C70.1167 331.882 67.775 337.714 67.3697 350.594C67.3697 350.909 67.122 351.202 66.7842 351.247H66.6942ZM76.1061 291.891C74.62 291.891 72.9988 292.454 71.4227 293.58C69.2836 295.089 64.1273 299.885 62.3034 311.819C60.7948 321.727 62.1233 333.796 66.1988 346.879C66.9193 336.25 69.1035 330.824 71.6028 324.609C72.0531 323.483 72.526 322.335 72.9988 321.119C73.3141 320.331 74.0121 319.025 74.8902 317.403C78.583 310.581 85.473 297.858 79.371 292.995C78.4028 292.251 77.2995 291.891 76.1061 291.891Z" fill="#21207F"/>
<path d="M73.6069 321.366L66.3565 351.72C66.3565 351.72 61.4479 349.49 55.4585 346.676C47.9604 343.14 38.7737 338.682 35.3286 336.43C28.2584 331.814 42.6915 314.206 50.8651 316.592C55.1658 317.853 59.1737 318.799 62.5962 319.52C63.3393 319.677 64.0373 319.812 64.7128 319.947C65.2757 320.06 65.8386 320.15 66.3565 320.263C70.8148 321.073 73.6069 321.366 73.6069 321.366Z" fill="white"/>
<path d="M66.3564 352.395C66.2663 352.395 66.1763 352.372 66.0862 352.327C66.0412 352.305 61.11 350.076 55.1656 347.283C47.8928 343.861 38.4583 339.29 34.9682 336.993C32.4689 335.349 32.0861 332.129 33.9325 328.099C37.0848 321.253 45.4384 314.295 51.0451 315.939C54.8279 317.042 58.7683 318.033 62.7312 318.844C63.4517 319.001 64.1723 319.137 64.8478 319.272C65.4107 319.384 65.9736 319.474 66.4915 319.587C70.8822 320.375 73.6743 320.69 73.6968 320.69C73.8995 320.713 74.0571 320.803 74.1697 320.983C74.2822 321.163 74.3273 321.343 74.2822 321.523L67.0319 351.877C66.9869 352.08 66.8518 352.237 66.6716 352.327C66.559 352.372 66.4465 352.395 66.3564 352.395ZM49.2663 317.065C47.2398 317.065 44.7404 318.123 42.1961 320.082C39.2464 322.357 36.5444 325.667 35.1484 328.684C34.2477 330.643 33.1219 334.201 35.6887 335.867C39.1338 338.119 48.4782 342.645 55.7285 346.067C60.2994 348.229 64.2849 350.053 65.8835 350.774L72.7736 321.951C71.6478 321.816 69.3286 321.501 66.2213 320.915C65.7034 320.825 65.1405 320.713 64.5776 320.6C63.9021 320.465 63.1815 320.33 62.461 320.172C58.4531 319.339 54.4901 318.348 50.6623 317.245C50.2345 317.11 49.7616 317.065 49.2663 317.065Z" fill="#21207F"/>
<path d="M62.5962 319.52L55.4585 346.676C47.9604 343.14 38.7737 338.682 35.3286 336.43C28.2584 331.814 42.6915 314.206 50.8651 316.592C55.1432 317.853 59.1737 318.822 62.5962 319.52Z" fill="#D2C7F6"/>
<path d="M48.6021 343.563L55.82 317.945L57.2937 318.361L50.0758 343.978L48.6021 343.563Z" fill="white"/>
<path d="M66.3564 352.395C66.2663 352.395 66.1763 352.372 66.0862 352.327C66.0412 352.305 61.11 350.076 55.1656 347.283C47.8928 343.861 38.4583 339.29 34.9682 336.993C32.4689 335.349 32.0861 332.129 33.9325 328.099C37.0848 321.253 45.4384 314.295 51.0451 315.939C54.8279 317.042 58.7683 318.033 62.7312 318.844C63.4517 319.001 64.1723 319.137 64.8478 319.272C65.4107 319.384 65.9736 319.474 66.4915 319.587C70.8822 320.375 73.6743 320.69 73.6968 320.69C73.8995 320.713 74.0571 320.803 74.1697 320.983C74.2822 321.163 74.3273 321.343 74.2822 321.523L67.0319 351.877C66.9869 352.08 66.8518 352.237 66.6716 352.327C66.559 352.372 66.4465 352.395 66.3564 352.395ZM49.2663 317.065C47.2398 317.065 44.7404 318.123 42.1961 320.082C39.2464 322.357 36.5444 325.667 35.1484 328.684C34.2477 330.643 33.1219 334.201 35.6887 335.867C39.1338 338.119 48.4782 342.645 55.7285 346.067C60.2994 348.229 64.2849 350.053 65.8835 350.774L72.7736 321.951C71.6478 321.816 69.3286 321.501 66.2213 320.915C65.7034 320.825 65.1405 320.713 64.5776 320.6C63.9021 320.465 63.1815 320.33 62.461 320.172C58.4531 319.339 54.4901 318.348 50.6623 317.245C50.2345 317.11 49.7616 317.065 49.2663 317.065Z" fill="#21207F"/>
<path d="M103.937 245.64C100.807 264.464 104.499 287.522 117.244 319.362C117.244 319.362 99.1405 309.837 80.857 292.476C88.2875 301.933 71.355 317.47 67.7523 336.588C65.7483 347.193 64.645 351.697 64.645 351.697C65.5007 352.35 130.754 379.055 149.127 356.38C167.501 333.683 163.043 280.317 163.043 280.317C163.043 280.317 162.345 253.521 153.338 229.652C110.264 241.136 103.937 245.64 103.937 245.64Z" fill="#7242EE"/>
<mask id="mask1_2690_33711" style="mask-type:luminance" maskUnits="userSpaceOnUse" x="103" y="219" width="178" height="96">
<path d="M103.937 245.64C96.8442 304.186 163.066 280.317 163.066 280.317C163.066 280.317 194.589 272.774 211.341 262.371C211.499 272.481 215.237 297.025 217.533 314.093C217.533 314.093 233.813 312.112 248.696 302.136C263.152 292.454 275.851 285.946 280.58 291.801C280.782 291.531 263.58 270.319 250.385 244.492C240.725 225.284 229.782 210.513 168.605 225.892C106.639 241.475 103.937 245.64 103.937 245.64Z" fill="white"/>
</mask>
<g mask="url(#mask1_2690_33711)">
<path d="M163.966 283.694C163.606 283.694 163.313 283.424 163.291 283.063C162.413 269.283 160.296 257.754 158.135 247.351C158.067 246.991 158.292 246.63 158.652 246.563C159.013 246.495 159.373 246.72 159.44 247.081C161.625 257.529 163.764 269.103 164.642 282.973C164.664 283.356 164.372 283.671 164.011 283.694H163.966Z" fill="white"/>
</g>
<mask id="mask2_2690_33711" style="mask-type:luminance" maskUnits="userSpaceOnUse" x="64" y="230" width="100" height="136">
<path d="M103.937 245.64C100.807 264.465 104.499 287.523 117.244 319.362C117.244 319.362 99.1405 309.838 80.857 292.477C88.2875 301.934 71.355 317.471 67.7523 336.588C65.7483 347.194 64.645 351.697 64.645 351.697C65.5007 352.35 130.754 379.056 149.127 356.381C167.501 333.684 163.043 280.317 163.043 280.317C163.043 280.317 159.868 253.747 149.127 230.914C106.053 242.398 103.937 245.64 103.937 245.64Z" fill="white"/>
</mask>
<g mask="url(#mask2_2690_33711)">
<path d="M130.326 325.735C130.236 325.735 130.146 325.712 130.056 325.667C129.966 325.622 120.846 321.637 114.722 317.809C114.407 317.606 114.316 317.201 114.497 316.885C114.699 316.57 115.105 316.48 115.42 316.66C121.454 320.443 130.483 324.384 130.573 324.429C130.911 324.586 131.069 324.969 130.934 325.307C130.844 325.577 130.596 325.735 130.326 325.735Z" fill="white"/>
</g>
<path d="M2.29666 363.631C0.562879 360.997 -0.427853 354.872 2.79202 345.707L19.2742 300.02C26.8173 303.014 39.5166 312.269 51.0677 313.71C49.8293 318.619 43.3445 324.564 40.5299 328.054C36.3868 333.233 36.4094 336.002 31.0054 343.568C30.8703 343.748 30.7577 343.929 30.6226 344.109C30.5775 344.154 30.555 344.199 30.51 344.266C28.1458 347.666 25.714 350.481 23.3272 352.8C12.9921 362.798 3.33242 363.609 2.36421 363.676H2.31918L2.29666 363.631Z" fill="white"/>
<path d="M2.29677 364.307C2.0716 364.307 1.84644 364.194 1.71134 364.014C-0.202578 361.109 -1.10324 354.714 2.11663 345.482L18.5988 299.772C18.6664 299.592 18.8015 299.434 18.9816 299.366C19.1617 299.299 19.3644 299.299 19.5445 299.411C20.6478 299.997 21.8187 300.65 23.0571 301.348C29.1141 304.726 37.3777 309.342 51.1128 313.687C51.4506 313.8 51.6532 314.138 51.5631 314.476C50.9777 317.155 49.3565 318.889 47.1049 321.253C45.1684 323.302 42.7592 325.847 40.1472 329.968C39.2466 331.386 38.1207 333.233 36.9273 335.169C35.2611 337.916 33.3472 341.024 31.5234 343.883L31.2532 344.289L31.028 344.604C28.7988 347.824 26.3445 350.729 23.7551 353.228C13.3975 363.248 3.62525 364.217 2.38683 364.284H2.27425C2.31928 364.307 2.31928 364.307 2.29677 364.307ZM19.6346 300.965L3.4226 345.932C1.55372 351.269 0.292788 358.812 2.65703 362.933C4.6385 362.73 13.4425 361.379 22.877 352.282C25.3988 349.828 27.7856 346.991 29.9697 343.861L30.1949 343.546C30.2849 343.433 30.3525 343.32 30.4426 343.185C32.2664 340.326 34.1578 337.241 35.8465 334.494C37.0399 332.535 38.1658 330.688 39.0664 329.27C41.7459 325.036 44.2002 322.447 46.1817 320.353C48.1631 318.259 49.5367 316.795 50.1446 314.791C36.6571 310.467 28.4611 305.896 22.4491 302.541C21.4584 301.978 20.5127 301.461 19.6346 300.965Z" fill="#21207F"/>
<path d="M35.8691 327.49C35.8241 327.49 35.7565 327.49 35.7115 327.468C35.3512 327.378 35.126 327.018 35.2161 326.657C36.0942 323.032 35.5989 321.366 34.5181 317.695C34.383 317.245 34.2479 316.795 34.1128 316.299C32.8969 312.111 33.9101 308.058 33.9552 307.878C34.0452 307.517 34.4055 307.292 34.7658 307.382C35.126 307.472 35.3512 307.833 35.2611 308.193C35.2611 308.238 34.2929 312.066 35.3962 315.894C35.5313 316.389 35.6664 316.862 35.8015 317.29C36.8823 320.938 37.4678 322.964 36.5221 326.95C36.432 327.288 36.1618 327.49 35.8691 327.49ZM5.24647 363.856C4.95375 363.856 4.68355 363.653 4.59348 363.361C1.80142 353.588 5.06633 343.163 14.0505 333.21C16.1445 330.891 16.4372 329.157 16.7525 327.355C17.0227 325.802 17.2929 324.203 18.6889 322.334C19.7922 320.87 21.0306 320.105 22.224 319.362C23.7551 318.416 25.1962 317.515 26.322 315.151C28.4161 310.783 26.5922 306.302 26.5697 306.257C26.4346 305.919 26.5922 305.513 26.93 305.378C27.2677 305.243 27.673 305.401 27.8081 305.739C27.8982 305.941 29.8797 310.85 27.5379 315.736C26.232 318.461 24.5657 319.497 22.9445 320.51C21.7962 321.231 20.7379 321.884 19.7697 323.145C18.5538 324.743 18.3286 326.117 18.0809 327.58C17.7657 329.427 17.428 331.521 15.0637 334.133C11.6187 337.939 9.02926 341.834 7.34051 345.707C4.77362 351.562 4.30077 357.394 5.89945 363.023C6.01203 363.383 5.78687 363.766 5.4266 363.856H5.24647Z" fill="#21207F"/>
<path d="M23.2614 313.367C24.2 310.678 23.6856 308.053 22.1124 307.504C20.5391 306.955 18.5029 308.689 17.5643 311.378C16.6256 314.067 17.1401 316.691 18.7133 317.241C20.2865 317.79 22.3228 316.056 23.2614 313.367Z" fill="#7242EE"/>
<path d="M29.9473 347.442H29.9022C28.9791 347.419 28.236 346.653 28.2585 345.708C28.4387 338.322 24.3406 334.359 24.1605 334.179C23.485 333.548 23.44 332.467 24.093 331.792C24.7234 331.116 25.7817 331.071 26.4797 331.702C26.7049 331.905 31.8837 336.813 31.6585 345.775C31.6135 346.698 30.8479 347.442 29.9473 347.442ZM25.4665 352.485H25.2863C24.3632 352.395 23.6877 351.562 23.7777 350.617C24.5433 343.591 20.13 338.862 20.085 338.817C19.4545 338.142 19.477 337.084 20.1525 336.431C20.828 335.8 21.8863 335.8 22.5393 336.476C22.7645 336.701 28.0784 342.353 27.1552 350.977C27.0426 351.832 26.3221 352.485 25.4665 352.485ZM20.8506 356.786C20.783 356.786 20.7155 356.786 20.6479 356.764C19.7247 356.651 19.0717 355.818 19.1618 354.895C19.9049 348.635 16.3698 344.604 16.2121 344.447C15.5817 343.749 15.6492 342.69 16.3247 342.06C17.0227 341.429 18.081 341.474 18.7115 342.172C18.9141 342.375 23.4625 347.464 22.5168 355.3C22.4042 356.156 21.6837 356.786 20.8506 356.786Z" fill="#7242EE"/>
<path d="M181.687 211.143C190.153 203.915 193.643 193.782 195.985 187.478C200.6 175.025 205.824 169.193 211.363 169.193C219.244 169.171 210.891 202.834 181.687 211.143Z" fill="#21207F"/>
<path d="M181.687 211.82C181.439 211.82 181.214 211.684 181.101 211.459C180.944 211.189 181.011 210.829 181.259 210.626C189.252 203.803 192.765 194.279 195.084 187.996L195.354 187.231C199.948 174.801 205.329 168.496 211.341 168.496C213.143 168.496 214.381 169.915 214.719 172.369C215.304 176.625 213.39 184.641 207.716 192.927C203.258 199.458 195.152 208.014 181.844 211.797C181.799 211.797 181.732 211.82 181.687 211.82ZM211.341 169.847C205.937 169.847 200.984 175.859 196.593 187.703L196.323 188.469C194.184 194.279 191.031 202.79 184.344 209.59C195.58 205.582 202.627 198.016 206.613 192.162C210.418 186.6 214.156 178.089 213.39 172.572C213.233 171.311 212.737 169.847 211.341 169.847Z" fill="#21207F"/>
<path d="M259.166 154.716C247.322 170.545 247.57 189.572 232.259 206.843C215.349 225.916 198.889 220.219 181.687 211.144L200.443 177.773C201.974 178.742 203.865 180.025 205.532 181.241C205.869 181.489 206.207 181.736 206.522 181.962C208.391 183.313 209.81 184.393 209.81 184.393C209.81 184.393 222.869 156.112 241.783 136.724C262.364 115.648 257.455 127.492 257.455 127.492C281.75 110.266 268.533 125.646 268.533 125.646C282.876 117.382 271.55 129.609 271.55 129.609C283.056 124.857 270.695 135.778 270.447 136.004C280.039 131.297 269.254 141.205 259.166 154.716Z" fill="white"/>
<path d="M207.693 220.219H207.085C198.281 220.038 189.523 216.03 181.371 211.752C181.214 211.662 181.101 211.527 181.034 211.347C180.989 211.167 181.011 210.986 181.101 210.829L199.858 177.458C199.948 177.3 200.105 177.188 200.285 177.143C200.466 177.098 200.646 177.12 200.803 177.233C202.132 178.066 203.866 179.237 205.915 180.723C206.252 180.971 206.59 181.218 206.905 181.444C208.009 182.232 208.954 182.952 209.54 183.38C211.769 178.741 224.221 153.747 241.288 136.296C246.309 131.162 250.25 127.537 252.997 125.533C255.474 123.709 257.005 123.191 257.951 123.799C258.626 124.249 258.716 125.082 258.604 125.916C269.884 118.035 271.708 118.26 272.474 119.115C273.127 119.836 272.744 121.119 271.145 123.416C271.1 123.461 271.078 123.529 271.033 123.574C274.455 121.862 275.626 121.93 276.189 122.651C276.819 123.439 276.302 124.812 274.478 127.222C274.23 127.537 273.982 127.852 273.735 128.145C275.514 127.604 276.482 127.694 276.91 128.393C277.608 129.518 276.054 131.41 274.253 133.301C273.937 133.617 273.645 133.932 273.329 134.225C273.937 134.134 274.32 134.27 274.568 134.607C275.423 135.688 273.915 137.602 268.556 144.042C265.966 147.15 262.747 151.023 259.639 155.188C254.37 162.236 251.556 169.825 248.584 177.886C244.958 187.658 241.221 197.769 232.709 207.361C225.054 215.985 216.835 220.219 207.693 220.219ZM182.61 210.851C190.446 214.949 198.799 218.687 207.108 218.845C216.07 219.025 224.153 214.949 231.764 206.37C240.095 196.958 243.81 186.983 247.39 177.323C250.407 169.194 253.245 161.493 258.649 154.288C261.778 150.099 265.021 146.204 267.61 143.096C270.222 139.966 272.902 136.724 273.442 135.531C273.059 135.621 272.294 135.868 270.785 136.611C270.47 136.769 270.11 136.656 269.929 136.386C269.749 136.116 269.794 135.733 270.042 135.508C273.127 132.783 275.626 129.991 275.806 129.091C275.514 129.068 274.568 129.113 271.866 130.239C271.573 130.352 271.235 130.261 271.055 129.991C270.875 129.721 270.898 129.383 271.123 129.136C273.284 126.794 275.108 124.227 275.198 123.439C274.861 123.416 273.487 123.596 268.939 126.208C268.646 126.366 268.286 126.298 268.083 126.051C267.88 125.803 267.88 125.42 268.083 125.173C269.907 123.056 271.438 120.714 271.506 119.971C270.92 119.948 268.398 120.579 257.906 128.01C257.658 128.19 257.32 128.167 257.095 127.987C256.87 127.807 256.78 127.469 256.892 127.199C257.365 126.073 257.455 124.947 257.275 124.835C257.275 124.835 256.622 124.52 253.853 126.524C251.151 128.483 247.278 132.063 242.324 137.152C223.703 156.224 210.598 184.348 210.485 184.618C210.395 184.799 210.238 184.934 210.035 185.001C209.833 185.046 209.63 185.001 209.472 184.889C209.45 184.889 208.031 183.808 206.185 182.457C205.87 182.232 205.532 181.984 205.194 181.736C203.438 180.475 201.952 179.462 200.736 178.674L182.61 210.851Z" fill="#21207F"/>
<path d="M206.522 194.751C206.477 194.751 206.41 194.751 206.365 194.728C206.005 194.638 205.779 194.278 205.869 193.918C206.748 190.202 207.738 187.298 209.292 183.875C209.45 183.537 209.855 183.38 210.193 183.537C210.53 183.695 210.688 184.1 210.53 184.438C208.999 187.793 208.054 190.54 207.198 194.21C207.108 194.548 206.815 194.751 206.522 194.751ZM248.854 148.59C248.741 148.59 248.651 148.568 248.538 148.523C248.201 148.343 248.066 147.937 248.246 147.622C252.231 139.831 255.001 132.333 256.487 128.325C256.667 127.829 256.847 127.379 256.982 126.973C257.117 126.613 257.5 126.456 257.86 126.568C258.221 126.703 258.378 127.086 258.266 127.446C258.108 127.829 257.95 128.28 257.77 128.775C256.262 132.828 253.492 140.371 249.462 148.23C249.327 148.455 249.079 148.59 248.854 148.59ZM260.923 133.796C260.742 133.796 260.562 133.729 260.427 133.571C260.18 133.301 260.202 132.873 260.472 132.625C260.517 132.58 265.741 127.829 268.601 124.519C268.848 124.226 269.276 124.204 269.546 124.452C269.839 124.699 269.862 125.127 269.614 125.397C266.709 128.775 261.598 133.413 261.373 133.616C261.26 133.729 261.08 133.796 260.923 133.796ZM263.692 137.332C263.49 137.332 263.309 137.241 263.174 137.084C262.927 136.791 262.972 136.363 263.264 136.138C263.309 136.093 268.376 131.86 272.001 128.099C272.248 127.829 272.676 127.829 272.946 128.077C273.217 128.325 273.217 128.752 272.969 129.023C269.299 132.851 264.165 137.129 264.12 137.174C264.007 137.264 263.85 137.332 263.692 137.332ZM265.291 141.385C265.111 141.385 264.931 141.317 264.795 141.159C264.548 140.889 264.57 140.461 264.84 140.214L271.595 134.134C271.866 133.886 272.294 133.909 272.541 134.179C272.789 134.449 272.766 134.877 272.496 135.125L265.741 141.204C265.606 141.34 265.448 141.385 265.291 141.385Z" fill="#21207F"/>
<path d="M158.855 156.697C163.989 151.27 172.297 158.543 183.06 163.632C193.823 168.721 211.341 169.171 211.341 169.171C211.341 169.171 202.74 168.563 195.962 187.456C188.824 207.406 181.664 211.121 181.664 211.121C174.436 207.113 162.593 198.354 162.593 198.354C150.456 186.42 152.032 163.227 158.855 156.697Z" fill="white"/>
<path d="M181.686 211.82C181.574 211.82 181.461 211.797 181.349 211.73C174.166 207.767 162.322 199.007 162.21 198.917L162.142 198.85C156.198 193.018 152.843 183.898 152.91 173.788C152.955 166.132 155.049 159.399 158.382 156.202C162.615 151.743 168.784 155.166 175.922 159.107C178.286 160.413 180.718 161.764 183.353 163.002C193.463 167.776 209.9 168.429 211.273 168.474H211.386C211.746 168.496 212.039 168.812 212.016 169.172C211.994 169.532 211.701 169.825 211.318 169.825H211.251C210.958 169.825 209.044 169.892 206.455 171.851C203.843 173.833 199.992 178.179 196.592 187.681C189.455 207.677 182.294 211.572 181.979 211.73C181.889 211.775 181.777 211.82 181.686 211.82ZM163.065 197.859C163.808 198.399 174.751 206.461 181.664 210.356C183.06 209.388 189.229 204.367 195.354 187.231C199.43 175.86 204.181 171.379 207.445 169.622C205.734 169.487 203.55 169.284 201.163 168.969C195.894 168.271 188.419 166.898 182.79 164.241C180.133 162.98 177.678 161.629 175.292 160.3C167.591 156.044 162.705 153.612 159.372 157.148L159.35 157.17C156.333 160.052 154.351 166.582 154.284 173.788C154.194 183.515 157.391 192.275 163.065 197.859Z" fill="#21207F"/>
<path d="M158.855 156.697C159.463 173.585 162.615 198.377 162.615 198.377C164.619 211.437 168.605 225.893 168.605 225.893C158.922 232.513 149.083 240.349 123.414 244.493C104.86 247.487 88.8282 242.804 85.4507 249.109C92.6785 232.806 99.7487 213.599 102.969 204.524C107.9 186.195 118.933 160.075 136.271 152.869L158.855 156.697Z" fill="white"/>
<path d="M85.4505 249.783C85.3605 249.783 85.2479 249.76 85.1578 249.715C84.8426 249.558 84.685 249.175 84.8426 248.837C92.4082 231.769 99.591 212.044 102.338 204.32C104.049 197.948 107.877 185.608 114.384 174.192C120.802 162.933 128.075 155.548 136.023 152.237C136.135 152.192 136.271 152.17 136.406 152.192L158.99 156.02C159.305 156.065 159.53 156.336 159.553 156.673C160.138 173.336 163.291 198.038 163.313 198.286C165.272 211.143 169.257 225.577 169.28 225.712C169.347 225.982 169.257 226.297 169.01 226.455C168.312 226.928 167.636 227.401 166.938 227.873C157.842 234.156 147.529 241.271 123.549 245.144C115.78 246.405 108.327 246.315 102.338 246.248C93.9168 246.158 87.8373 246.09 86.0585 249.4C85.9234 249.648 85.6757 249.783 85.4505 249.783ZM136.338 153.566C128.75 156.786 121.77 163.947 115.533 174.867C109.093 186.149 105.288 198.398 103.599 204.703C103.599 204.726 103.599 204.748 103.576 204.748C100.987 212.021 94.4347 230.013 87.3419 246.405C90.4943 244.784 95.7181 244.852 102.293 244.919C108.553 244.987 115.623 245.077 123.278 243.838C146.966 240.01 157.143 232.985 166.128 226.77C166.691 226.387 167.253 225.982 167.816 225.599C167.118 223.01 163.718 210.107 161.94 198.466C161.917 198.196 158.832 173.967 158.179 157.259L136.338 153.566Z" fill="#21207F"/>
<path d="M175.044 137.107C173.513 138.638 167.591 139.201 164.687 139.178C160.071 141.34 158.878 153.026 158.787 159.309C155.41 162.078 146.223 165.861 135.933 153.544C135.933 153.544 145.413 144.898 147.394 135.981C147.462 135.62 146.336 131.68 145.75 129.383C145.48 128.347 136.721 119.746 143.026 109.388C147.98 101.236 160.882 99.6601 166.353 107.271C167.164 108.307 167.952 109.365 168.605 110.491V110.513C169.866 112.495 170.744 114.769 172.388 116.481C172.995 117.021 173.806 117.246 174.572 117.404C176.238 117.719 175.382 120.016 174.437 120.962C175.382 123.979 178.805 133.369 175.044 137.107Z" fill="white"/>
<path d="M156.063 102.361V103.712C159.89 103.712 163.245 105.311 165.227 108.081C165.249 108.103 165.249 108.126 165.272 108.126C166.195 109.274 166.871 110.242 167.433 111.188V111.211C167.433 111.233 167.456 111.233 167.456 111.256C167.861 111.886 168.222 112.539 168.582 113.237C169.37 114.678 170.18 116.165 171.396 117.425L171.464 117.493C172.252 118.214 173.22 118.506 174.143 118.709C174.098 119.047 173.828 119.655 173.468 120.015C173.108 120.375 172.973 120.893 173.13 121.389C173.198 121.614 173.288 121.861 173.378 122.132C174.369 125.171 176.98 133.278 174.076 136.16C173.13 137.106 168.334 137.849 164.844 137.849H164.686C164.484 137.849 164.304 137.894 164.124 137.984C161.692 139.132 159.868 142.307 158.72 147.441C157.751 151.765 157.504 156.358 157.459 158.655C156.4 159.398 154.104 160.681 150.884 160.681C146.425 160.681 141.855 158.182 137.599 153.431C140.098 150.931 146.741 143.703 148.429 136.115V136.07C148.474 135.8 148.519 135.552 147.979 133.075C147.709 131.859 147.371 130.35 147.056 129.112C146.943 128.707 146.696 128.324 146.178 127.603C145.232 126.297 143.476 123.843 142.62 120.781C141.584 117.11 142.125 113.53 144.174 110.152C146.538 106.257 151.221 103.757 156.063 103.757V102.361ZM156.063 102.361C151.019 102.361 145.772 104.861 143.003 109.409C136.698 119.767 145.48 128.369 145.727 129.405C146.29 131.702 147.123 135.417 147.078 135.8C145.074 144.717 135.708 153.318 135.708 153.318C141.292 159.983 146.628 162.01 150.861 162.01C154.419 162.01 157.233 160.591 158.765 159.308C158.855 153.026 160.048 141.339 164.664 139.177H164.844C167.816 139.177 173.535 138.592 175.044 137.106C178.804 133.368 175.382 123.978 174.436 120.961C175.404 120.015 176.26 117.718 174.571 117.403C173.783 117.245 172.995 117.02 172.387 116.48C170.743 114.768 169.865 112.494 168.604 110.513V110.49C167.929 109.364 167.163 108.306 166.353 107.27C163.921 103.938 160.048 102.361 156.063 102.361Z" fill="#21207F"/>
<path d="M161.894 116.615C160.228 118.169 159.958 120.353 160.814 121.051C161.669 121.749 163.628 120.983 164.957 119.137C166.33 117.245 166.826 115.286 166.038 114.701C165.227 114.093 163.538 115.084 161.894 116.615ZM173.153 128.572C172.95 128.819 172.702 129 172.432 129.135C172.162 129.27 171.869 129.36 171.577 129.382C170.969 129.472 170.361 129.382 169.798 129.135C169.528 129 169.257 128.819 169.032 128.617C168.807 128.414 168.604 128.166 168.469 127.896C168.154 127.378 168.041 126.748 168.154 126.14C168.199 125.96 168.379 125.825 168.559 125.87C168.694 125.892 168.807 126.027 168.83 126.162V126.185C168.897 126.815 169.235 127.401 169.73 127.806C169.888 127.941 170.068 128.054 170.248 128.144C170.631 128.324 171.059 128.392 171.487 128.392C171.914 128.392 172.32 128.279 172.702 128.054L172.725 128.031C172.883 127.941 173.108 127.986 173.198 128.144C173.265 128.302 173.243 128.459 173.153 128.572ZM165.407 120.623C166.015 119.857 167.501 118.079 168.447 115.894C168.582 115.602 168.942 115.444 169.235 115.579C170.023 115.939 171.194 116.705 170.361 118.124C169.325 119.857 166.6 121.321 165.565 121.118C165.407 121.073 165.294 120.916 165.339 120.758C165.339 120.713 165.362 120.668 165.407 120.623Z" fill="#21207F"/>
<path d="M141.157 130.351C141.022 130.419 140.864 130.509 140.684 130.576C136.046 132.693 114.812 138.367 112.133 132.558C109.994 127.897 123.571 121.389 129.989 118.62C130.236 118.507 130.484 118.417 130.709 118.304C132.105 117.719 133.051 117.336 133.186 117.291H133.208L141.157 130.351Z" fill="#D2C7F6"/>
<path d="M141.157 130.35C141.021 130.418 140.864 130.508 140.684 130.575C138.41 130.17 131.632 127.626 129.988 118.596C130.236 118.484 130.484 118.393 130.709 118.281C132.105 117.695 133.051 117.313 133.186 117.268H133.208C133.208 117.29 136.203 126.815 141.157 130.35Z" fill="#21207F"/>
<path d="M168.605 110.537C168.154 111.1 167.501 111.865 166.916 112.473C166.916 112.473 166.916 112.496 166.893 112.496C165.948 113.486 164.799 114.612 163.493 115.806C163.381 115.896 163.291 115.986 163.201 116.076C158.923 119.949 153.226 124.272 149.173 126.006C147.822 126.592 146.651 127.064 145.615 127.47C145.503 127.515 145.367 127.56 145.255 127.605C144.624 127.853 144.062 128.078 143.544 128.258C143.476 128.28 143.409 128.303 143.341 128.348L143.183 128.393C143.093 128.416 143.003 128.461 142.936 128.483C142.756 128.551 142.553 128.618 142.395 128.686L142.193 128.753C141.517 129.001 140.977 129.181 140.526 129.316L140.324 129.384C140.256 129.406 140.189 129.429 140.144 129.451C140.076 129.474 139.761 129.541 139.626 129.586C130.236 122.629 130.822 108.127 142.553 101.822C142.688 101.755 142.823 101.687 142.936 101.62C142.936 101.62 142.958 101.62 142.958 101.597C144.985 100.539 147.191 99.8184 149.466 99.4807C154.599 98.7826 159.575 100.584 163.358 104.029C163.628 104.277 163.876 104.525 164.124 104.772C165.362 106.033 166.511 107.384 167.524 108.848C167.907 109.411 168.267 109.974 168.605 110.537Z" fill="#D2C7F6"/>
<path d="M149.15 126.006C149.15 126.006 144.512 123.844 140.954 126.659C137.599 129.293 140.121 134.968 147.979 135.959C149.578 136.116 151.177 136.026 152.753 135.666" fill="white"/>
<path d="M149.443 136.679C148.925 136.679 148.407 136.656 147.912 136.611C145.525 136.319 143.431 135.576 141.855 134.472C140.391 133.459 139.378 132.13 138.995 130.757C138.5 129.001 139.085 127.267 140.526 126.118C144.354 123.101 149.218 125.308 149.443 125.398C149.781 125.555 149.938 125.961 149.781 126.298C149.623 126.636 149.218 126.794 148.88 126.636C148.813 126.614 144.557 124.7 141.382 127.199C140.346 128.01 139.964 129.158 140.324 130.419C140.842 132.288 143.183 134.675 148.092 135.283C149.601 135.44 151.132 135.328 152.618 134.99C152.978 134.9 153.338 135.125 153.429 135.508C153.519 135.891 153.293 136.229 152.911 136.319C151.762 136.566 150.614 136.679 149.443 136.679Z" fill="#21207F"/>
<mask id="mask3_2690_33711" style="mask-type:luminance" maskUnits="userSpaceOnUse" x="135" y="99" width="42" height="64">
<path d="M174.437 120.984C175.382 123.979 178.805 133.368 175.045 137.129C173.513 138.66 167.592 139.223 164.687 139.2C164.642 139.223 164.619 139.245 164.574 139.245C160.026 141.34 158.788 154.084 158.788 159.331C155.41 162.101 146.021 165.636 135.73 153.341C135.73 153.341 145.097 144.74 147.101 135.823C147.191 135.305 145.368 127.581 145.255 127.649C144.625 127.897 144.062 128.122 143.544 128.302L143.341 128.392C143.296 128.415 143.251 128.437 143.183 128.437C143.093 128.482 143.003 128.505 142.936 128.527C142.756 128.595 142.553 128.662 142.395 128.73L142.193 128.797C141.517 129.045 140.977 129.225 140.527 129.36L140.324 129.428C140.256 129.45 140.189 129.473 140.144 129.495C140.099 129.518 140.031 129.54 139.964 129.54C139.896 129.54 139.851 129.585 139.783 129.585L142.508 101.844C142.643 101.776 142.778 101.709 142.891 101.641C142.891 101.641 142.913 101.641 142.913 101.619C144.94 100.56 147.146 99.8399 149.443 99.5021C154.577 98.8041 159.553 100.605 163.336 104.051C164.912 105.492 166.263 107.136 167.524 108.869C167.907 109.387 168.244 109.928 168.582 110.491V110.513C169.033 111.256 169.46 112.022 169.888 112.787C170.203 113.328 170.496 113.868 170.834 114.409C171.262 115.107 171.757 115.94 172.388 116.503C172.995 117.043 173.806 117.268 174.572 117.426C176.238 117.741 175.382 120.038 174.437 120.984Z" fill="white"/>
</mask>
<g mask="url(#mask3_2690_33711)">
<path d="M164.89 138.524C164.844 138.546 164.822 138.569 164.777 138.569C163.606 140.033 162.525 141.879 161.377 144.086C157.031 142.262 155.005 138.569 155.86 137.556C156.513 136.79 158.202 137.33 159.26 137.601C161.422 138.119 162.998 138.411 164.89 138.524Z" fill="#21207F"/>
<path d="M161.399 144.762C161.309 144.762 161.219 144.739 161.129 144.716C157.752 143.298 155.522 140.663 155.095 138.817C154.892 137.939 155.117 137.398 155.365 137.128C156.221 136.137 157.864 136.543 159.08 136.858C159.215 136.88 159.328 136.925 159.44 136.948C161.489 137.443 163.043 137.736 164.934 137.849C165.25 137.871 165.497 138.096 165.565 138.412C165.61 138.704 165.475 138.975 165.227 139.132C164.236 140.393 163.246 142.037 162.007 144.424C161.872 144.626 161.647 144.762 161.399 144.762ZM156.941 137.849C156.693 137.849 156.491 137.894 156.401 138.006C156.378 138.029 156.333 138.209 156.446 138.614C156.761 139.763 158.27 141.857 161.107 143.208C162.007 141.496 162.795 140.168 163.583 139.087C162.142 138.929 160.791 138.659 159.148 138.254C159.035 138.231 158.9 138.186 158.765 138.164C158.27 138.051 157.481 137.849 156.941 137.849Z" fill="#21207F"/>
</g>
<path d="M150.861 132.244C150.704 132.244 150.523 132.176 150.411 132.063C147.056 128.956 143.814 130.442 143.768 130.465C143.431 130.622 143.025 130.487 142.868 130.149C142.71 129.812 142.845 129.406 143.183 129.249C143.341 129.159 147.304 127.357 151.312 131.095C151.582 131.343 151.604 131.771 151.357 132.041C151.221 132.176 151.041 132.244 150.861 132.244ZM168.604 110.537C168.154 111.1 167.501 111.865 166.916 112.473C166.916 112.473 166.916 112.496 166.893 112.496C165.947 113.487 164.799 114.612 163.493 115.806C163.38 115.896 163.29 115.986 163.2 116.076C161.894 115.018 160.408 112.518 160.498 110.379C160.588 108.24 161.782 106.281 164.146 104.84C165.384 106.101 166.533 107.452 167.546 108.915C167.906 109.411 168.267 109.974 168.604 110.537ZM73.8994 165.93C66.4689 164.804 63.0914 201.732 108.035 199.931C108.035 199.931 97.4743 196.756 88.3776 186.848C82.3882 180.341 82.0955 167.168 73.8994 165.93Z" fill="#21207F"/>
<path d="M104.883 200.673C96.529 200.673 89.4137 199.277 83.6945 196.507C78.2905 193.895 74.26 190.18 71.6481 185.429C67.8428 178.448 68.1355 170.59 70.6123 167.032C71.5355 165.703 72.7289 165.073 73.9673 165.275C79.3037 166.086 81.4203 171.333 83.6945 176.872C85.0905 180.34 86.5541 183.897 88.8508 186.397C97.6998 196.034 108.103 199.254 108.215 199.299C108.53 199.389 108.733 199.705 108.688 200.042C108.643 200.38 108.373 200.628 108.035 200.628C106.977 200.65 105.918 200.673 104.883 200.673ZM73.562 166.582C72.7514 166.582 72.1435 167.235 71.7382 167.797C68.6083 172.278 70.5448 180.565 72.8415 184.776C75.2958 189.279 79.1461 192.814 84.2799 195.291C89.7514 197.948 96.574 199.299 104.567 199.322C100.695 197.611 93.9846 193.963 87.8826 187.298C85.4283 184.618 83.9196 180.925 82.4786 177.367C80.362 172.188 78.3806 167.28 73.8097 166.604C73.7196 166.582 73.6296 166.582 73.562 166.582Z" fill="#21207F"/>
<path d="M175.382 230.824C176.913 232.198 179.683 234.202 184.141 239.133C192.292 248.118 181.551 243.074 181.371 242.984C188.104 251.968 171.374 241.295 171.374 241.295C184.298 254.67 164.304 241.768 146.853 238.39C133.298 235.778 111.322 241.588 90.7419 237.084C84.8426 235.801 79.0558 233.662 73.6068 230.239C54.2425 218.08 67.5723 193.513 76.1061 180.926C77.9525 178.179 79.5962 176.017 80.6094 174.666C82.0955 177.526 83.6942 180.791 86.1035 184.101C86.1485 184.146 86.171 184.213 86.2161 184.258C87.4995 185.97 88.9631 187.568 90.5618 189.01C90.6744 189.122 90.8095 189.235 90.9446 189.347C91.9803 190.271 93.0386 191.149 94.1194 191.959C94.2545 192.072 94.3896 192.162 94.5247 192.252C94.6823 192.365 94.8174 192.477 94.975 192.59C95.1327 192.702 95.2903 192.815 95.4254 192.905C95.7406 193.13 96.0333 193.333 96.326 193.536C96.4611 193.626 96.5962 193.716 96.7539 193.828C96.9115 193.941 97.0916 194.054 97.2492 194.166C97.3843 194.256 97.5419 194.346 97.677 194.436C97.8347 194.526 97.9698 194.616 98.1274 194.729C98.2174 194.774 98.285 194.842 98.3751 194.887C98.5102 194.977 98.6678 195.067 98.8029 195.157C98.938 195.247 99.0956 195.337 99.2307 195.427C99.3658 195.517 99.5234 195.607 99.6585 195.675C99.7711 195.742 99.9062 195.81 100.019 195.877C100.199 195.967 100.357 196.08 100.514 196.17L100.852 196.373C101.032 196.485 101.212 196.575 101.37 196.666C101.46 196.711 101.55 196.756 101.617 196.801C102.833 197.476 103.959 198.062 104.905 198.512L105.13 198.625C105.918 199.007 106.571 199.3 107.066 199.525C107.112 199.548 107.179 199.57 107.224 199.593C107.674 199.795 107.945 199.908 108.012 199.931L103.802 203.759L102.968 204.524H103.126C117.267 204.794 146.921 212.788 167.343 221.232H167.389C170.023 221.119 172.41 220.669 174.909 220.196C180.741 219.115 181.214 220.354 175.359 224.812C180.898 227.424 184.389 229.699 186.663 231.883C195.827 240.642 181.214 233.572 175.382 230.824Z" fill="white"/>
<path d="M174.729 247.892C173.31 247.892 170.676 246.924 165.857 245.078C160.296 242.961 153.406 240.326 146.741 239.043H146.718C140.886 237.917 133.253 238.39 125.147 238.885C114.429 239.538 102.293 240.281 90.5842 237.737C84.0769 236.318 78.3802 234.044 73.2239 230.802C67.8874 227.446 64.6 222.92 63.4292 217.359C60.9073 205.424 68.608 190.766 75.4981 180.588L75.5206 180.565C77.3444 177.863 78.9431 175.746 79.9789 174.35L80.0239 174.283C80.159 174.103 80.3842 173.99 80.6093 174.013C80.8345 174.035 81.0372 174.17 81.1497 174.373C81.3299 174.711 81.51 175.071 81.6901 175.431C82.9961 177.976 84.4822 180.858 86.5988 183.718C86.6438 183.785 86.6663 183.83 86.7113 183.853C87.9723 185.542 89.4133 187.095 90.967 188.514C91.1021 188.626 91.2147 188.739 91.3273 188.852C92.2955 189.707 93.3537 190.585 94.4571 191.419C94.5922 191.531 94.7273 191.621 94.8624 191.711C95.02 191.824 95.1551 191.936 95.3127 192.049C95.4703 192.162 95.6054 192.274 95.763 192.364C96.0557 192.567 96.371 192.792 96.6637 192.995L97.069 193.265C97.2266 193.378 97.4067 193.49 97.5644 193.603C97.6995 193.693 97.8571 193.783 97.9922 193.873L98.3299 194.076L98.4425 194.143C98.5326 194.188 98.6001 194.233 98.6677 194.301C98.8253 194.391 98.9604 194.481 99.0955 194.571L99.5233 194.841C99.6584 194.931 99.7935 194.999 99.9511 195.089L100.019 195.134C100.109 195.202 100.221 195.247 100.311 195.314L100.807 195.607C100.919 195.674 101.032 195.742 101.145 195.787C101.325 195.9 101.482 195.99 101.662 196.08C101.752 196.125 101.843 196.17 101.91 196.215C102.991 196.823 104.094 197.386 105.175 197.926L105.4 198.039C106.053 198.354 106.684 198.647 107.314 198.917L107.472 198.984C107.899 199.165 108.17 199.277 108.237 199.3H108.26C108.282 199.3 108.282 199.3 108.305 199.322C108.507 199.435 108.643 199.615 108.665 199.84C108.688 200.065 108.598 200.29 108.417 200.448L108.395 200.471L104.59 203.938C118.753 204.681 146.853 212.09 167.411 220.579C169.843 220.466 172.072 220.061 174.436 219.633L174.751 219.565C178.151 218.935 179.637 219.07 180.065 220.061C180.561 221.187 179.142 222.695 176.62 224.699C181.371 226.996 184.794 229.203 187.113 231.41C189.86 234.044 190.693 235.418 190.063 236.296C189.297 237.422 186.685 236.769 179.48 233.504C180.876 234.765 182.565 236.408 184.614 238.683C187.473 241.835 188.351 243.546 187.586 244.56C186.888 245.483 185.041 245.145 183.128 244.447C183.735 245.573 183.781 246.316 183.308 246.834C182.7 247.487 181.439 247.712 176.282 244.942C175.787 244.672 175.314 244.402 174.841 244.154C176.26 245.978 176.373 246.766 175.99 247.352C175.742 247.712 175.359 247.892 174.729 247.892ZM146.966 237.692H146.988C153.766 238.998 160.746 241.655 166.353 243.817C169.843 245.145 173.761 246.654 174.796 246.541C174.661 246.136 174.008 244.965 170.879 241.745C170.631 241.497 170.631 241.115 170.833 240.844C171.059 240.574 171.441 240.507 171.712 240.709C176.485 243.749 181.191 246.068 182.249 245.911C182.227 245.686 182.002 245.01 180.786 243.389C180.606 243.141 180.606 242.803 180.808 242.556C181.011 242.308 181.326 242.24 181.619 242.375C184.006 243.501 186.032 243.997 186.483 243.772C186.483 243.591 186.37 242.646 183.6 239.606C180.155 235.8 177.701 233.751 176.08 232.378C175.607 231.995 175.224 231.657 174.886 231.342C174.639 231.117 174.594 230.734 174.774 230.464C174.954 230.194 175.314 230.081 175.63 230.239L176.192 230.509C178.331 231.522 181.236 232.896 183.848 233.976C187.181 235.328 188.419 235.508 188.824 235.508C188.667 235.17 188.126 234.292 186.145 232.423C183.781 230.171 180.155 227.897 175.022 225.487C174.819 225.397 174.684 225.217 174.639 224.992C174.594 224.767 174.661 224.564 174.819 224.407L174.886 224.339C178.106 221.885 178.669 220.961 178.759 220.669C178.534 220.579 177.701 220.421 174.954 220.939L174.639 221.006C172.207 221.457 169.91 221.885 167.343 221.975H167.253C167.163 221.975 167.073 221.952 166.983 221.93C145.908 213.08 116.613 205.469 103.126 205.199H102.946C102.676 205.199 102.428 205.019 102.338 204.749C102.248 204.479 102.315 204.208 102.518 204.006L106.819 200.11C106.188 199.84 105.535 199.525 104.882 199.21L104.657 199.097C103.554 198.557 102.428 197.971 101.325 197.363C101.235 197.318 101.144 197.273 101.054 197.206C100.897 197.115 100.717 197.003 100.537 196.913L100.199 196.71L99.7034 196.417C99.6134 196.35 99.5008 196.305 99.4107 196.237L99.3432 196.192C99.2081 196.102 99.0505 196.012 98.9154 195.945L98.4875 195.674C98.3299 195.584 98.1948 195.494 98.0372 195.404C97.9697 195.359 97.8796 195.314 97.7895 195.247L97.6769 195.179C97.5644 195.111 97.4518 195.044 97.3392 194.954C97.2041 194.864 97.0465 194.774 96.9114 194.661C96.7538 194.549 96.5736 194.436 96.416 194.323C96.2809 194.233 96.1233 194.143 95.9882 194.031C95.6955 193.828 95.3802 193.603 95.065 193.4C94.9074 193.288 94.7498 193.175 94.6147 193.062C94.4571 192.95 94.2994 192.837 94.1643 192.725C94.0292 192.635 93.8941 192.522 93.759 192.409C92.6107 191.554 91.5299 190.676 90.5392 189.775C90.4041 189.662 90.2915 189.55 90.1564 189.437C88.5352 187.973 87.0491 186.352 85.7431 184.596C85.6981 184.551 85.6531 184.483 85.6305 184.416C83.4689 181.488 81.9603 178.539 80.6319 175.949C80.6093 175.927 80.6093 175.882 80.5868 175.859C79.5961 177.21 78.2676 179.011 76.759 181.218L76.7365 181.241C69.9815 191.216 62.4384 205.514 64.8477 216.998C65.951 222.2 69.0358 226.433 74.0345 229.586C79.0557 232.738 84.5948 234.945 90.967 236.341C102.473 238.84 114.519 238.12 125.147 237.467C133.253 237.016 140.954 236.543 146.966 237.692Z" fill="#21207F"/>
<path d="M181.979 244.29C181.822 244.29 181.642 244.222 181.507 244.11C177.499 240.259 174.774 237.895 171.036 235.643C170.721 235.441 170.608 235.035 170.811 234.72C171.014 234.405 171.419 234.292 171.734 234.495C175.585 236.792 178.354 239.223 182.43 243.142C182.7 243.389 182.7 243.817 182.452 244.087C182.317 244.222 182.137 244.29 181.979 244.29ZM173.423 244.065C173.22 244.065 173.04 243.975 172.905 243.817C171.014 241.498 167.952 239.719 167.906 239.696C167.591 239.516 167.479 239.088 167.659 238.773C167.839 238.458 168.267 238.345 168.582 238.525C168.717 238.593 171.892 240.439 173.941 242.961C174.166 243.254 174.121 243.682 173.851 243.907C173.716 244.02 173.558 244.065 173.423 244.065ZM175.9 225.826C175.81 225.826 175.697 225.803 175.607 225.758C175.562 225.736 171.261 223.619 166.398 221.502C166.06 221.345 165.903 220.962 166.06 220.602C166.218 220.264 166.601 220.106 166.961 220.264C171.847 222.403 176.17 224.542 176.215 224.565C176.553 224.722 176.688 225.128 176.53 225.465C176.373 225.691 176.148 225.826 175.9 225.826ZM91.6877 205.357C91.3274 205.357 91.0122 205.065 91.0122 204.704C91.0122 204.321 91.3049 204.029 91.6652 204.006C92.093 204.006 102.225 203.759 103.847 203.871C104.229 203.894 104.5 204.231 104.477 204.592C104.455 204.974 104.139 205.245 103.757 205.222C102.203 205.11 91.8228 205.357 91.6877 205.357Z" fill="#21207F"/>
<path d="M108.035 199.907C108.035 199.907 93.4892 194.052 86.2164 184.235C81.3753 177.705 79.8216 171.265 75.9713 167.977C75.5435 167.617 66.6944 163.474 73.4494 185.316C72.5488 186.667 72.5488 186.442 71.6481 187.793C69.6216 185.541 64.4203 166.108 72.9991 164.375C77.615 163.451 82.5236 165.185 99.7489 157.034C121.567 146.721 132.42 143.816 136.271 152.891C136.271 152.891 138.905 160.411 127.039 178.335C116.907 193.625 108.035 199.907 108.035 199.907Z" fill="white"/>
<path d="M108.035 200.582C107.945 200.582 107.855 200.56 107.787 200.537C107.179 200.289 92.9936 194.502 85.6757 184.64C83.4466 181.645 81.9154 178.673 80.5644 176.038C78.9658 172.931 77.5697 170.229 75.5658 168.517C75.4532 168.45 73.922 167.662 72.8412 168.472C71.6704 169.35 70.2518 172.683 74.1022 185.113C74.1697 185.315 74.1247 185.518 74.0121 185.676C73.5393 186.374 73.3141 186.666 73.0664 186.959C72.8412 187.229 72.6386 187.499 72.2108 188.153C72.0982 188.333 71.8955 188.445 71.6929 188.445C71.4902 188.468 71.2876 188.378 71.1525 188.22C69.4863 186.374 66.0637 174.8 68.2704 168.18C69.1035 165.658 70.6571 164.149 72.8863 163.699C73.9896 163.473 75.0704 163.406 76.3313 163.316C80.5419 163.023 86.3062 162.64 99.4784 156.403C108.35 152.192 114.474 149.693 119.338 148.229C124.922 146.563 128.908 146.315 131.88 147.441C134.177 148.319 135.82 150.008 136.924 152.598C137.059 152.935 136.901 153.341 136.563 153.476C136.226 153.611 135.82 153.453 135.685 153.115C134.739 150.864 133.343 149.423 131.407 148.679C125.643 146.495 115.15 150.458 100.064 157.596C86.6664 163.946 80.4969 164.352 76.4214 164.622C75.2055 164.712 74.1697 164.779 73.1565 164.982C71.4227 165.32 70.2518 166.513 69.5538 168.562C67.7074 174.102 70.2518 183.559 71.6929 186.509C71.828 186.329 71.9181 186.193 72.0306 186.081C72.2108 185.833 72.3909 185.608 72.7287 185.158C69.6439 175.07 69.4637 169.058 72.2108 167.234C73.877 166.13 76.0386 167.076 76.4439 167.414C78.6505 169.305 80.1141 172.12 81.7803 175.363C83.1088 177.952 84.6174 180.879 86.779 183.784C93.2413 192.521 105.738 198.128 107.967 199.096C108.688 198.556 110.624 197.002 113.304 194.3C116.456 191.147 121.297 185.743 126.476 177.907C126.679 177.592 127.106 177.502 127.422 177.727C127.737 177.93 127.827 178.357 127.602 178.673C117.514 193.917 108.8 200.177 108.44 200.447C108.305 200.537 108.17 200.582 108.035 200.582Z" fill="#21207F"/>
<path d="M135.37 151.066C138.522 156.696 134.469 165.252 134.469 165.252L135.37 151.066Z" fill="white"/>
<path d="M134.469 165.928C134.379 165.928 134.267 165.905 134.177 165.86C133.839 165.703 133.704 165.297 133.861 164.959C133.906 164.869 137.734 156.651 134.785 151.381C134.604 151.066 134.717 150.638 135.055 150.458C135.37 150.278 135.798 150.391 135.978 150.728C137.352 153.183 137.622 156.515 136.789 160.411C136.158 163.293 135.145 165.455 135.1 165.545C134.965 165.793 134.717 165.928 134.469 165.928Z" fill="#21207F"/>
</g>
<g clip-path="url(#clip2_2690_33711)">
<path d="M204.037 75.0587L220.222 93.7512C219.988 92.454 219.802 91.1918 219.663 89.9649C216.505 62.3478 236.387 51.7714 258.125 46.5616C278.241 41.7403 284.855 29.6417 286.621 25.3096C286.67 25.1884 286.681 25.055 286.651 24.9276C286.622 24.8001 286.554 24.6848 286.456 24.5972C286.359 24.5097 286.237 24.4542 286.107 24.4383C285.976 24.4224 285.844 24.4469 285.729 24.5084C266.432 34.6595 261.303 29.8876 236.289 32.1464C212.027 34.3371 203.954 52.7451 203.962 71.8285C203.962 72.9052 203.988 73.982 204.039 75.0587H204.037Z" fill="#D2C7F6"/>
<path d="M196.3 62.8361C195.526 61.9424 194.171 61.8442 193.275 62.6168C192.379 63.3893 192.281 64.7401 193.056 65.6338L281.295 167.428C282.07 168.321 283.424 168.419 284.32 167.647C285.216 166.874 285.314 165.523 284.54 164.63L196.3 62.8361Z" fill="#21207F"/>
</g>
<g clip-path="url(#clip3_2690_33711)">
<path d="M196.773 39.8508C196.885 39.98 196.946 40.1458 196.945 40.3168C196.943 40.4878 196.879 40.6523 196.764 40.7792C196.65 40.9061 196.493 40.9866 196.323 41.0055C196.153 41.0245 195.982 40.9805 195.842 40.882L177.542 27.8146C177.465 27.7617 177.4 27.6943 177.35 27.6161C177.3 27.5379 177.266 27.4505 177.25 27.3591C177.234 27.2676 177.237 27.1739 177.257 27.0834C177.278 26.9929 177.316 26.9074 177.37 26.8319C177.424 26.7563 177.492 26.6923 177.571 26.6435C177.65 26.5946 177.738 26.562 177.829 26.5474C177.921 26.5328 178.015 26.5366 178.105 26.5586C178.195 26.5805 178.28 26.6202 178.355 26.6752L196.655 39.7427C196.698 39.7741 196.738 39.8103 196.773 39.8508ZM184.449 62.7611C184.541 62.8649 184.6 62.9936 184.618 63.1308C184.637 63.2681 184.614 63.4078 184.554 63.5322C184.493 63.6566 184.397 63.7602 184.277 63.8299C184.157 63.8995 184.02 63.9321 183.881 63.9235L161.444 62.5287C161.352 62.5245 161.26 62.5019 161.176 62.4622C161.092 62.4224 161.017 62.3663 160.955 62.2972C160.893 62.228 160.845 62.1472 160.814 62.0594C160.784 61.9716 160.771 61.8785 160.777 61.7858C160.782 61.693 160.806 61.6022 160.848 61.5189C160.889 61.4356 160.946 61.3613 161.016 61.3003C161.086 61.2394 161.168 61.1931 161.256 61.164C161.345 61.135 161.438 61.1238 161.53 61.1312L183.967 62.526C184.059 62.5315 184.149 62.555 184.232 62.5954C184.314 62.6358 184.388 62.6921 184.449 62.7611ZM204.244 0.523917C204.285 0.570179 204.319 0.621548 204.347 0.676741L214.339 20.8202C214.422 20.9866 214.435 21.179 214.376 21.355C214.316 21.531 214.19 21.6762 214.023 21.7587C213.857 21.8413 213.665 21.8543 213.489 21.795C213.313 21.7357 213.167 21.6089 213.085 21.4425L203.093 1.29879C203.017 1.14667 203 0.972328 203.043 0.808215C203.086 0.644105 203.188 0.501409 203.329 0.40669C203.47 0.311967 203.64 0.271679 203.809 0.293324C203.977 0.314968 204.132 0.397066 204.244 0.524337L204.244 0.523917Z" fill="#21207F"/>
</g>
<g clip-path="url(#clip4_2690_33711)">
<path d="M243.025 135.771C261.491 117.148 257.059 127.629 257.059 127.629C254.335 133.842 253.352 137.658 250.713 143.23" fill="white"/>
<path d="M250.797 143.544C250.737 143.559 250.674 143.557 250.615 143.538C250.556 143.519 250.504 143.484 250.464 143.436C250.425 143.389 250.4 143.331 250.392 143.27C250.385 143.209 250.395 143.147 250.421 143.091C251.847 140.08 252.789 137.581 253.786 134.935C254.636 132.687 255.51 130.351 256.763 127.5C257.105 126.687 257.421 125.352 257.005 125.077C256.848 124.974 256.143 124.778 253.641 126.58C251.216 128.328 247.723 131.495 243.261 135.995C243.232 136.03 243.196 136.059 243.155 136.08C243.114 136.101 243.069 136.113 243.023 136.115C242.978 136.118 242.932 136.111 242.889 136.095C242.846 136.079 242.807 136.054 242.774 136.022C242.742 135.99 242.717 135.951 242.7 135.909C242.684 135.866 242.676 135.821 242.679 135.775C242.681 135.73 242.693 135.685 242.714 135.644C242.735 135.603 242.764 135.567 242.8 135.539C253.869 124.373 256.414 123.911 257.367 124.537C258.376 125.201 257.54 127.334 257.362 127.754C256.118 130.593 255.242 132.916 254.396 135.162C253.395 137.82 252.448 140.332 251.011 143.366C250.99 143.409 250.961 143.448 250.924 143.478C250.887 143.509 250.844 143.532 250.797 143.544Z" fill="#21207F"/>
</g>
<defs>
<clipPath id="clip0_2690_33711">
<rect width="182.933" height="188.533" fill="white" transform="translate(177.6 174.301)"/>
</clipPath>
<clipPath id="clip1_2690_33711">
<rect width="282.133" height="266.133" fill="white" transform="translate(0 99.3672)"/>
</clipPath>
<clipPath id="clip2_2690_33711">
<rect width="94.1333" height="143.733" fill="white" transform="translate(192.533 24.4336)"/>
</clipPath>
<clipPath id="clip3_2690_33711">
<rect width="34.9333" height="73.3333" fill="white" transform="translate(171.955 74.7344) rotate(-131.462)"/>
</clipPath>
<clipPath id="clip4_2690_33711">
<rect width="17.3333" height="17.0667" fill="white" transform="translate(240.76 128.559) rotate(-14.9455)"/>
</clipPath>
</defs>
</svg>
